<svg xmlns="http://www.w3.org/2000/svg" width="600" height="184.899" viewBox="0 0 600 184.899">
  <g id="Group_6" data-name="Group 6" transform="translate(3030 12017)">
    <path id="Union_102" data-name="Union 102" d="M4.1,64.3A13.831,13.831,0,0,1,.6,54.7a13.919,13.919,0,0,1,3.7-9.8,11.534,11.534,0,0,1,8.9-4.1,7.084,7.084,0,0,1,2.6.4,21.83,21.83,0,0,1,2.1.9c.6.3,1.1.7,1.6.9.8.5,1.4.5,1.6.1a1.607,1.607,0,0,0,.3-1.1v-.2h1.1v8.3H21.4v-.2a9.152,9.152,0,0,0-2.6-5.7A7.694,7.694,0,0,0,13,41.8c-2.5,0-4.3.9-5.3,2.7a14.189,14.189,0,0,0-2,6.1,15,15,0,0,0-.2,2.2c0,.7-.1,1.4-.1,2,0,4.1.6,7.2,1.9,9.3a6.21,6.21,0,0,0,5.6,3,7.993,7.993,0,0,0,4.9-1.6,8.214,8.214,0,0,0,3.1-4.1c.1-.2.1-.3.2-.5,0-.2.1-.3.1-.5s.1-.6.1-.9.1-.8.1-1.3V58h1.1v9.8H21.4v-.2a3.5,3.5,0,0,0-.3-1.6c-.4-.6-.9-.7-1.8-.1-.4.3-.9.6-1.5,1a10.219,10.219,0,0,1-2.1.9,12.032,12.032,0,0,1-2.8.3A11.572,11.572,0,0,1,4.1,64.3Zm70.4,3.6-.1-.1L55.6,43.9V62.7c0,2.6.3,3.3.5,3.5s.9.5,3.4.5h.2v1.1h-9v-.1H38.9V66.6h3.8l-2.8-7.4H31.3L29.6,64a3.041,3.041,0,0,0-.3,1.1,1.762,1.762,0,0,0-.1.6c0,.3.1.5.5.7a4.727,4.727,0,0,0,1.9.2H33v1.1H24.3V66.6h.2a10.584,10.584,0,0,0,2.3-.2c.4-.1.7-.4,1-1a4.87,4.87,0,0,0,.3-.7,6.768,6.768,0,0,1,.4-1l8.3-23h.9l.1.1,9.8,25.7H51v.2h1.2c1.3,0,1.7-.2,1.8-.4a4.134,4.134,0,0,0,.4-1.6v-22l-.5-.4H50.7V41.2h8.4l.1.1L74,60V45.3a9.86,9.86,0,0,0-.1-2.1.6.6,0,0,0-.3-.6.847.847,0,0,0-.6-.2c-.3,0-.9-.1-1.6-.1H70V41.2h8.8v1.1H77.5a6.229,6.229,0,0,0-1.6.1.549.549,0,0,0-.5.3.1.1,0,0,1-.1.1c-.1.1-.1.3-.2.6V67.9ZM31.6,58.1h7.8l-4-10.7Zm127.6,9.6H147.4V66.6h3.8l-2.8-7.4h-8.7L138,64a3.036,3.036,0,0,0-.3,1.1,1.762,1.762,0,0,0-.1.6c0,.3.1.5.5.7a4.729,4.729,0,0,0,1.9.2h1.4v1.1h-8.7V66.6h.2a10.567,10.567,0,0,0,2.3-.2c.4-.1.7-.4,1-1a4.863,4.863,0,0,0,.3-.7,6.853,6.853,0,0,1,.4-1l8.3-23h.9l.1.1L156,66.5h3.4v1.2Zm-19.1-9.6h7.8l-4-10.7Zm-24.3,9.6H105.4V66.6h3.8V42.3h-3.8V41.2h13.2a13.455,13.455,0,0,1,9.5,3.9,12.9,12.9,0,0,1,3.8,9.4,14.09,14.09,0,0,1-2.3,7.9,11.37,11.37,0,0,1-6.2,4.6c-.4.1-.7.2-1.1.3-.3.1-.6.1-.9.2a12.5,12.5,0,0,1-2.1.2Zm-2-1.1h.5c1.8,0,3.3-.1,4.3-.2a13.721,13.721,0,0,0,2.9-.7c.1,0,.2-.1.3-.1s.2-.1.3-.1a7.617,7.617,0,0,0,3.8-3.9,17.484,17.484,0,0,0,1.3-7c0-3.8-.9-6.8-2.7-8.9s-4.7-3.2-8.7-3.3h-2.2V66.6Zm-.2,0h0Zm-8.5,1.1H93.3V66.6h3.8l-2.8-7.4H85.7L84,64a3.036,3.036,0,0,0-.3,1.1,1.762,1.762,0,0,0-.1.6c0,.3.1.5.5.7a4.729,4.729,0,0,0,1.9.2h1.4v1.1H78.7V66.6h.2a10.567,10.567,0,0,0,2.3-.2c.4-.1.7-.4,1-1a4.966,4.966,0,0,0,.3-.7,6.853,6.853,0,0,1,.4-1l8.3-23h.9l.1.1L102,66.5h3.4v1.2ZM86,58.1h7.8l-4-10.7ZM269.4,26.8a6.656,6.656,0,0,1-3.6-2.3l-.2-.2c-.1-.1-.1-.2-.2-.3a4.055,4.055,0,0,1-.8-1.9,26.154,26.154,0,0,1-.2-3.5V1.5h-3.8V.4h12.2V1.5h-4.1V18.8a16.232,16.232,0,0,0,.3,3.8,3.453,3.453,0,0,0,1.3,1.9.1.1,0,0,1,.1.1c.1,0,.1.1.2.2A8.982,8.982,0,0,0,273,26a10.135,10.135,0,0,0,3.1.4,9.862,9.862,0,0,0,4.4-.9,7.026,7.026,0,0,0,2.8-2.6c.1-.1.1-.1.1-.2a.349.349,0,0,1,.1-.2,8.457,8.457,0,0,0,.5-1.7,19.254,19.254,0,0,0,.1-2.7V4.6c0-1.6-.2-2.3-.4-2.5s-.7-.5-2-.5h-2.1V.5h17.7l.1.1,14.8,18.7V4.6a9.861,9.861,0,0,0-.1-2.1.6.6,0,0,0-.3-.6.845.845,0,0,0-.6-.2c-.3,0-.9-.1-1.6-.1h-1.4V.5H317V1.6h-1.3a6.171,6.171,0,0,0-1.6.1.551.551,0,0,0-.5.3.1.1,0,0,1-.1.1c-.1.1-.1.3-.2.6V27.2h-.6l-.1-.1L293.8,3.2V22c0,2.6.3,3.3.5,3.5s.9.5,3.4.5h.2v1.1H289V26h1.5c1.3,0,1.7-.2,1.8-.4a4.135,4.135,0,0,0,.4-1.6V2l-.5-.4h-4.9a2.175,2.175,0,0,0-1.6.5c-.2.2-.4.9-.4,2.5V17.9c0,3.4-.8,5.9-2.5,7.4s-4.2,2.2-7.6,2.2A19.172,19.172,0,0,1,269.4,26.8Zm144.5-3.5a13.541,13.541,0,0,1-3.7-9.5,13.824,13.824,0,0,1,1-5.5,13.468,13.468,0,0,1,3.1-4.5,14.964,14.964,0,0,1,2.5-1.9A11.127,11.127,0,0,1,419.5.6a9.839,9.839,0,0,1,1.6-.5,7.57,7.57,0,0,1,1.5-.1,11.434,11.434,0,0,1,8.7,4.1,13.849,13.849,0,0,1,3.7,9.7,13.61,13.61,0,0,1-3.7,9.6,11.38,11.38,0,0,1-8.8,4A11.544,11.544,0,0,1,413.9,23.3Zm3-19.1c-1.3,2.2-2,5.4-2,9.5,0,4.3.7,7.5,1.9,9.6a6.153,6.153,0,0,0,5.7,3.1,6.258,6.258,0,0,0,5.7-3.1c1.3-2.1,1.9-5.3,1.9-9.6,0-4.1-.7-7.3-2-9.5A5.83,5.83,0,0,0,422.6,1,6.344,6.344,0,0,0,416.9,4.2ZM238.2,23.3a13.542,13.542,0,0,1-3.7-9.5,13.824,13.824,0,0,1,1-5.5,13.442,13.442,0,0,1,3.1-4.5,14.964,14.964,0,0,1,2.5-1.9A11.126,11.126,0,0,1,243.8.6a9.811,9.811,0,0,1,1.6-.5,7.57,7.57,0,0,1,1.5-.1,11.434,11.434,0,0,1,8.7,4.1,13.849,13.849,0,0,1,3.7,9.7,13.61,13.61,0,0,1-3.7,9.6,11.369,11.369,0,0,1-17.4-.1Zm3-19.1c-1.3,2.2-2,5.4-2,9.5,0,4.3.6,7.5,1.9,9.6a6.791,6.791,0,0,0,11.4,0c1.3-2.1,1.9-5.3,1.9-9.6,0-4.1-.7-7.3-2-9.5A5.828,5.828,0,0,0,246.9,1,6.343,6.343,0,0,0,241.2,4.2ZM31.1,23.7c-2.4-2.4-3.6-5.7-3.6-9.8a13.527,13.527,0,0,1,3.8-9.6,11.789,11.789,0,0,1,9-4,8.953,8.953,0,0,1,3.1.4,19.211,19.211,0,0,1,2,.9,2.173,2.173,0,0,1,.5.3c.1.1.3.2.4.3a3.013,3.013,0,0,0,.8.4,2.361,2.361,0,0,0,.8.2c.6,0,.7-.3.7-.4a1.689,1.689,0,0,0,.3-1V1.1H50V9.5H48.9V9a7.39,7.39,0,0,0-.5-1.9,9.24,9.24,0,0,0-.7-1.4,2.173,2.173,0,0,1-.3-.5,1.774,1.774,0,0,0-.4-.5,9.24,9.24,0,0,0-2.9-2.3,8.794,8.794,0,0,0-3.5-1h-.3a6.8,6.8,0,0,0-6.1,3.1c-1.4,2.1-2.1,5.3-2.1,9.5,0,4.3.7,7.4,2.1,9.4,1.3,2,3.5,3,6.3,3a8.18,8.18,0,0,0,4.4-1.1,3.312,3.312,0,0,0,1.6-3V19.4H42.7V18.3H54.1v1.1H50.9v4.1l-.1.1A19.825,19.825,0,0,1,46,26.5a16.416,16.416,0,0,1-5.3.8A12.975,12.975,0,0,1,31.1,23.7Zm429.7,3.5h-.6l-18.9-24V22c0,2.6.3,3.3.5,3.5s.9.5,3.4.5h.2v1.1h-8.9V26H438c1.3,0,1.7-.2,1.8-.4a2.828,2.828,0,0,0,.4-1.6V2.1l-.5-.4h-3.2V.6h8.4l.1.1,14.8,18.7V4.7a9.861,9.861,0,0,0-.1-2.1.6.6,0,0,0-.3-.6.844.844,0,0,0-.6-.2c-.3,0-.9-.1-1.6-.1h-1.4V.6h8.8V1.7h-1.3a6.226,6.226,0,0,0-1.6.1.552.552,0,0,0-.5.3.1.1,0,0,1-.1.1c-.1.1-.1.3-.2.6V27.2Zm-263,0h-.6l-.1-.1L178.3,3.2V22c0,2.6.3,3.3.5,3.5s.9.5,3.4.5h.2v1.1h-8.9V27H161.6V25.9h3.8l-2.8-7.4H154l-1.7,4.8a3.036,3.036,0,0,0-.3,1.1,1.759,1.759,0,0,0-.1.6c0,.3.1.5.5.7a4.709,4.709,0,0,0,1.9.2h1.4V27H147V25.9h.2a10.554,10.554,0,0,0,2.3-.2c.4-.1.7-.4,1-1a4.842,4.842,0,0,0,.3-.7,7.058,7.058,0,0,1,.4-1l8.3-23h.9l.1.1,9.8,25.7h3.4V26H175c1.3,0,1.7-.2,1.8-.4a4.111,4.111,0,0,0,.4-1.6V2l-.5-.4h-3.2V.5h8.4l.1.1,14.8,18.7V4.6a9.773,9.773,0,0,0-.1-2.1.6.6,0,0,0-.3-.6.845.845,0,0,0-.6-.2c-.3,0-.9-.1-1.6-.1h-1.4V.5h8.8V1.6h-1.3a6.167,6.167,0,0,0-1.6.1.55.55,0,0,0-.5.3.1.1,0,0,1-.1.1c-.1.1-.1.3-.2.6V27.2Zm-43.5-9.8h7.8l-4-10.7ZM396.5,27V25.9h3.8V1.6h-3.8V.5h11.9V1.6h-3.8V25.9h3.8V27Zm-6.6,0H377.3V25.9h4.2V1.6H381a21.763,21.763,0,0,0-5,.4,4.067,4.067,0,0,0-2.4,1.4,3.385,3.385,0,0,0-.7,1.6,11.914,11.914,0,0,0-.2,2.9v.8h-1.1l.3-8.3h23.5l.3,8.3h-1.1V7.9a10.306,10.306,0,0,0-.6-4.2,3.187,3.187,0,0,0-2.1-1.6,5.823,5.823,0,0,0-1.9-.3c-.6-.1-1.3-.1-1.9-.2h-2.3V25.9H390V27Zm-18.6,0H359.5V25.9h3.8l-2.8-7.4h-8.6l-1.7,4.8a3.036,3.036,0,0,0-.3,1.1,1.759,1.759,0,0,0-.1.6c0,.3.1.5.5.7a4.709,4.709,0,0,0,1.9.2h1.4V27h-8.7V25.9h.2a10.56,10.56,0,0,0,2.3-.2c.4-.1.7-.4,1-1a4.842,4.842,0,0,0,.3-.7,6.949,6.949,0,0,1,.4-1l8.3-23h.9l.1.1,9.8,25.7h3.4V27Zm-19.1-9.6H360L356,6.7ZM327.9,27H317.5V25.9h3.8V1.6h-3.8V.5h13.2a13.456,13.456,0,0,1,9.5,3.9,12.9,12.9,0,0,1,3.8,9.4,14.1,14.1,0,0,1-2.3,7.9,11.374,11.374,0,0,1-6.2,4.6c-.4.1-.7.2-1.1.3-.3.1-.6.1-.9.2a12.483,12.483,0,0,1-2.1.2ZM326,25.9h.5c1.8,0,3.3-.1,4.3-.2a13.661,13.661,0,0,0,2.9-.7c.1,0,.2-.1.3-.1s.2-.1.3-.1a7.614,7.614,0,0,0,3.8-3.9,17.5,17.5,0,0,0,1.3-7c0-3.8-.9-6.8-2.7-8.9S332,1.8,328,1.7h-2.2V25.9Zm-.2,0h0ZM210.7,27V25.9h3.8V1.6h-3.8V.5h21.7l.7,7.3h-1.2V6.6a8.478,8.478,0,0,0-.4-1.7,5.279,5.279,0,0,0-.8-1.5,4.344,4.344,0,0,0-2-1.3,9.435,9.435,0,0,0-3-.5h-7V12.9h1.4a14.74,14.74,0,0,0,4.8-.6c1-.4,1.5-1.8,1.5-4V8.1h1.1V18.8h-1.1v-1a2.485,2.485,0,0,0-.1-.8c-.1-.4-.2-.9-.3-1.2-.1-.4-.4-.6-.7-.9a4.778,4.778,0,0,0-1.8-.6,26.819,26.819,0,0,0-3.4-.2h-1.4V26h4.1v1ZM135,27V25.9h3.8V14H124.9V25.9h3.8V27H103.9V25.9h3.4L97.6,14.1l-.2.2V25.9h4.1V27H89.3V25.9h3.8V1.6H89.3V.5h12V1.6h-4V12.9l9.4-8.4A16.57,16.57,0,0,0,108.1,3c.4-.5.4-.7.4-.8a.519.519,0,0,0-.2-.4c-.1-.1-.5-.1-1.4-.1h-2.2V.6h11.6V1.7h-3a6.186,6.186,0,0,0-2.7,1.1,25.628,25.628,0,0,0-2.6,2,6.951,6.951,0,0,1-1,.8,5.988,5.988,0,0,0-.8.8l-5.5,5L113.1,26h3.7v-.1h3.8V1.6h-3.8V.5h11.9V1.6h-3.8V12.9h13.9V1.6H135V.5h11.8V1.6H143V25.9h3.8V27ZM80.5,27H68.7V25.9h3.8l-2.8-7.4H61.1l-1.7,4.8a3.036,3.036,0,0,0-.3,1.1,1.745,1.745,0,0,0-.1.6c0,.3.1.5.5.7a4.707,4.707,0,0,0,1.9.2h1.4V27H54.1V25.9h.2a10.567,10.567,0,0,0,2.3-.2c.4-.1.7-.4,1-1a4.842,4.842,0,0,0,.3-.7c.1-.3.2-.6.3-1L66.5,0h.9l.1.1,9.8,25.7h3.4V27ZM61.4,17.4h7.8l-4-10.7ZM26.4,27H14.6V25.9h3.8l-2.8-7.4H7L5.3,23.3A3.041,3.041,0,0,0,5,24.4a1.759,1.759,0,0,0-.1.6c0,.3.1.5.5.7a4.707,4.707,0,0,0,1.9.2H8.7V27H0V25.9H.2a10.567,10.567,0,0,0,2.3-.2c.4-.1.7-.4,1-1a4.842,4.842,0,0,0,.3-.7,6.848,6.848,0,0,1,.4-1L12.5,0h.9l.1.1,9.8,25.7h3.4V27ZM7.3,17.4h7.8l-4-10.7Z" transform="translate(-2894.6 -11914.7)" fill="#231815"/>
    <path id="Path_23" data-name="Path 23" d="M111.3,299.1l-6.6-6.6v53.2l-8.6,8.6-5.4-5.4v-119L83.6,237V346.7l-7.4,7.4-6.4-6.4V250.6l-7.1,7.1v89.8l-6.2,6.2-7.1-7.1V271l-7,7.1v68.7l-7,7-7.1-7.1V291.8L21.1,299,21,349.3l10.3,10.3L21,369.8l9.7,9.7-9.8,9.7L45.7,414l9.8-9.8,10.6,10.6,10.4-10.4,9.7,9.7,24.7-24.7L100.5,379l10.3-10.3-9.5-9.5,10-10V299.1Zm-24,55,5.3,5.3-5.3,5.3-5.2-5.3Zm4.8,26-5.2,5.3-5.3-5.3,5.3-5.3ZM76.4,364.2l5.3,5.3-5.3,5.3-5.3-5.3Zm-5.2,15.9-5.3,5.3-5.3-5.3,5.3-5.2ZM66.1,354l5.2,5.3-5.2,5.3-5.3-5.3Zm-5,15.5-5.2,5.2-5.3-5.2,5.3-5.2Zm-10,10.6-5.3,5.3-5.2-5.3,5.2-5.3Zm-5.3-25.7,5.3,5.3L45.8,365l-5.2-5.3ZM30.1,369.5l5.3-5.2,5.2,5.2-5.2,5.3Zm.3,19.7,5.3-5.2,5.3,5.2-5.3,5.3Zm15.3,16-5.2-5.3,5.2-5.3L51,400Zm5-16L56,384l5.3,5.2L56,394.5Zm15.2,16.2-5.3-5.3,5.3-5.3,5.3,5.3Zm10.5-10.9-5.3-5.3,5.3-5.2,5.3,5.2ZM87,405.2l-5.3-5.3,5.3-5.3,5.3,5.3Zm14.5-16-5.3,5.3-5.3-5.3,5.3-5.2Zm0-19.7-5.3,5.3L91,369.5l5.2-5.2Z" transform="translate(-3050.9 -12246.9)" fill="#00a050"/>
  </g>
</svg>
