<svg xmlns="http://www.w3.org/2000/svg" width="283.85" height="127.563" viewBox="0 0 283.85 127.563">
  <g id="Group_6" data-name="Group 6" transform="translate(1891 11350)">
    <path id="Path_22" data-name="Path 22" d="M237.32,73.94c-2.19-2.49-8-7.13-9.35-7.63a22.851,22.851,0,0,0-3.48-.53c-.65-.07-1.31-.15-1.83-.22l-1.19-.17-.3-1.17a27.186,27.186,0,0,1-.46-3.26c-.22-2.29-.4-2.94-.81-2.97h-.04a1.745,1.745,0,0,0-1.01.67,6.046,6.046,0,0,0-1.68,4.15,6.951,6.951,0,0,0,.97,2.29l.04.06c.14.26.32.59.46.86l.4.82a5.449,5.449,0,0,1-5.59,4.05c-2.7-.14-7.08-2.6-12.4-6.77-8.3-6.5-16.11-12.45-26.4-12.45-9.51,0-18.28,7.42-27.03,17.14-3.34,3.71-11.33,12.97-21.4,13.85s-12.97-4.57-17.94-8.6c-1.46-1.19-2.89-1.25-2.22-.07a62.439,62.439,0,0,0,5.83,8.43,22.812,22.812,0,0,0,15.63,7.32c15.07.45,28.61-11.88,28.99-11.14,1.07,2.06,1.8,4.06,4.2,5.96s11.59,4.29,12.91,6.69c2.4,4.36,2.29,8.49,3.04,14.72a32.931,32.931,0,0,0,2.13,7.78c.95,2.41,1.49,3.2,1.93,3.26,8.32,1.27,21.07,6.07,27.52,8.37a44.4,44.4,0,0,0,6.9,2.18h0c.3.02.47-.05.56-.21a.929.929,0,0,0,.03-.71c-.47-1.44-3.66-3.81-5.08-4.45a128.5,128.5,0,0,0-14.86-5.27c-3.9-1.19-9.72-3.07-10.95-4.49-1.01-1.18-2.24-3.2-1.79-7.67.3-3.02.78-5.7,4.2-11.14,2.29-3.65,3.11-6.74,3.03-9.35A41.964,41.964,0,0,0,198.72,86c.95,2.48.5,8.6-1.39,10.45l-.25.25-.33.13c-.15.06-.42.15-.64.23-2.75.94-2.42,1.93-2.22,2.53.14.42.74.66,1.65.66a6.241,6.241,0,0,0,5.08-2.66,43.78,43.78,0,0,0,2.57-5.97,24.219,24.219,0,0,1,2.01-4.3l.54-.94a19.456,19.456,0,0,0,8.86-2.37,32.394,32.394,0,0,0,5.73-4.44,22.486,22.486,0,0,1,2.72-2.22,6.239,6.239,0,0,1,3.43-.96,20.716,20.716,0,0,1,4.75.81l.1.02c.88.22,1.89.46,2.95.67a3.1,3.1,0,0,0,3.25-1.83A1.837,1.837,0,0,0,237.32,73.94Z" transform="translate(-1891 -11350)" fill="#ed1a3a"/>
    <path id="Union_101" data-name="Union 101" d="M58.81,79.71c0-7.08,2.731-15.66,12.821-15.66a9.84,9.84,0,0,1,8.239,4.06h.121V53.5H91.47V94.91H80.39V91.6h-.12c-1.45,1.91-3.19,4.06-8.82,4.06C62.92,95.66,58.81,87.25,58.81,79.71Zm11.48.12c0,3.6.93,7.48,5.05,7.48s5.05-3.89,5.05-7.48c0-3.54-.93-7.42-5.05-7.42S70.29,76.3,70.29,79.83ZM0,94.92,15.25,53.5H27.72L42.8,94.91H29.58L27.84,89H14.67l-1.86,5.92Zm17.46-14.8h7.83L21.58,67.36H21.46ZM44.25,94.91V64.81H55.73v30.1ZM55.73,61.56h.01Zm-11.479,0V53.5H55.73v8.06Zm173.46-28.5c0-9.509,11.14-9.159,16.99-10.27,1.57-.29,3.13-.75,3.13-2.669,0-2.03-1.911-2.78-3.77-2.78-3.541,0-4.23,1.8-4.29,3.07H219.1a8.7,8.7,0,0,1,5.22-8.12c2.9-1.391,6.73-1.741,10.271-1.741,14.379,0,14.27,5.971,14.27,11.77V34.68h.01c0,2.26.121,4.811,1.39,6.73H238.54a8.209,8.209,0,0,1-.41-2.84h-.12c-2.441,2.779-5.971,3.6-9.69,3.6C222.52,42.17,217.71,39.39,217.71,33.06Zm15.62-3.71c-2.551.58-3.891,1.22-3.891,3.25,0,1.39,1.51,2.78,3.6,2.78a4.556,4.556,0,0,0,4.811-4.7V27.9A19.575,19.575,0,0,1,233.33,29.35Zm-78.6,3.71c0-9.509,11.14-9.159,16.99-10.27,1.57-.29,3.13-.75,3.13-2.669,0-2.03-1.91-2.78-3.77-2.78-3.54,0-4.23,1.8-4.29,3.07H156.12a8.7,8.7,0,0,1,5.22-8.12c2.9-1.391,6.729-1.741,10.27-1.741,14.38,0,14.27,5.971,14.27,11.77V34.68h.01c0,2.26.121,4.811,1.391,6.73H175.56a8.211,8.211,0,0,1-.41-2.84h-.12c-2.44,2.779-5.971,3.6-9.69,3.6C159.54,42.17,154.73,39.39,154.73,33.06Zm15.62-3.71c-2.551.58-3.89,1.22-3.89,3.25,0,1.39,1.509,2.78,3.6,2.78a4.555,4.555,0,0,0,4.81-4.7V27.9A19.562,19.562,0,0,1,170.35,29.35ZM76.27,31.56H87.23a3.718,3.718,0,0,0,1.39,2.669,4.739,4.739,0,0,0,3.07.87c1.51,0,3.89-.58,3.89-2.32s-.99-2.26-6.32-3.19c-8.761-1.51-12.3-4.29-12.3-9.45,0-7.6,8.18-9.571,14.21-9.571,6.5,0,14.33,1.8,14.62,9.51H95.35v-.01a2.906,2.906,0,0,0-1.329-2.26,4,4,0,0,0-2.551-.87c-1.62,0-3.479.35-3.479,2.32,0,.87.7,1.28,1.329,1.57,1.911.81,6.26,1.04,10.091,2.32,3.83,1.22,7.189,3.48,7.189,8.41,0,8.349-8,10.61-15.31,10.61C84.21,42.17,76.44,39.33,76.27,31.56Zm-33.349.39V11.31H54.4V27.09c0,3.48.41,5.92,3.77,5.92,1.97,0,4.58-.99,4.58-5.8V11.31H74.23v30.1H63.16V37.58H63.04c-2.149,3.019-5.22,4.579-9.8,4.579C47.85,42.16,42.92,38.85,42.92,31.95Zm68.9.83V18.39h-5.1V11.31h5.1V2.15H123.3v9.16h6.16V18.39h-6.15v10.5c0,2.78.64,4,3.54,4a20.821,20.821,0,0,0,2.61-.169v8.7c-2.319,0-4.929.35-7.369.35C117.22,41.77,111.82,41.02,111.82,32.78Zm160.55,8.64V25.64c0-3.48-.41-5.92-3.77-5.92-1.969,0-4.579.99-4.579,5.8V41.41H252.54V11.31h11.07v3.83h.12c2.15-3.019,5.22-4.58,9.8-4.58,5.39,0,10.32,3.31,10.32,10.211V41.42Zm-67.98-.01V11.31h11.48v30.1Zm-15.08,0V0h11.48V41.41Zm-57.64,0V11.31h11.01v4.81h.121c1.859-3.6,4.289-5.57,8.47-5.57a13.035,13.035,0,0,1,3.36.46V21.16a11.535,11.535,0,0,0-4.52-.75c-4.52,0-6.96,2.669-6.96,9.11V41.41Zm-57.44,0h.01Zm-44.65,0L27.84,35.49H14.67l-1.86,5.92H0L15.25,0H27.72L42.8,41.41ZM17.46,26.62h7.83L21.58,13.86H21.46ZM252.53,11.31h.01Zm-120.87,0h.01Zm72.73-3.25V0h11.48V8.06Z" transform="translate(-1891 -11350)" fill="#203263"/>
  </g>
</svg>
