<svg xmlns="http://www.w3.org/2000/svg" xmlns:xlink="http://www.w3.org/1999/xlink" width="387.539" height="68.895" viewBox="0 0 387.539 68.895">
  <defs>
    <radialGradient id="radial-gradient" cx="0.667" cy="0.473" r="0.697" gradientTransform="matrix(0.999, 0.045, -0.049, 1.099, 0.024, -0.077)" gradientUnits="objectBoundingBox">
      <stop offset="0" stop-color="#87ba24"/>
      <stop offset="1" stop-color="#01462f"/>
    </radialGradient>
  </defs>
  <g id="Group_6" data-name="Group 6" transform="translate(2707 11730)">
    <path id="Union_101" data-name="Union 101" d="M41.35,44.958a.749.749,0,0,1-.75-.751V6.448a.749.749,0,0,1,.75-.751H60.68c6.73,0,11.5,4.151,11.5,10.26,0,3.59-1.68,6.5-4.37,7.851l.33.11c3.58,1.4,5.83,4.819,5.83,9.26,0,7.8-4.88,11.78-14.13,11.78Zm5.73-16.88v10.43a.749.749,0,0,0,.75.75H59.46c5.6,0,8.02-2.1,8.02-5.909,0-4.39-2.371-5.95-7.91-6.02H47.83A.749.749,0,0,0,47.08,28.077Zm.01-15.97V20.9a.75.75,0,0,0,.751.751H59.31c4.24-.07,6.38-1.97,6.38-5.77,0-3.33-2.25-4.511-6.38-4.511H47.84A.754.754,0,0,0,47.09,12.108ZM.75,44.958A.749.749,0,0,1,0,44.207V6.448A.749.749,0,0,1,.75,5.7H20.08c6.73,0,11.5,4.151,11.5,10.26,0,3.59-1.68,6.5-4.37,7.851l.33.11c3.59,1.4,5.83,4.819,5.83,9.26,0,7.8-4.88,11.78-14.13,11.78Zm5.74-16.88v10.43a.749.749,0,0,0,.75.75H18.87c5.59,0,8.02-2.1,8.02-5.909,0-4.39-2.371-5.95-7.91-6.02H7.24A.749.749,0,0,0,6.49,28.077Zm.01-15.97V20.9a.75.75,0,0,0,.751.751H18.72c4.24-.07,6.38-1.97,6.38-5.77,0-3.33-2.25-4.511-6.38-4.511H7.25A.741.741,0,0,0,6.5,12.108ZM94.73,44.547,74.41,6.518a.563.563,0,0,1,.49-.831H81.14a.736.736,0,0,1,.66.4l12.91,24.55a.747.747,0,0,0,1.32,0l12.9-24.55a.76.76,0,0,1,.671-.4h6.28a.565.565,0,0,1,.49.831L96.05,44.547a.746.746,0,0,1-1.319,0Zm48.47-5.29a.734.734,0,0,1-.66-.4L129.63,14.307a.746.746,0,0,0-1.319,0l-12.9,24.55a.757.757,0,0,1-.67.4h-6.28a.564.564,0,0,1-.49-.83L128.29.4a.747.747,0,0,1,1.32,0l20.32,38.029a.562.562,0,0,1-.49.83Z" transform="translate(-2469.459 -11720.856)" fill="#004481"/>
    <path id="Union_102" data-name="Union 102" d="M5.91,37.12C2.17,33.38,0,28.38,0,21.97A21.556,21.556,0,0,1,6.5,6.09Q12.665,0,22.84,0A27.26,27.26,0,0,1,33.85,1.81L32.83,6.94a26.814,26.814,0,0,0-9.99-1.92A14.092,14.092,0,0,0,12.15,9.56,16.292,16.292,0,0,0,7.83,21.2c0,5.13,1.28,9.24,3.9,12.23,2.561,2.991,5.94,4.541,10.53,4.541a16.61,16.61,0,0,0,6.03-.96V26.92q0-1.035-.03-1.92H22.87a25.719,25.719,0,0,0-.589-4.75l13.109.45c-.48,1.55-.53,3.45-.53,6.7v5.18a34.448,34.448,0,0,0,.53,7.32A35.609,35.609,0,0,1,21.72,42.73C14.94,42.73,9.7,40.86,5.91,37.12Zm85.16,5.39c-4.75-.11-8.54-2.83-8.65-8.01-.211-9.13,9.29-12.01,16.77-9.72,0-4.109.27-8.38-5.18-8.38a20.635,20.635,0,0,0-5.58.74,16.073,16.073,0,0,0-3.13,1.24l.75-4.04a19.454,19.454,0,0,1,8.31-1.84c7.69,0,11.24,2.56,11.24,10.52V35.24c0,2.24.06,5.53.53,6.57,0,0-4.93,0-6.349.011a17.3,17.3,0,0,1-.45-2.831,11.026,11.026,0,0,1-8.075,3.521ZM88.88,33.7c0,3.04,1.82,4.271,4.7,4.271a9.026,9.026,0,0,0,5.61-2.14V27.82A12.568,12.568,0,0,0,96,27.383C91.677,27.384,88.88,30.045,88.88,33.7Zm-41.1,8.8c-4.75-.11-8.54-2.83-8.65-8.01-.211-9.13,9.29-12.01,16.77-9.72,0-4.11.27-8.38-5.18-8.38a18.734,18.734,0,0,0-8.7,1.98l.75-4a19.338,19.338,0,0,1,8.28-1.87c7.691,0,11.27,2.56,11.27,10.52V35.24a30.154,30.154,0,0,0,.53,6.57H56.48L56,38.98A10.925,10.925,0,0,1,47.965,42.5ZM45.6,33.7c0,3.04,1.82,4.271,4.7,4.271a9.026,9.026,0,0,0,5.61-2.14V27.82a12.565,12.565,0,0,0-3.188-.436C48.4,27.384,45.6,30.045,45.6,33.7Zm99,6.03c-.91-1.229-1.39-3.47-1.39-6.67V17.2h-4.43V13.73l4.43-.54L143.69,6.3l5.87-.43v7.37h7.259v3.95H149.56V33.26c0,3.04,1.28,4.54,3.739,4.54a10.062,10.062,0,0,0,4.75-1.23l.53,3.74a16.4,16.4,0,0,1-7.62,2.09C148.02,42.4,145.94,41.49,144.6,39.73Zm-16.051,2.1V41.81a13.742,13.742,0,0,0,.26-3.46c.02-1.18.02-2.61.02-4.28V22.86c0-3.84-1.18-5.61-4.009-5.61-2.19,0-4.75,1.55-6.78,3.37v14.1c0,1.61.03,3.11.09,4.34a17.1,17.1,0,0,0,.29,2.76h-7a40.4,40.4,0,0,0,.32-6.89V20.35c0-3.58-.58-5.02-1.651-5.71,2.49-1.25,4.01-1.87,5.15-1.87,2.07,0,2.541,1.82,2.59,4.109,2.461-2.509,5.93-4.43,9.19-4.43,3.2,0,5.56,1.12,7,3.42a6.827,6.827,0,0,1,.761,2.06,22.474,22.474,0,0,1,.41,4.78V34.62c0,4.71.2,6.68.43,7.21Zm33.061-.01c.519-.95.54-3.2.54-7.26V20.46c0-3.44-.45-5.03-1.651-5.819a14.388,14.388,0,0,1,5.23-1.921c3.1,0,2.78,2.93,2.78,6.19V34.49c0,3.58.08,6.431.54,7.32v.011Zm-93.38,0a11.7,11.7,0,0,0,.22-1.61c.1-1.36.1-3.11.1-5.01V20.35c0-3.26-.54-5.06-1.66-5.71,2-1.05,3.91-1.87,5.14-1.87,2.13,0,2.551,1.98,2.551,4.17,1.98-2.99,4.43-4.49,7.259-4.49a7.106,7.106,0,0,1,1.551.16l-.9,4.91a15.351,15.351,0,0,0-1.6-.05c-2.03,0-4.06,1.07-6.03,3.31V35.14c0,4.22.16,6.19.37,6.681ZM162.31,8.97a3.639,3.639,0,0,1-1.1-2.67,4.219,4.219,0,0,1,.121-1.03,3.335,3.335,0,0,1,.979-1.64,3.485,3.485,0,0,1,2.67-1.1,3.42,3.42,0,0,1,2.67,1.1,3.451,3.451,0,0,1,1.1,2.67,3.639,3.639,0,0,1-1.1,2.67,3.423,3.423,0,0,1-2.67,1.1A3.485,3.485,0,0,1,162.31,8.97Z" transform="translate(-2654.919 -11717.669)" fill="#121212"/>
    <path id="Path_58" data-name="Path 58" d="M33.59,31.49A36.381,36.381,0,0,0,44.92,13.92s3.77,2.91,1.01,9.11c0,0-4.96,10.19-12.34,8.46Zm5.63-9.48a38.4,38.4,0,0,1-6.9,8.05s-.99-14.58,2.89-21.27c0,0,2.85-4.65,6.05-1.81,0,0,1.85,1.35,2.21,5.19a2.543,2.543,0,0,1-.21,1.05,45.54,45.54,0,0,1-4.04,8.79ZM14.54,67.85a11.3,11.3,0,0,1-3.48-5.73s10.41-6.44,18-23.97c0,0,2.74,10.5-3.59,24.06.01,0-4.47,9.84-10.93,5.64ZM10.65,6.16S12.42-.51,16.88.03c0,0,6.59-.04,9.89,9.71,0,0,3.43,9.12,1.99,18.15A46.286,46.286,0,0,0,10.65,6.16ZM27.39,30.25s-8.12,4.27-19.25-2.66c0,0-10.08-6.51-5.04-15.19,0,0,2.45-3.29,5.6-4.06,0,.01,12.25,5.96,18.69,21.91Zm-15.6,8.79a39.9,39.9,0,0,1,4.9-2.27,29.266,29.266,0,0,1,4.58-1.24,17.275,17.275,0,0,1,6.45.26S21.62,51.46,8.99,59.76a12.286,12.286,0,0,1-6.45-6.73c-2.76-7.8,9.25-13.99,9.25-13.99Zm26.52,3.83a54.256,54.256,0,0,1,3.17,7.04c.92,2.5,1.54,4.71,1.54,4.71s-.41,3.93-3.25,4.38c0,0-4.61,1.67-6.32-6.73,0,0-1.54-9.48-.5-16.21a24.1,24.1,0,0,1,5.36,6.81Zm-.65-4.63a24.9,24.9,0,0,0-3.12-3.4s6.05-.09,10.79,6.28c0,0,4.16,5.15-.72,11.7a39.1,39.1,0,0,0-3.47-9.12,45.965,45.965,0,0,0-3.48-5.46Z" transform="translate(-2708.689 -11729.999)" fill="url(#radial-gradient)"/>
  </g>
</svg>
