<svg xmlns="http://www.w3.org/2000/svg" width="1623.01" height="1738.775" viewBox="0 0 1623.01 1738.775">
  <path id="Union_104" data-name="Union 104" d="M16936.5,6111.55a17.7,17.7,0,0,1-2.455-7.119,28.35,28.35,0,0,1,0-7.366,40.975,40.975,0,0,0,.492-4.421q.489-1.481,4.908-10.068t9.82-18.906q5.391-10.321,10.8-19.642a103.911,103.911,0,0,1,7.854-12.276l-26.518,8.345c-.979,0-2.857-.169-5.646-.489s-5.479-.736-8.1-1.23a35.051,35.051,0,0,1-6.383-1.719c-1.637-.654-1.807-1.312-.5-1.961q10.808-3.436,17.928-5.894t12.77-4.664q5.646-2.2,11.047-4.66t12.271-5.4q4.418-6.385,10.072-14.242a153.554,153.554,0,0,0,11.051-18.17l3.434-7.366a138.66,138.66,0,0,1-17.676,23.816q-9.835,10.562-19.148,10.557a18.2,18.2,0,0,1-14.242-4.665,23.528,23.528,0,0,1-6.633-14.484,58.95,58.95,0,0,1,.111-12q-3.747,4.5-7.721,8.812a117.655,117.655,0,0,1-18.17,16.208q-9.334,6.624-17.191,6.629-11.288.987-15.705-6.14a36.279,36.279,0,0,1-5.4-14,81.195,81.195,0,0,1-13.016,13.749,22.414,22.414,0,0,1-14.484,5.4,16.581,16.581,0,0,1-12.771-4.417,23.248,23.248,0,0,1-6.875-14,56.586,56.586,0,0,1,1.723-22.1,108.218,108.218,0,0,1,12.52-28.726,150.677,150.677,0,0,1,25.287-28.233v-.008a44.757,44.757,0,0,1,32.662-11.042,13.99,13.99,0,0,1,11.3,7.366,23.923,23.923,0,0,0,0-6.875q-.5-2.45,4.416-1.962a27.4,27.4,0,0,1,10.309,3.438,30.747,30.747,0,0,1,9.34,7.854,10.86,10.86,0,0,1,1.959,10.8,63.509,63.509,0,0,1-4.914,8.59q-3.923,6.146-9.076,14.49t-10.561,17.434q-5.405,9.086-9.09,16.693a84.2,84.2,0,0,0-5.16,12.77q-1.471,5.163,1.479,5.646,2.95.994,9.574-4.417a152.976,152.976,0,0,0,14.49-13.749q7.872-8.359,15.961-18.169,4.157-5.041,7.863-9.7a106.92,106.92,0,0,1,6.125-10.934,115.931,115.931,0,0,1,25.049-28.731,46.673,46.673,0,0,1,32.9-10.558,13.259,13.259,0,0,1,6.879,2.456,13.755,13.755,0,0,1,3.926,5.4,16.709,16.709,0,0,1,2.455-5.894,6.087,6.087,0,0,0,1.477-3.434q0-3.436,4.664-2.459a28.785,28.785,0,0,1,9.816,4.42,37.632,37.632,0,0,1,9.084,8.6,11.682,11.682,0,0,1,2.457,10.558,66.437,66.437,0,0,0-5.152,8.1q-4.187,7.119-10.559,18.169t-14,24.8q-7.611,13.745-15.957,27.493a147.714,147.714,0,0,0,31.424-24.063q6.882-6.872,14-15.221,3.334-3.91,6.934-8.249,3.363-6.963,6.811-13.853,6.152-12.283,10.559-22.344t3.936-14c-.666-1.966.484-2.862,3.43-2.7a23.746,23.746,0,0,1,9.82,3.191,32.155,32.155,0,0,1,9.574,8.1,12.909,12.909,0,0,1,2.709,11.544,37.169,37.169,0,0,1-3.934,8.59q-3.437,6.146-8.107,14t-9.574,16.451q-4.91,8.593-8.586,15.957a63.046,63.046,0,0,0-4.92,12.281q-1.228,4.917,1.729,5.4,2.936.987,8.834-3.928a132.591,132.591,0,0,0,13.012-12.771q7.14-7.865,14.736-17.187,4.937-6.053,9.574-11.7,7.046-15,15.467-31.022,10.075-19.148,21.855-38.305a404.706,404.706,0,0,1,24.3-35.348,223.941,223.941,0,0,1,25.043-27.75q12.539-11.541,24.316-15.467a13.58,13.58,0,0,1,8.342.736,19.218,19.218,0,0,1,7.615,5.4,23.232,23.232,0,0,1,4.668,8.6,18.5,18.5,0,0,1,0,10.313,132.841,132.841,0,0,1-30.449,44.438,298.056,298.056,0,0,1-47.627,36.585l-3.447,6.388q10.8-10.8,28.484-10.8a16.268,16.268,0,0,1,6.383,1.473,31.121,31.121,0,0,1,6.629,3.927,16.48,16.48,0,0,1,4.91,6.142,13.6,13.6,0,0,1,.738,8.591,87.7,87.7,0,0,1-11.047,36.338,110.311,110.311,0,0,1-24.307,29.958,58.657,58.657,0,0,0,24.547-11.541,124.04,124.04,0,0,0,18.176-17.435l14.727-17.675a3,3,0,0,1,2.707-1.961,4.944,4.944,0,0,1,3.191,1.226,7.789,7.789,0,0,1,2.211,2.949,3.581,3.581,0,0,1-.734,3.683,60.7,60.7,0,0,1-6.637,9.82q-3.686,4.417-7.121,8.838a61.568,61.568,0,0,1-12.029,12.523,116.689,116.689,0,0,1-15.961,10.563,80.5,80.5,0,0,1-18.412,8.344,35.505,35.505,0,0,0-28,6.876,58.323,58.323,0,0,1-13.014,4.417,28.009,28.009,0,0,1-12.768,0q-5.895-1.462-7.857-8.345-3.437,6.878-4.174,8.591a2.7,2.7,0,0,1-2.7,1.719,10.993,10.993,0,0,1-8.1-3.19,21.893,21.893,0,0,1-4.91-7.613,28.8,28.8,0,0,1-1.961-8.837,12.051,12.051,0,0,1,1.225-6.876c.086-.229.178-.455.264-.684q-1.468,1.7-2.965,3.382a115.481,115.481,0,0,1-17.678,16.207q-9.085,6.626-17.432,6.63a17.668,17.668,0,0,1-11.541-2.455,20.362,20.362,0,0,1-6.383-7.124,19.177,19.177,0,0,1-2.211-9.082,25.84,25.84,0,0,1,.982-7.863q.135-.533.271-1.065-4.143,4.112-8.371,7.695a204.306,204.306,0,0,1-42.475,27.748l-7.859,14.238q-6.372,10.808-12.766,21.855t-11.787,20.872q-5.391,9.828-9.332,17.434-3.923,7.606-5.395,11.051-5.411,8.347-5.65,10.311a2.012,2.012,0,0,1-2.205,1.966c-.252.021-.5.035-.744.035a7.439,7.439,0,0,1-6.135-3.224Zm70.713-199.373a73.887,73.887,0,0,0-10.561,8.6q-5.646,5.4-11.541,12.029a93.2,93.2,0,0,0-10.312,14,102.552,102.552,0,0,0-15.461,33.884,37.549,37.549,0,0,0-1.232,12.034q.483,4.671,3.436,4.17,8.347-.981,18.422-13.5a355.575,355.575,0,0,0,20.865-29.222q3.439-7.357,6.875-14.483a133.644,133.644,0,0,1,7.852-14,17.033,17.033,0,0,1,.992-5.4,45.317,45.317,0,0,0,1.465-5.4,8.9,8.9,0,0,0,0-4.17c-.328-1.144-1.467-1.719-3.434-1.719q-2.479-.01-7.379,3.181Zm-110.006,0a73.9,73.9,0,0,0-10.559,8.6q-5.648,5.4-11.539,12.03a93.954,93.954,0,0,0-10.314,14,102.691,102.691,0,0,0-15.467,33.884,37.55,37.55,0,0,0-1.227,12.034q.489,4.671,3.439,4.17,8.833-.981,18.166-13.259a146.482,146.482,0,0,0,17.186-24.557q7.365-12.276,10.809-19.4t5.4-11.54a71.538,71.538,0,0,0,5.156-13.75q1.222-5.4-3.686-5.4-2.473,0-7.373,3.191Zm240.627,64.577q-3.935,11.3-2.943,15.221h0a4.633,4.633,0,0,0,4.914,3.927q5.4,0,11.787-4.911-8.353-8.353-8.354-24.557Zm35.6-56.969a111.46,111.46,0,0,0-14.979,20.131,44.04,44.04,0,0,0-6.387,18.9,33.907,33.907,0,0,0,4.914,20.382l3.439,4.417a189.789,189.789,0,0,0,21.117-28.48,83.259,83.259,0,0,0,12.273-35.353q.981-4.418-1.719-6.141h0a9.146,9.146,0,0,0-4.664-1.728q-6.331.011-13.93,7.871Zm70.467-104.1q-10.8,2.462-24.795,20.135t-34.625,54.994a270.056,270.056,0,0,0,25.785-24.063,291.739,291.739,0,0,0,21.359-25.046,147.424,147.424,0,0,0,12.77-19.4q3.48-6.742.41-6.738a4,4,0,0,0-.9.123Zm-1497.02,245.78a152.542,152.542,0,0,1-37.075-7.119q-15.713-5.4-23.821-14.979t-4.664-23.821a34.976,34.976,0,0,1,11.289-18.659,83.891,83.891,0,0,1,21.361-13.5,148.535,148.535,0,0,1,27.259-9.089,272.289,272.289,0,0,1,28.974-5.153q14.238-1.709,26.761-1.966a149.078,149.078,0,0,1,20.383.736q2.943.986,7.119,2.212a19.66,19.66,0,0,1,7.118,3.68,58.006,58.006,0,0,0,3.929,4.913c.653.658.739.982.246.982a4.683,4.683,0,0,1-2.209-.982,11.1,11.1,0,0,0-3.437-1.472q-11.3-1.97-31.677-.495a235.194,235.194,0,0,0-40.76,6.628,131.642,131.642,0,0,0-35.847,14.489q-15.472,9.334-16.451,22.587a14.342,14.342,0,0,0,3.193,9.331,27.089,27.089,0,0,0,8.1,6.63,45.9,45.9,0,0,0,10.571,4.162,69.206,69.206,0,0,0,10.557,1.966,145.121,145.121,0,0,0,34.621,2.7q17.426-.74,34.62-3.2,13.75-2.455,32.165-6.872a221.813,221.813,0,0,0,35.6-11.783,132.453,132.453,0,0,0,30.694-18.173,48.38,48.38,0,0,0,17.433-26.025,25.134,25.134,0,0,0-2.208-18.417,59.418,59.418,0,0,0-13.017-16.7,82.039,82.039,0,0,0-18.66-12.766,69.593,69.593,0,0,0-18.664-6.629q-18.653,3.438-38.547,5.4t-38.059,3.438l6.383-13.259,31.923-2.945a.988.988,0,0,1-.74-.247,1.029,1.029,0,0,0-.732-.247,81.053,81.053,0,0,0-14-.983h-14l7.366-11.782a105.8,105.8,0,0,1,26.765,1.472q13.5,2.455,26.276,3.932a4.3,4.3,0,0,1,2.451,1.226,2.288,2.288,0,0,0,2.454.735q14.733-2.936,33.643-8.349a268.594,268.594,0,0,0,37.313-13.749,190.627,190.627,0,0,0,33.885-19.639,79.355,79.355,0,0,0,23.326-25.535q10.3-19.635,4.664-38.3t-22.591-32.9q-16.947-14.238-42.969-23.081a174.712,174.712,0,0,0-56.476-8.842,169.306,169.306,0,0,0-31.671,2.948,117.515,117.515,0,0,0-29.221,9.58,101.1,101.1,0,0,0-25.293,17.43,94.861,94.861,0,0,0-19.4,26.028q-3.927,13.737-7.611,15.459t-9.085-4.664q-14.244-14.245-30.45-16.2a57.286,57.286,0,0,0-29.952,3.928,60.175,60.175,0,0,0-23.08,17.187q-9.341,11.3-9.821,23.57-.981,15.725,12.766,25.046a103.377,103.377,0,0,0,34.132,14.238,270.9,270.9,0,0,0,43.71,6.639q23.316,1.721,41.984,1.719a453.521,453.521,0,0,1,23.079-47.879q11.785-20.87,23.082-27.258a10.832,10.832,0,0,1,7.854,0,23.324,23.324,0,0,1,7.859,4.421,13.307,13.307,0,0,1,4.42,6.629,6.223,6.223,0,0,1-2.457,6.629,244.394,244.394,0,0,0-51.562,65.065,331.258,331.258,0,0,0-28.484,69.98l-10.8,1.962,8.349-28.48q-3.936-.488-9.578-.736a26.777,26.777,0,0,1-8.1-1.23,34.386,34.386,0,0,1-12.03-4.664,9.806,9.806,0,0,1-5.157-10.557q1.462-3.43,6.872-5.895a72.431,72.431,0,0,1,12.28-4.174,129.445,129.445,0,0,1,14.237-2.7q7.361-.974,12.771-1.966a9.033,9.033,0,0,0,.735-2.455,4.375,4.375,0,0,1,1.229-2.457,485.431,485.431,0,0,1-55.738-3.437,220.976,220.976,0,0,1-54.021-12.767q-24.312-9.34-38.79-25.045t-9.578-40.271q2.943-17.18,17.19-31.442a75.382,75.382,0,0,1,35.847-19.638,68.352,68.352,0,0,1,15.961-1.477,100.618,100.618,0,0,1,20.626,2.213,90.748,90.748,0,0,1,20.376,6.875,34.029,34.029,0,0,1,14.737,12.52,69.715,69.715,0,0,0,5.646,8.1q1.228,1.222,2.455-2.208t3.434-11.051a85.8,85.8,0,0,1,8.106-17.923,88.716,88.716,0,0,1,40.022-36.582,133.211,133.211,0,0,1,55.737-13.017,213.417,213.417,0,0,1,56.718,6.388,166.9,166.9,0,0,1,46.9,19.4,111.593,111.593,0,0,1,32.65,30.217,75.052,75.052,0,0,1,14,38.793,58.557,58.557,0,0,1-1.72,20.378,165.558,165.558,0,0,1-7.613,22.348q-5.9,14.246-20.871,25.778a191.387,191.387,0,0,1-33.148,20.382,282.529,282.529,0,0,1-37.312,14.979q-19.156,6.144-32.906,9.574a61.087,61.087,0,0,1,26.519,6.63,51.371,51.371,0,0,1,18.906,16.451,48.731,48.731,0,0,1,8.353,23.568,56.987,56.987,0,0,1-5.156,27.992q-5.4,13.745-20.137,25.042a154.1,154.1,0,0,1-34.866,19.643,258.25,258.25,0,0,1-43.706,13.505,360.89,360.89,0,0,1-47.135,7.119q-11.965,1.039-23.977,1.044-10.433.016-20.933-.784Zm16.454-139.715a22.731,22.731,0,0,0,7.855.983h10.311l1.472-5.4Zm897.163,138.485a107.946,107.946,0,0,1-20.137-2.95,30.751,30.751,0,0,1-7.6-2.7,59.1,59.1,0,0,1-8.846-5.158,27.547,27.547,0,0,1-6.633-6.387,7.456,7.456,0,0,1-.975-7.366q5.889,3.434,20.377,5.156a250.765,250.765,0,0,0,32.656,1.472q18.17-.24,38.061-2.208a281.573,281.573,0,0,0,36.586-5.895,131.684,131.684,0,0,0,28.484-9.816q11.783-5.9,13.744-13.749,1.468-4.423-3.932-9.579a77.8,77.8,0,0,0-13.008-9.821,120.907,120.907,0,0,0-15.717-8.1q-8.1-3.436-12.525-4.91-44.2-14.732-74.883-26.519a388.019,388.019,0,0,1-49.105-22.1q-18.413-10.309-25.531-20.383a24.663,24.663,0,0,1-4.174-21.36q5.4-16.693,20.625-32.9a221.2,221.2,0,0,1,36.346-30.692,370.928,370.928,0,0,1,46.652-27.008q25.526-12.516,51.807-22.348a452.116,452.116,0,0,1,51.561-15.957,331.765,331.765,0,0,1,45.424-8.106,198.13,198.13,0,0,1,25.049.741,102.319,102.319,0,0,1,27.254,5.889,47.407,47.407,0,0,1,19.887,13.259q7.365,8.6,3.439,22.838-3.937,11.782-15.469,23.569a173.44,173.44,0,0,1-27.254,22.344,389.413,389.413,0,0,1-33.643,20.131q-17.927,9.58-34.619,17.434t-30.447,13.506q-13.755,5.651-20.625,8.6-11.288,5.391-15.467,3.927t-6.141-7.859q-4.91-22.1-23.322-39.037a259.212,259.212,0,0,0-40.029-30.2,199.738,199.738,0,0,0-38.059,27.992q-15.952,15.231-21.369,31.917-1.963,6.872,7.119,13.259t28.484,14.731q19.389,8.347,49.1,19.4t69.492,26.765a117.551,117.551,0,0,1,16.7,9.085,43.24,43.24,0,0,1,12.768,12.767,39.846,39.846,0,0,1,5.887,18.168q.981,10.549-3.928,24.8-3.442,8.84-14.238,15.226a115.539,115.539,0,0,1-25.535,10.8,199.849,199.849,0,0,1-31.676,6.63q-16.939,2.208-33.139,2.944-6.346.319-12.7.32-8.376.005-16.775-.555ZM16830.43,5775.9a296.308,296.308,0,0,0-48.131,6.387,395.9,395.9,0,0,0-51.561,14.731,388.362,388.362,0,0,0-48.619,21.114q9.325,7.373,18.658,14.736a227.826,227.826,0,0,1,17.434,15.226,154.92,154.92,0,0,1,14.242,15.709,57.653,57.653,0,0,1,9.08,16.209c1.65,4.261,3.035,6.3,4.18,6.145s4.01-.9,8.6-2.208a222.124,222.124,0,0,0,35.109-14.736q20.376-10.3,39.535-22.344a245.315,245.315,0,0,0,33.137-24.553q14-12.523,16.453-21.361,2.47-10.321,1.234-15.477t-10.562-6.629a140.582,140.582,0,0,0-29.955-3.23q-4.362.005-8.764.285Zm-742.252,232.279q-7.126-2.942-11.54-11.783-.981-2.455,1.961-2.455,14.732.981,22.591-5.651a38.688,38.688,0,0,0,11.54-16.94,87.919,87.919,0,0,0,4.669-22.591q.974-12.276,1.472-22.591-5.4,6.872-9.578,13.259-1.332,2.033-2.732,4.066c-.507.844-.936,1.555-1.117,1.832s-.728,1.117-1.481,2.217q-5.468,8.177-12.354,18.165-7.613,11.049-15.715,20.625a117.466,117.466,0,0,1-16.452,16.2q-8.344,6.631-16.2,6.629a17.636,17.636,0,0,1-11.293-2.455,17.142,17.142,0,0,1-6.388-7.366,22.076,22.076,0,0,1-1.96-9.084,17.072,17.072,0,0,1,1.472-7.613l2.454-7.366a127.284,127.284,0,0,1-21.851,23.812q-12.029,10.068-20.867,10.068a17.73,17.73,0,0,1-11.051-2.208,18.286,18.286,0,0,1-6.382-6.875,21.482,21.482,0,0,1-2.461-9.084h0a26.021,26.021,0,0,1,.74-8.349,106.45,106.45,0,0,1,7.853-21.361q5.887-12.516,12.031-24.8t10.8-22.344q4.657-10.061,4.174-14-.987-2.943,3.191-2.7a21.931,21.931,0,0,1,9.331,3.19,36.656,36.656,0,0,1,9.575,8.1,13.831,13.831,0,0,1,3.438,11.543,90.041,90.041,0,0,1-4.416,8.591q-3.442,6.138-8.106,14t-9.574,16.7q-4.91,8.847-8.6,15.961a73.775,73.775,0,0,0-5.155,12.03q-1.471,4.921.492,5.4,2.448.981,8.591-2.7a111.44,111.44,0,0,0,14-10.315,129.03,129.03,0,0,0,15.467-15.709,108.648,108.648,0,0,0,13.014-19.4l9.82-19.153V5924.2l.979-1.472a50.079,50.079,0,0,0,6.633-13.259,23.517,23.517,0,0,0,1.228-9.332c-.672-2.287.493-3.27,3.438-2.944a27.229,27.229,0,0,1,10.069,3.685,34.315,34.315,0,0,1,9.82,8.345,12.147,12.147,0,0,1,2.7,11.05A108.362,108.362,0,0,1,16078.1,5935q-7.373,11.782-15.472,25.045t-13.507,23.565q-5.4,10.315-1.472,10.314,3.435.987,9.085-4.174a147.924,147.924,0,0,0,12.522-13.259q6.879-8.112,14.242-17.434,4.392-5.553,8.254-10.761c.407-.584.844-1.217,1.208-1.719q.472-.675,1.009-1.3c.316-.437.628-.872.939-1.3.4-.567.875-1.243,1.395-1.953.151-.212.3-.429.455-.641.134-.173.272-.342.406-.5.325-.424.658-.84.992-1.234q4.216-6.112,8.431-12.757,6.379-10.068,12.766-19.4a49.638,49.638,0,0,1,8.1-24.062q7.118-10.8,16.45-13.259a10.264,10.264,0,0,1,6.631,1.966,54.67,54.67,0,0,1,8.1,5.894,52.53,52.53,0,0,1,6.63,6.872q2.689,3.442,1.719,5.4-11.3,6.385-28.978,24.063a25.231,25.231,0,0,0-.978,12.523q.979,7.6,2.7,16.693t2.949,18.417a52.2,52.2,0,0,1-.736,18.169,102,102,0,0,0,19.4-15.957q4.027-4.4,7.76-9.059c.272-.576.55-1.156.827-1.736q8.347-17.447,18.416-36.591t21.855-38.548a420.11,420.11,0,0,1,24.064-35.607,221.562,221.562,0,0,1,24.551-27.745q12.284-11.542,24.064-15.467a13.593,13.593,0,0,1,8.348.736,19.214,19.214,0,0,1,7.613,5.4,26.49,26.49,0,0,1,4.913,8.6,17.052,17.052,0,0,1,.241,10.314,141.088,141.088,0,0,1-30.688,44.438h0a287.784,287.784,0,0,1-47.386,36.6q-4.417,7.852-7.854,14.484t-7.855,14.489a139.566,139.566,0,0,1,24.795-26.029q13.51-10.8,26.766-9.817,14.725,1.474,15.714,16.2.968,6.878-3.191,15.961a207.841,207.841,0,0,1-9.82,18.66q-5.651,9.586-11.294,18.168a61.221,61.221,0,0,0-7.614,14.979q-2.952,5.411-2.7,8.1a3.132,3.132,0,0,0,2.454,3.2,7.861,7.861,0,0,0,5.16-.982,19.5,19.5,0,0,0,5.888-4.911q3.442-3.43,9.332-8.842t12.033-11.783q6.138-6.372,12.029-13.259,2.943-3.384,5.646-6.95a11.332,11.332,0,0,1,.728-1.417q4.43-7.371,9.579-14.978t10.557-15.957a10.317,10.317,0,0,0,1.968-6.629q-.009-4.164,4.909-18.417,4.916-15.225,13.259-22.591t12.276-8.838a10.109,10.109,0,0,1,8.35.736,34.539,34.539,0,0,1,8.1,5.646,40.949,40.949,0,0,1,6.14,7.123,11.894,11.894,0,0,1,2.456,5.647,48.729,48.729,0,0,0-22.343,14.741,93.819,93.819,0,0,0-11.54,16.7q-1.957,3.928,2.943,10.8t11.783,15.71q1.474,4.91-3.435,14.736t-10.067,19.4a123.119,123.119,0,0,0-7.615,16.451q-2.452,6.885,3.44,5.895,2.442.007,7.855-4.664a138.375,138.375,0,0,0,12.029-12.035q6.631-7.365,14-16.7,1.2-1.526,2.369-3.031a107.839,107.839,0,0,1,8.441-16.61,150.353,150.353,0,0,1,25.294-28.243h0a44.736,44.736,0,0,1,32.65-11.046,13.987,13.987,0,0,1,11.293,7.366,23.179,23.179,0,0,0,0-6.875q-.5-2.449,4.422-1.962a27.555,27.555,0,0,1,10.316,3.434,30.809,30.809,0,0,1,9.324,7.859,10.857,10.857,0,0,1,1.971,10.8,64.635,64.635,0,0,1-4.91,8.6q-3.937,6.144-9.09,14.488t-10.557,17.434q-5.405,9.087-9.08,16.693a82.823,82.823,0,0,0-5.164,12.77c-.977,3.442-.492,5.327,1.475,5.646q2.947.994,9.578-4.421a152.617,152.617,0,0,0,14.484-13.745q7.866-8.359,15.961-18.173t14.484-18.166q3.932-4.423,6.877-2.212t.982,6.629q-5.9,8.84-13.99,19.889a237.039,237.039,0,0,1-16.949,20.625,117.4,117.4,0,0,1-18.17,16.2q-9.34,6.631-17.182,6.629-11.3.987-15.719-6.136a36.4,36.4,0,0,1-5.4-14,80.985,80.985,0,0,1-13.012,13.749,22.436,22.436,0,0,1-14.488,5.4,16.578,16.578,0,0,1-12.767-4.417,23.241,23.241,0,0,1-6.877-14,57.105,57.105,0,0,1-.221-11.276q-3.259,4.085-6.4,7.833a135.817,135.817,0,0,1-14.978,15.472q-7.368,6.385-13.261,7.361a20.709,20.709,0,0,1-12.276-2.455,20.085,20.085,0,0,1-7.612-8.1,22.459,22.459,0,0,1-2.455-11.54v.009a33.323,33.323,0,0,1,3.188-12.774q1.969-3.929,5.4-11.292l6.872-14.736a102.592,102.592,0,0,0,5.4-13.992q1.963-6.624.984-9.088c-.983-1.3-1.888-2.529-2.7-3.681a26.094,26.094,0,0,1-2.207-3.686l-19.834,28.337q-5.358,8.717-13.307,19.56a212.984,212.984,0,0,1-17.187,20.625,135.274,135.274,0,0,1-18.17,16.2q-9.088,6.632-16.944,6.63-11.783.487-18.17-6.383t-4.91-18.17q.494-5.891,6.629-17.434t12.276-23.323q6.151-11.789,9.579-20.382t-1.473-8.6q-3.93.006-10.314,5.651t-14,13.744q-7.613,8.106-15.226,17.434t-13.506,16.7l-14.238,28.974q-2.955,8.84-4.668,10.8a4.633,4.633,0,0,1-3.191,1.961,10.974,10.974,0,0,1-8.1-3.191,21.807,21.807,0,0,1-4.91-7.612,28.824,28.824,0,0,1-1.965-8.837,16.926,16.926,0,0,1,.293-5.231A96.91,96.91,0,0,1,16141,5995.9q-19.645,13.75-37.319,14.247a31.087,31.087,0,0,1-4.009.264,30.571,30.571,0,0,1-11.473-2.231Zm345.947-96a74.2,74.2,0,0,0-10.557,8.6q-5.651,5.4-11.545,12.029a93.6,93.6,0,0,0-10.309,14,102.774,102.774,0,0,0-15.465,33.883,37.553,37.553,0,0,0-1.232,12.035q.5,4.671,3.436,4.17,8.842-.981,18.17-13.259a146.429,146.429,0,0,0,17.188-24.557q7.365-12.277,10.8-19.4t5.408-11.54a71.391,71.391,0,0,0,5.152-13.749q1.222-5.4-3.686-5.4-2.388,0-7.287,3.192Zm-139.944-96.491q-10.315,2.455-24.8,20.135t-34.131,54.99a316.741,316.741,0,0,0,47.632-48.863,118.206,118.206,0,0,0,12.523-19.148q3.456-7.144-.666-7.145a5.088,5.088,0,0,0-.538.036Zm-523,107.048h.009Zm50.088-36.829q19.642-1.474,34.625-2.456t22.833-.983q7.866,0,7.366.983t-11.294,3.438q-5.4.981-14.488,2.7t-21.851,3.681a94.623,94.623,0,0,0-10.314.736q-6.385.747-11.783,1.23Zm1283.659,8.349a94.162,94.162,0,0,0-3.191-18.17,48.3,48.3,0,0,0-4.67-11.3,8.68,8.68,0,0,1-.975-7.119q.979-4.164,2.947-5.158,5.391-3.923,8.586-1.472a18.245,18.245,0,0,1,5.158,6.383,74.327,74.327,0,0,1,3.438,11.788,40.476,40.476,0,0,1,10.314-6.876,19.941,19.941,0,0,1,8.592-2.945,10.294,10.294,0,0,1,8.1,2.456,8.931,8.931,0,0,1,3.2,6.63,13.558,13.558,0,0,1-2.215,8.1,22.921,22.921,0,0,1-8.836,7.366,95.564,95.564,0,0,1-13.258,5.894,114.065,114.065,0,0,1-12.025,3.682h-.01a27.7,27.7,0,0,1-4.73.875c-.252.014-.352-.036-.352-.126ZM16621,5786.46a70.145,70.145,0,0,1-12.029-30.446,59.014,59.014,0,0,1,3.68-29.71,61.783,61.783,0,0,1,57.217-38.3,113.851,113.851,0,0,1,41.008,7.611,137.646,137.646,0,0,1,36.346,20.626q16.45,13.023,24.307,25.293a13.29,13.29,0,0,1,2.7,5.647,2.291,2.291,0,0,1-.979,2.7,4.86,4.86,0,0,1-3.686-.734,15.766,15.766,0,0,1-4.91-4.174,108.987,108.987,0,0,0-23.82-17.676,107.509,107.509,0,0,0-29.713-11.3,76.576,76.576,0,0,0-31.662-.243,59.985,59.985,0,0,0-29.227,15.468,41.637,41.637,0,0,0-8.592,12.522,46.718,46.718,0,0,0-3.93,14.731,46.045,46.045,0,0,0,.977,14.979,29.189,29.189,0,0,0,7.123,13.259q3.923,3.935,8.1,8.1a108.4,108.4,0,0,0,9.086,8.1l-14.256,10.8A104.6,104.6,0,0,1,16621,5786.46Zm-294.781-180.45a305.731,305.731,0,0,0,27.477-20.253c8.586-7.114,17.614-15.316,26.838-24.375,8.115-7.976,16.637-16.888,25.336-26.488,17.658-19.5,33.1-38.591,43.178-51.262a170.055,170.055,0,0,0,12.535-18.122,206.431,206.431,0,0,0,10.215-19.273,271.224,271.224,0,0,0,14.506-39.25c3.191-11.047,5.99-23.016,8.324-35.569,1.975-10.67,3.252-19.742,4.182-26.371l.01-.061c.883-6.262,1.467-10.4,2.031-11.454.713-1.347,4.113-3.152,9.82-5.222a203.935,203.935,0,0,1,21.807-6.249c9.232-2.166,19.2-4.041,28.832-5.422a271.443,271.443,0,0,1,30.918-2.763c12.941-.352,25.354-.8,34.936-2.381,9.98-1.659,16.52-4.478,20.578-8.873a18.829,18.829,0,0,0,4.277-7.751,32.548,32.548,0,0,0,1-10.847,24.763,24.763,0,0,0-1.158-6.388,19.256,19.256,0,0,0-2.594-5.131,21.884,21.884,0,0,0-8.906-6.983,46.353,46.353,0,0,0-12.814-3.46,111.394,111.394,0,0,0-15.475-.931c-8.516,0-17.643.624-26.473,1.221h-.043c-.861.061-1.8.125-2.793.19-7.408.5-16.441,1.594-26.865,3.244-8.283,1.312-17.537,3-27.51,5-16.611,3.352-29.506,6.474-30.043,6.6l-.035.008v-.013c-.168-.533-1.109-3.417-2.924-7.794a175.662,175.662,0,0,0-26.773-44.433,144.172,144.172,0,0,0-26.086-24.579c-10.482-7.6-20.537-14.195-30.744-20.183-10.418-6.119-21.646-11.986-34.316-17.936-12.294-5.772-26.177-11.765-43.68-18.858-14.974-6.071-33.118-13.151-58.831-22.959-14.523-5.538-29.511-11.051-44-16.377l-.112-.043c-42.319-15.558-86.072-31.649-124.949-50.421-20.988-10.137-38.626-20.1-53.929-30.455a259.055,259.055,0,0,1-22.835-17.282,189.5,189.5,0,0,1-19.332-18.918,127.286,127.286,0,0,1-21.134-33.113,123.654,123.654,0,0,1-9.681-38.045,143.012,143.012,0,0,1,2.562-41.93,189.354,189.354,0,0,1,15.634-44.774c22.833-46.653,57.549-90.619,103.181-130.673a611.518,611.518,0,0,1,70.263-52.9,740.431,740.431,0,0,1,78.317-44.125,828.784,828.784,0,0,1,83.076-34.962,844.442,844.442,0,0,1,84.536-25.44,764.9,764.9,0,0,1,82.7-15.537,607.192,607.192,0,0,1,77.578-5.262,416.021,416.021,0,0,1,69.385,5.426c21.631,3.693,41,9.253,57.566,16.537,57.922,25.462,90.447,58.138,96.678,97.123,9.908,61.961-49.252,122.667-75.143,145.89-32.381,29.039-80.707,59.961-132.584,84.834-62.412,29.917-127.408,50.153-187.959,58.506-44.535,6.145-94.272,9.263-147.834,9.263-36.837,0-68.539-1.524-88.645-2.8-20.725-1.316-33.658-2.65-35.066-2.8h-.034l-.052-.009c-3.049-.619-30.178-6.084-43.55-7.132-.883-.069-1.818-.108-2.775-.108a36.184,36.184,0,0,0-19.815,5.862,31.422,31.422,0,0,0-7.88,7.458,31.81,31.81,0,0,0-5.088,10.591,15.878,15.878,0,0,0-.473,6.564,15.3,15.3,0,0,0,2.239,5.915c6.014,9.561,23.369,17,51.59,22.136,8.808,1.6,29.563,3.326,55.522,4.625,21.374,1.065,56.063,2.338,99.959,2.338,22.188,0,44.1-.333,65.14-.992,23.41-.732,43.4-4.6,78.959-10.2s30.051-4.845,63.285-12.188c16.656-3.681,32.938-7.794,48.4-12.229,14.617-4.2,28.855-8.782,42.328-13.632,12.7-4.573,26.932-9.8,38.6-14.955,10.109-4.46,31.371-15.456,40.7-20.349,35.625,8.1,104.854,30.718,136.521,48.936a409.275,409.275,0,0,1,114.148,101.449,235.027,235.027,0,0,1,13.5,20.005c4.473,7.388,8.8,15.338,12.857,23.626a360.772,360.772,0,0,1,21.719,56.038,339.923,339.923,0,0,1-13.475,236.118,346.575,346.575,0,0,1-33.377,59.45,355.389,355.389,0,0,1-44.2,51.8,362.368,362.368,0,0,1-53.572,42.735,366.6,366.6,0,0,1-129.449,52.665c-11.812,2.338-23.9,4.123-35.941,5.3-12.211,1.2-24.664,1.806-37.014,1.806h-.256c-.043.009-.082.013-.082.013Zm-167.533,0H15939.8c-.043,0-4.165-.022-6.131-1.836-1.975-1.836-1.837-5.5-1.832-5.534V5091.32c6.322,5.088,13,10.215,19.846,15.238a700.329,700.329,0,0,0,64.524,41.852,320.352,320.352,0,0,0,32.862,15.892c12.35,5.3,26.9,11.064,44.484,17.633,32.724,12.225,70.912,25.319,107.846,37.98h0l1.589.546c26.229,8.994,53.345,18.3,77.937,27.116,28.25,10.128,54.587,21.4,71.7,29.078,19.988,8.964,33.217,15.593,35.525,16.871a23.318,23.318,0,0,1,7.211,5.885,14.981,14.981,0,0,1,2.955,6.31,15.313,15.313,0,0,1-.336,7.092,14.817,14.817,0,0,1-2.508,5.058c-1.7,2.13-12.6,8.045-25.215,14.9l-.013.009-.113.061h0l-.026.013-.039.022c-13.263,7.2-28.3,15.368-38.513,22.179-2.286,1.524-14.58,9.843-32.521,23.938-8.66,6.812-17.178,13.822-25.323,20.841-9.782,8.427-19.17,16.983-27.9,25.427-21.457,20.759-39.323,41.176-53.11,60.688a244.488,244.488,0,0,0-20.007,33.278,151.068,151.068,0,0,0-12.167,33.927c-4.387,20.166-5.006,37.945-1.836,52.851Zm58.6-14.515c-4.045-4.469-5.148-15.212-3.382-32.849,2.139-10.22,7.525-22.916,15.16-35.742a203.351,203.351,0,0,1,32.209-40.739c13.453-13.143,26.076-24.967,37.508-35.14,9.834-8.743,19.075-16.524,27.476-23.119a324.59,324.59,0,0,1,33.3-23.174l.269-.166c.438-.273.866-.542,1.29-.8.555-.342.987-.61,1.43-.888,2.992-1.871,6.5-4.508,9.9-7.054h.009c7.521-5.638,15.3-11.466,19.861-11.466a3.3,3.3,0,0,1,2.828,1.316c.949,1.286,1.27,3.589.953,6.833a75.6,75.6,0,0,1-3.27,14.182c-6.205,19.923-10.722,32.338-15.6,42.856-4.78,10.314-9.895,18.711-16.97,30.329l-.009.013-.174.282c-.675,1.108-1.312,2.156-1.975,3.248a422.533,422.533,0,0,1-28.2,39.847c-5.781,7.288-11.315,13.792-16.447,19.331a123.206,123.206,0,0,1-14.723,13.9c-18.243,13.916-31.035,22.753-41.462,28.661a128.254,128.254,0,0,1-26.307,11.284,26.065,26.065,0,0,1-7.647,1.594,7.7,7.7,0,0,1-6.016-2.536Zm-285.454-1214.15h584.431c9.514-.892,19.18-1.347,28.732-1.347,10,0,20.105.494,30.025,1.472,1.672.121,3.646.333,5.885.637a299.107,299.107,0,0,1,78.471,20.3,295.219,295.219,0,0,1,68.123,39.289,284.6,284.6,0,0,1,92.156,122.866c-2.574-3.326-5.242-6.573-7.926-9.647a200.519,200.519,0,0,0-17.908-18.108,196.44,196.44,0,0,0-18.32-14.463,225.3,225.3,0,0,0-36.4-20.474c-11.8-5.343-23.3-9.575-33.451-13.308l-.1-.035h-.014l-.021-.009-.125-.047c-5.875-2.161-11.432-4.2-16.584-6.283a205.869,205.869,0,0,0-22.514-7.334c-10.35-2.8-21.785-5.3-33.992-7.436-14.2-2.473-29.307-4.408-44.918-5.755-17.771-1.533-36.365-2.312-55.262-2.312a788.867,788.867,0,0,0-120.762,9.7c-23.232,3.62-47.054,8.306-70.8,13.935-25.5,6.049-51.482,13.32-77.229,21.6a789.2,789.2,0,0,0-83.522,32.3,842.665,842.665,0,0,0-78.1,40.454q-36.791,21.562-71.29,46.719a802.451,802.451,0,0,0-63.108,51.08c-12.37,11.117-24.3,22.6-35.48,34.141Z" transform="translate(-15630.957 -4375.998)" fill="#c1922f"/>
</svg>
