<svg xmlns="http://www.w3.org/2000/svg" width="103.391" height="26.876" viewBox="0 0 103.391 26.876">
  <path id="Union_101" data-name="Union 101" d="M1.241,25.25c-.177-.147-.547-.392-.533-.645a.413.413,0,0,1,.108-.238s1.208-1.276,1.3-1.387c.086-.1.206-.231.34-.231.19,0,.389.178.734.381a5.389,5.389,0,0,0,1.887.761,2.9,2.9,0,0,0,1.292-.126c1.579-.511,2.016-2.5,2.107-4.068v-.026a.253.253,0,0,0,0-.027c0-.01,0-.019,0-.028s-.005-.017-.007-.026a.208.208,0,0,0-.009-.025.189.189,0,0,0-.012-.023.149.149,0,0,0-.014-.022.123.123,0,0,0-.016-.022l-.017-.019-.019-.017a.123.123,0,0,0-.022-.016.149.149,0,0,0-.023-.014l-.023-.012-.025-.009c-.009,0-.017,0-.026-.007l-.028,0H8.171l-.027,0c-.009,0-.018,0-.027.007l-.024.009a.442.442,0,0,0-.045.025,2.631,2.631,0,0,0-.275.21l-.026.022-.057.042a.691.691,0,0,1-.058.042c-.02.015-.04.029-.061.043l-.062.04c-.022.014-.044.028-.067.04a.624.624,0,0,1-.068.039l-.068.038L7.233,20l-.073.034-.076.033-.076.031-.076.029-.076.026-.075.024-.075.021a.747.747,0,0,1-.074.02l-.074.018-.071.015-.073.012a5.471,5.471,0,0,1-.9.078H5.291a5.43,5.43,0,0,1-3.738-1.471A4.883,4.883,0,0,1,0,15.314v-5.6A4.883,4.883,0,0,1,1.553,6.163,5.426,5.426,0,0,1,5.291,4.693h.294a6.888,6.888,0,0,1,.791.058l.071.012.074.014.075.016.076.017.076.021.076.023.077.024L6.98,4.9l.076.03.076.03.074.032.071.034c.023.011.046.023.069.035s.045.023.067.036l.066.036.02.013.027.018.028.018.029.018.026.019.026.019.026.018.027.018.024.02.025.019.024.019.023.019.023.02.023.019.023.02.022.02L7.9,5.45l.021.02a.347.347,0,0,0,.042.035A.316.316,0,0,0,8,5.525a.232.232,0,0,0,.052.016.289.289,0,0,0,.057.005.27.27,0,0,0,.055-.005.32.32,0,0,0,.052-.016A.343.343,0,0,0,8.26,5.5.372.372,0,0,0,8.3,5.466a.467.467,0,0,0,.033-.041.27.27,0,0,0,.025-.048.243.243,0,0,0,.016-.051.287.287,0,0,0,.007-.056c0-.184-.006-.435.2-.5a1.446,1.446,0,0,1,.4-.019h1.89c.193,0,.482-.048.563.188a2.937,2.937,0,0,1,.02.729V17.61a28.539,28.539,0,0,1-.076,3.188c-.334,2.944-1.805,5.445-4.918,5.993a5.615,5.615,0,0,1-.972.084A6.751,6.751,0,0,1,1.241,25.25ZM3.761,8.217a2.232,2.232,0,0,0-.8,1.7v5.2a2.232,2.232,0,0,0,.8,1.7,2.468,2.468,0,0,0,1.78.751h.285a2.586,2.586,0,0,0,1.74-.642,1.927,1.927,0,0,0,.813-1.568V9.735A1.991,1.991,0,0,0,7.566,8.1a2.565,2.565,0,0,0-1.74-.637H5.541A2.461,2.461,0,0,0,3.761,8.217ZM87.927,20.96a.193.193,0,0,1-.067-.14.187.187,0,0,1,.06-.13,1.754,1.754,0,0,0,.271-.344,2.681,2.681,0,0,0,.231-.475,3.518,3.518,0,0,0,.16-.581,3.65,3.65,0,0,0,.058-.662,3.561,3.561,0,0,0-.056-.649,3.618,3.618,0,0,0-.155-.577,2.9,2.9,0,0,0-.225-.478,1.746,1.746,0,0,0-.269-.347.187.187,0,0,1-.06-.131.193.193,0,0,1,.067-.14.236.236,0,0,1,.14-.06.192.192,0,0,1,.14.066,1.974,1.974,0,0,1,.323.415,3.041,3.041,0,0,1,.258.547,4.37,4.37,0,0,1,.172.646,4.16,4.16,0,0,1,.061.707,3.9,3.9,0,0,1-.066.725A3.979,3.979,0,0,1,88.8,20a3.014,3.014,0,0,1-.263.546,2.133,2.133,0,0,1-.327.411.186.186,0,0,1-.135.065A.207.207,0,0,1,87.927,20.96Zm-8.438,0a2.166,2.166,0,0,1-.326-.411A3.14,3.14,0,0,1,78.9,20a3.98,3.98,0,0,1-.175-.65,3.906,3.906,0,0,1-.064-.725,3.729,3.729,0,0,1,.064-.71,3.969,3.969,0,0,1,.175-.641,3.078,3.078,0,0,1,.257-.545,2.381,2.381,0,0,1,.319-.419.189.189,0,0,1,.139-.066.238.238,0,0,1,.141.06.2.2,0,0,1,.066.14.184.184,0,0,1-.06.131,1.881,1.881,0,0,0-.263.347,2.832,2.832,0,0,0-.225.478,3.815,3.815,0,0,0-.158.577,3.481,3.481,0,0,0-.059.649,3.57,3.57,0,0,0,.059.662,3.607,3.607,0,0,0,.16.581,2.681,2.681,0,0,0,.231.475,1.689,1.689,0,0,0,.271.344.19.19,0,0,1,.064.136.164.164,0,0,1-.07.135.2.2,0,0,1-.147.065A.188.188,0,0,1,79.489,20.96Zm23.555-.582a.177.177,0,0,1-.065-.156V18.665h-1.285v1.557a.178.178,0,0,1-.067.153.227.227,0,0,1-.14.049.23.23,0,0,1-.141-.049.177.177,0,0,1-.066-.153v-3.4a.185.185,0,0,1,.066-.155.227.227,0,0,1,.141-.051.224.224,0,0,1,.14.051.186.186,0,0,1,.067.155v1.433h1.285V16.821a.185.185,0,0,1,.065-.155.229.229,0,0,1,.141-.051.233.233,0,0,1,.141.051.187.187,0,0,1,.065.155v3.4a.179.179,0,0,1-.065.156.251.251,0,0,1-.141.046A.247.247,0,0,1,103.044,20.378Zm-3.708.046a.759.759,0,0,1-.291-.049.551.551,0,0,1-.176-.111.165.165,0,0,1-.07.122.24.24,0,0,1-.13.039.245.245,0,0,1-.141-.046.164.164,0,0,1-.066-.144V16.821a.185.185,0,0,1,.066-.155.227.227,0,0,1,.141-.051.233.233,0,0,1,.141.051.19.19,0,0,1,.065.155v1.106a.448.448,0,0,1,.2-.132.812.812,0,0,1,.271-.046h.039a.861.861,0,0,1,.81.535.829.829,0,0,1,.069.339v.932a.843.843,0,0,1-.071.342.908.908,0,0,1-.19.275.9.9,0,0,1-.279.184.85.85,0,0,1-.339.068Zm-.323-2.148a.367.367,0,0,0-.138.3v1.006a.381.381,0,0,0,.138.313.489.489,0,0,0,.323.114h.049a.464.464,0,0,0,.467-.46v-.931a.464.464,0,0,0-.467-.46h-.049A.489.489,0,0,0,99.013,18.275Zm-1.9,2.1a.179.179,0,0,1-.065-.153V18.617a.43.43,0,0,0-.129-.341.474.474,0,0,0-.332-.114h-.049a.456.456,0,0,0-.331.132.446.446,0,0,0-.137.334v1.584a.189.189,0,0,1-.065.16.216.216,0,0,1-.14.052.218.218,0,0,1-.141-.052.191.191,0,0,1-.065-.16V18.627a.446.446,0,0,0-.136-.336.46.46,0,0,0-.331-.131h-.049a.5.5,0,0,0-.326.114.368.368,0,0,0-.14.3v1.643a.177.177,0,0,1-.066.153.23.23,0,0,1-.283,0,.182.182,0,0,1-.065-.153V17.955a.191.191,0,0,1,.065-.152.231.231,0,0,1,.148-.054.214.214,0,0,1,.124.041.186.186,0,0,1,.076.121.519.519,0,0,1,.2-.119.825.825,0,0,1,.265-.043h.049a.856.856,0,0,1,.377.084.958.958,0,0,1,.3.225.954.954,0,0,1,.3-.225.857.857,0,0,1,.378-.084h.049a1.071,1.071,0,0,1,.331.051.839.839,0,0,1,.279.158.739.739,0,0,1,.192.271.988.988,0,0,1,.072.388v1.606a.178.178,0,0,1-.067.153.227.227,0,0,1-.14.049A.23.23,0,0,1,97.112,20.375Zm-4.927.049a1.041,1.041,0,0,1-.4-.078,1,1,0,0,1-.328-.218,1.017,1.017,0,0,1-.3-.729V17.646a1.017,1.017,0,0,1,.3-.73,1.055,1.055,0,0,1,.328-.221,1.027,1.027,0,0,1,.4-.081h.056a1.026,1.026,0,0,1,.371.067,1.1,1.1,0,0,1,.315.185,1,1,0,0,1,.344.631v.032a.181.181,0,0,1-.065.15.225.225,0,0,1-.14.051.231.231,0,0,1-.131-.041.193.193,0,0,1-.075-.133.7.7,0,0,0-.2-.38.576.576,0,0,0-.421-.152h-.056a.584.584,0,0,0-.239.05.6.6,0,0,0-.2.132.62.62,0,0,0-.132.2.561.561,0,0,0-.049.235v1.755a.584.584,0,0,0,.049.241.63.63,0,0,0,.328.328.584.584,0,0,0,.239.049h.056a.6.6,0,0,0,.241-.049.633.633,0,0,0,.328-.327.6.6,0,0,0,.049-.241v-.631h-.57a.186.186,0,0,1-.155-.066.224.224,0,0,1-.051-.141.222.222,0,0,1,.051-.14.183.183,0,0,1,.155-.066h.776a.2.2,0,0,1,.144.063.194.194,0,0,1,.061.143V19.4a1,1,0,0,1-.081.4,1.059,1.059,0,0,1-.219.325,1.011,1.011,0,0,1-.329.218,1.035,1.035,0,0,1-.4.078Zm-8.437-.049a.179.179,0,0,1-.065-.153v-3.4a.187.187,0,0,1,.065-.155.22.22,0,0,1,.283,0,.188.188,0,0,1,.066.155v3.4a.18.18,0,0,1-.066.153.23.23,0,0,1-.283,0Zm-2.239.049a1.039,1.039,0,0,1-.4-.078.985.985,0,0,1-.328-.218,1.033,1.033,0,0,1-.22-.325,1,1,0,0,1-.082-.4V17.646a1,1,0,0,1,.082-.405,1.032,1.032,0,0,1,.949-.626h.053a1.029,1.029,0,0,1,.373.067,1.1,1.1,0,0,1,.315.185.977.977,0,0,1,.228.278,1,1,0,0,1,.116.353v.032a.178.178,0,0,1-.065.15.224.224,0,0,1-.271.011.191.191,0,0,1-.076-.133.694.694,0,0,0-.2-.38.572.572,0,0,0-.421-.152h-.053a.593.593,0,0,0-.241.05.636.636,0,0,0-.329.328.575.575,0,0,0-.049.235v1.755a.6.6,0,0,0,.049.241.621.621,0,0,0,.134.194.638.638,0,0,0,.2.133.592.592,0,0,0,.241.049h.053a.6.6,0,0,0,.243-.049A.634.634,0,0,0,82,19.83a.6.6,0,0,0,.133-.194.6.6,0,0,0,.049-.241v-.631h-.569a.183.183,0,0,1-.155-.066.219.219,0,0,1-.051-.141.217.217,0,0,1,.051-.14.181.181,0,0,1,.155-.066h.775a.214.214,0,0,1,.206.206V19.4a1.01,1.01,0,0,1-.081.4,1.033,1.033,0,0,1-.22.325.99.99,0,0,1-.327.218,1.052,1.052,0,0,1-.4.078Zm-5.5-.055a.709.709,0,0,1-.228-.151.7.7,0,0,1-.152-.229.713.713,0,0,1-.054-.276V18.177h-.19a.185.185,0,0,1-.155-.065.22.22,0,0,1,0-.283.187.187,0,0,1,.155-.065h.19v-.944a.187.187,0,0,1,.065-.155.22.22,0,0,1,.283,0,.19.19,0,0,1,.065.155v.944h.293a.188.188,0,0,1,.156.065.22.22,0,0,1,0,.283.185.185,0,0,1-.156.065h-.293V19.7a.265.265,0,0,0,.1.219.392.392,0,0,0,.219.09.2.2,0,0,1,.144.071.215.215,0,0,1,.046.138.223.223,0,0,1-.049.139.186.186,0,0,1-.158.064A.714.714,0,0,1,76.006,20.369Zm-2.057.006a.182.182,0,0,1-.065-.153V17.955a.19.19,0,0,1,.065-.155.228.228,0,0,1,.141-.051.222.222,0,0,1,.141.051.185.185,0,0,1,.065.155v2.267a.177.177,0,0,1-.065.153.23.23,0,0,1-.141.049A.236.236,0,0,1,73.949,20.375Zm-1.916.049a.849.849,0,0,1-.338-.068.9.9,0,0,1-.279-.184.841.841,0,0,1-.187-.275.856.856,0,0,1-.067-.342v-.932a.87.87,0,0,1,.872-.874h.055a.914.914,0,0,1,.339.065.854.854,0,0,1,.28.185.873.873,0,0,1,.186.278.9.9,0,0,1,.068.35v.445a.2.2,0,0,1-.059.143.2.2,0,0,1-.146.063H71.573v.274a.462.462,0,0,0,.461.458h.055a.418.418,0,0,0,.263-.082.55.55,0,0,0,.16-.194.2.2,0,0,1,.076-.1.2.2,0,0,1,.1-.03.209.209,0,0,1,.146.06.2.2,0,0,1,.065.152.168.168,0,0,1-.022.091.843.843,0,0,1-.791.517ZM71.711,18.3a.44.44,0,0,0-.139.331V18.9h.977v-.268a.466.466,0,0,0-.456-.47H72.04A.456.456,0,0,0,71.711,18.3Zm-2.369,2.128a.751.751,0,0,1-.29-.049.522.522,0,0,1-.176-.111.163.163,0,0,1-.071.122.241.241,0,0,1-.131.039.251.251,0,0,1-.141-.046.168.168,0,0,1-.065-.144V16.821a.19.19,0,0,1,.065-.155.233.233,0,0,1,.141-.051.227.227,0,0,1,.141.051.185.185,0,0,1,.065.155v1.106a.459.459,0,0,1,.2-.132.8.8,0,0,1,.271-.046h.038a.882.882,0,0,1,.345.067.867.867,0,0,1,.466.467.859.859,0,0,1,.067.339v.932a.842.842,0,0,1-.069.342.924.924,0,0,1-.19.275.893.893,0,0,1-.281.184.846.846,0,0,1-.338.068Zm-.322-2.148a.368.368,0,0,0-.14.3v1.006a.382.382,0,0,0,.14.313.484.484,0,0,0,.322.114h.049a.452.452,0,0,0,.331-.135.444.444,0,0,0,.135-.325v-.931a.444.444,0,0,0-.135-.325.452.452,0,0,0-.331-.135h-.049A.484.484,0,0,0,69.02,18.275Zm-2.715,2.1a.189.189,0,0,1-.065-.16V17.955a.184.184,0,0,1,.068-.152.221.221,0,0,1,.247-.029.157.157,0,0,1,.075.084.253.253,0,0,1,.093-.055.65.65,0,0,1,.12-.038.764.764,0,0,1,.179-.016.828.828,0,0,1,.311.062.541.541,0,0,1,.252.2.262.262,0,0,1,.049.141.18.18,0,0,1-.059.139.2.2,0,0,1-.141.055.231.231,0,0,1-.168-.076.716.716,0,0,0-.089-.074.278.278,0,0,0-.16-.041.5.5,0,0,0-.2.032.3.3,0,0,0-.109.084.287.287,0,0,0-.049.117.91.91,0,0,0-.01.13v1.687a.194.194,0,0,1-.065.16.224.224,0,0,1-.141.052A.22.22,0,0,1,66.3,20.372Zm-1.124.046a.579.579,0,0,1-.227-.075.462.462,0,0,1-.141-.131.868.868,0,0,1-.587.212h-.049a1.081,1.081,0,0,1-.32-.049.86.86,0,0,1-.28-.148.73.73,0,0,1-.2-.244.71.71,0,0,1-.076-.336v-.066a.622.622,0,0,1,.093-.35.73.73,0,0,1,.232-.222,1.2,1.2,0,0,1,.311-.127c.112-.029.219-.053.319-.07s.192-.036.269-.053a.25.25,0,0,0,.149-.067.072.072,0,0,0,.013-.042c0-.019,0-.035,0-.05a.4.4,0,0,0-.13-.341.5.5,0,0,0-.309-.1h-.039a.46.46,0,0,0-.266.067.6.6,0,0,0-.174.2.2.2,0,0,1-.081.084.236.236,0,0,1-.1.024.22.22,0,0,1-.141-.052.166.166,0,0,1-.066-.138.194.194,0,0,1,.023-.1.819.819,0,0,1,.16-.245.8.8,0,0,1,.2-.154.861.861,0,0,1,.222-.081,1.074,1.074,0,0,1,.223-.025h.039a.888.888,0,0,1,.336.065.846.846,0,0,1,.272.179.834.834,0,0,1,.178.266.8.8,0,0,1,.066.326v1.257a.161.161,0,0,0,.141.179.194.194,0,0,1,.132.074.209.209,0,0,1,.041.122.218.218,0,0,1-.053.144.183.183,0,0,1-.149.062A.068.068,0,0,1,65.181,20.417Zm-.811-1.234a2.242,2.242,0,0,0-.318.068.7.7,0,0,0-.241.121.257.257,0,0,0-.095.216v.044a.335.335,0,0,0,.127.275.513.513,0,0,0,.334.1h.049a.454.454,0,0,0,.328-.134.432.432,0,0,0,.139-.328v-.428A3.2,3.2,0,0,1,64.37,19.184Zm-2.26,1.192a.178.178,0,0,1-.067-.153v-1.6a.455.455,0,0,0-.133-.327.45.45,0,0,0-.33-.135h-.048a.459.459,0,0,0-.328.132.444.444,0,0,0-.138.329v1.6a.177.177,0,0,1-.065.153.23.23,0,0,1-.141.049.236.236,0,0,1-.141-.049.182.182,0,0,1-.065-.153V17.955a.191.191,0,0,1,.065-.152.231.231,0,0,1,.148-.054A.225.225,0,0,1,61,17.79a.181.181,0,0,1,.076.121.533.533,0,0,1,.2-.119.833.833,0,0,1,.266-.043h.049a1.071,1.071,0,0,1,.331.051.748.748,0,0,1,.466.435.966.966,0,0,1,.07.388v1.6a.183.183,0,0,1-.063.153.225.225,0,0,1-.139.049A.237.237,0,0,1,62.11,20.375Zm-3.276.049a.856.856,0,0,1-.339-.068.9.9,0,0,1-.279-.184.849.849,0,0,1-.255-.617v-.932a.859.859,0,0,1,.067-.339.878.878,0,0,1,.187-.28.86.86,0,0,1,.279-.187.871.871,0,0,1,.339-.067h.055a.909.909,0,0,1,.338.065.845.845,0,0,1,.28.185.858.858,0,0,1,.186.278.9.9,0,0,1,.068.35h0v.445a.2.2,0,0,1-.06.143.2.2,0,0,1-.147.063H58.373v.274a.461.461,0,0,0,.461.458h.055a.415.415,0,0,0,.262-.082.522.522,0,0,0,.16-.194.2.2,0,0,1,.076-.1.2.2,0,0,1,.1-.03.211.211,0,0,1,.147.06.2.2,0,0,1,.065.152.177.177,0,0,1-.022.091.843.843,0,0,1-.791.517ZM58.511,18.3a.445.445,0,0,0-.138.331V18.9h.977v-.268a.466.466,0,0,0-.456-.47h-.054A.459.459,0,0,0,58.511,18.3Zm-1.8,2.08a.178.178,0,0,1-.067-.153V18.617a.432.432,0,0,0-.128-.341.476.476,0,0,0-.332-.114h-.049a.454.454,0,0,0-.331.132.446.446,0,0,0-.137.334v1.584a.189.189,0,0,1-.065.16.215.215,0,0,1-.281,0,.19.19,0,0,1-.067-.16V18.627a.445.445,0,0,0-.135-.336.463.463,0,0,0-.331-.131h-.049a.5.5,0,0,0-.325.114.366.366,0,0,0-.141.3v1.643a.177.177,0,0,1-.066.153.228.228,0,0,1-.282,0,.177.177,0,0,1-.066-.153V17.955a.186.186,0,0,1,.066-.152.227.227,0,0,1,.146-.054.213.213,0,0,1,.125.041.186.186,0,0,1,.076.121.519.519,0,0,1,.2-.119.829.829,0,0,1,.265-.043h.049a.856.856,0,0,1,.377.084.943.943,0,0,1,.3.225.968.968,0,0,1,.3-.225.862.862,0,0,1,.378-.084h.049a1.061,1.061,0,0,1,.33.051.834.834,0,0,1,.28.158.752.752,0,0,1,.193.271,1,1,0,0,1,.069.388v1.606a.177.177,0,0,1-.065.153.227.227,0,0,1-.281,0Zm-4.155,0a.177.177,0,0,1-.065-.153V18.617a.432.432,0,0,0-.128-.341.479.479,0,0,0-.334-.114h-.049a.458.458,0,0,0-.331.132.451.451,0,0,0-.135.334v1.584a.194.194,0,0,1-.065.16.224.224,0,0,1-.141.052.22.22,0,0,1-.141-.052.189.189,0,0,1-.065-.16V18.627a.44.44,0,0,0-.137-.336.459.459,0,0,0-.329-.131h-.049a.5.5,0,0,0-.326.114.371.371,0,0,0-.141.3v1.643a.179.179,0,0,1-.065.153.228.228,0,0,1-.282,0,.179.179,0,0,1-.065-.153V17.955a.188.188,0,0,1,.065-.152.227.227,0,0,1,.147-.054.217.217,0,0,1,.125.041.18.18,0,0,1,.075.121.537.537,0,0,1,.2-.119.821.821,0,0,1,.266-.043h.049a.857.857,0,0,1,.376.084.957.957,0,0,1,.3.225.943.943,0,0,1,.3-.225.858.858,0,0,1,.377-.084h.049a1.059,1.059,0,0,1,.331.051.813.813,0,0,1,.279.158.731.731,0,0,1,.193.271.972.972,0,0,1,.071.388v1.606a.179.179,0,0,1-.065.153.236.236,0,0,1-.141.049A.232.232,0,0,1,52.551,20.375Zm-3.921.042a.589.589,0,0,1-.229-.075.469.469,0,0,1-.14-.131.866.866,0,0,1-.586.212h-.049a1.081,1.081,0,0,1-.32-.049.851.851,0,0,1-.28-.148.73.73,0,0,1-.2-.244.71.71,0,0,1-.076-.336v-.066a.622.622,0,0,1,.093-.35.73.73,0,0,1,.232-.222,1.192,1.192,0,0,1,.31-.127c.112-.029.22-.053.32-.07s.19-.036.269-.053a.252.252,0,0,0,.149-.067.1.1,0,0,0,.014-.042c0-.019,0-.035,0-.05a.4.4,0,0,0-.13-.341.5.5,0,0,0-.31-.1h-.039a.455.455,0,0,0-.265.067.574.574,0,0,0-.174.2.2.2,0,0,1-.081.084.237.237,0,0,1-.1.024.224.224,0,0,1-.141-.052.165.165,0,0,1-.065-.138.2.2,0,0,1,.022-.1.821.821,0,0,1,.161-.245.774.774,0,0,1,.2-.154.838.838,0,0,1,.222-.081,1.073,1.073,0,0,1,.222-.025H47.7a.9.9,0,0,1,.337.065.832.832,0,0,1,.271.179.851.851,0,0,1,.179.266.8.8,0,0,1,.065.326v1.257a.161.161,0,0,0,.141.179.2.2,0,0,1,.132.074.2.2,0,0,1,.041.122.217.217,0,0,1-.052.144.184.184,0,0,1-.149.062A.068.068,0,0,1,48.63,20.417Zm-.811-1.234a2.215,2.215,0,0,0-.318.068.681.681,0,0,0-.241.121.258.258,0,0,0-.1.216v.044a.333.333,0,0,0,.128.275.511.511,0,0,0,.334.1h.049A.456.456,0,0,0,48,19.877a.432.432,0,0,0,.139-.328v-.428A3.248,3.248,0,0,1,47.819,19.184Zm-2.825,1.24a1.023,1.023,0,0,1-.269-.039,1.247,1.247,0,0,1-.264-.107,1.036,1.036,0,0,1-.228-.17.911.911,0,0,1-.168-.227.446.446,0,0,1-.026-.1.177.177,0,0,1,.065-.146.219.219,0,0,1,.146-.054.271.271,0,0,1,.1.019.2.2,0,0,1,.087.074,1.017,1.017,0,0,0,.26.237.557.557,0,0,0,.309.1h.027a.573.573,0,0,0,.382-.114.348.348,0,0,0,.139-.248v-.016a.312.312,0,0,0-.106-.257.786.786,0,0,0-.26-.132,2.9,2.9,0,0,0-.34-.084,1.365,1.365,0,0,1-.339-.112.718.718,0,0,1-.259-.214.621.621,0,0,1-.106-.392.564.564,0,0,1,.092-.328.769.769,0,0,1,.225-.213.968.968,0,0,1,.288-.116,1.36,1.36,0,0,1,.284-.035h.022a1.158,1.158,0,0,1,.259.027,1.534,1.534,0,0,1,.2.064.834.834,0,0,1,.153.076c.041.028.074.051.095.068a.2.2,0,0,1,.076.16.2.2,0,0,1-.055.135.179.179,0,0,1-.141.06.285.285,0,0,1-.119-.032l-.19-.1a.67.67,0,0,0-.288-.051h-.021a.587.587,0,0,0-.347.086.265.265,0,0,0-.125.206v.016a.228.228,0,0,0,.106.208.939.939,0,0,0,.26.109c.1.027.216.053.338.081a1.257,1.257,0,0,1,.34.125.743.743,0,0,1,.26.235.72.72,0,0,1,.106.416v.022a.642.642,0,0,1-.083.331.727.727,0,0,1-.216.235,1.018,1.018,0,0,1-.3.144,1.211,1.211,0,0,1-.336.049Zm-2.146-.039a.178.178,0,0,1-.075-.122.488.488,0,0,1-.2.119.821.821,0,0,1-.265.041h-.049a1.065,1.065,0,0,1-.333-.052.781.781,0,0,1-.279-.157.762.762,0,0,1-.19-.268.973.973,0,0,1-.07-.392v-1.6a.187.187,0,0,1,.065-.155.224.224,0,0,1,.141-.051.22.22,0,0,1,.14.051.188.188,0,0,1,.066.155v1.6a.461.461,0,0,0,.46.46h.049a.451.451,0,0,0,.331-.135.445.445,0,0,0,.136-.325v-1.6a.187.187,0,0,1,.065-.155.224.224,0,0,1,.141-.051.22.22,0,0,1,.14.051.188.188,0,0,1,.066.155v2.267a.179.179,0,0,1-.066.149.216.216,0,0,1-.14.052A.244.244,0,0,1,42.848,20.385ZM85.32,20.4a.212.212,0,0,1-.175-.079.278.278,0,0,1-.062-.181.255.255,0,0,1,.032-.131l1.535-2.946H85.363a.186.186,0,0,1-.158-.066.23.23,0,0,1,0-.283.186.186,0,0,1,.158-.065h1.552a.248.248,0,0,1,.18.07.236.236,0,0,1,.07.169.294.294,0,0,1-.038.14l-1.541,2.957h1.367a.19.19,0,0,1,.155.065.228.228,0,0,1,.051.141.222.222,0,0,1-.051.141.185.185,0,0,1-.155.066Zm-46.58,0a.212.212,0,0,1-.176-.079.283.283,0,0,1-.062-.181.265.265,0,0,1,.032-.131l1.535-2.946H38.784a.184.184,0,0,1-.158-.066.23.23,0,0,1,0-.283.184.184,0,0,1,.158-.065h1.551a.244.244,0,0,1,.179.07.23.23,0,0,1,.071.169.3.3,0,0,1-.039.14l-1.54,2.957h1.366a.188.188,0,0,1,.155.065.228.228,0,0,1,.051.141.222.222,0,0,1-.051.141.183.183,0,0,1-.155.066Zm-6.3-.077H21.859c-.247-.006-.373-.1-.378-.274a.45.45,0,0,1,.022-.121.706.706,0,0,1,.048-.12L27.816,8.1a.8.8,0,0,0,.048-.121.478.478,0,0,0,.021-.12.244.244,0,0,0-.094-.205.488.488,0,0,0-.283-.068H22.2a.294.294,0,0,1-.342-.343V5.189a.294.294,0,0,1,.342-.343H32.36c.246.006.371.1.377.274a.417.417,0,0,1-.022.121.791.791,0,0,1-.047.12l-6.2,11.7a.492.492,0,0,0-.072.248.241.241,0,0,0,.09.193.455.455,0,0,0,.291.074h5.66a.347.347,0,0,1,.248.082.331.331,0,0,1,.1.261v2.055a.357.357,0,0,1-.081.261.348.348,0,0,1-.256.082Zm-16.876,0a.378.378,0,0,1-.283-.092.389.389,0,0,1-.086-.274l0-6.328,0-8.364V5.2a.381.381,0,0,1,.087-.26.361.361,0,0,1,.283-.106h2.226a.382.382,0,0,1,.284.091.4.4,0,0,1,.085.275V19.953a.384.384,0,0,1-.086.26.362.362,0,0,1-.283.106Zm58.389-3.225a.186.186,0,0,1-.065-.155v-.119a.19.19,0,0,1,.065-.155.233.233,0,0,1,.141-.051.227.227,0,0,1,.141.051.185.185,0,0,1,.065.155v.119a.181.181,0,0,1-.065.155.217.217,0,0,1-.141.051A.223.223,0,0,1,73.949,17.095Zm4.019-2.6a.857.857,0,0,1-.338-.068.918.918,0,0,1-.28-.184.837.837,0,0,1-.187-.274.863.863,0,0,1-.067-.343v-.932a.87.87,0,0,1,.255-.619.874.874,0,0,1,.618-.255h.054a.9.9,0,0,1,.34.065.85.85,0,0,1,.279.185.839.839,0,0,1,.186.279.876.876,0,0,1,.068.349v.446a.2.2,0,0,1-.06.144.2.2,0,0,1-.146.062H77.507v.275a.441.441,0,0,0,.135.322.447.447,0,0,0,.326.135h.054A.423.423,0,0,0,78.285,14a.565.565,0,0,0,.161-.2.192.192,0,0,1,.075-.1.2.2,0,0,1,.1-.03.21.21,0,0,1,.146.06.194.194,0,0,1,.065.152.19.19,0,0,1-.021.092.848.848,0,0,1-.307.373.838.838,0,0,1-.486.143Zm-.322-2.128a.439.439,0,0,0-.139.33v.274h.977V12.7a.464.464,0,0,0-.456-.471h-.054A.457.457,0,0,0,77.646,12.366ZM75.864,14.44a.7.7,0,0,1-.228-.151.7.7,0,0,1-.206-.5V10.892a.185.185,0,0,1,.065-.155.22.22,0,0,1,.283,0,.187.187,0,0,1,.065.155v2.886a.287.287,0,0,0,.086.212.312.312,0,0,0,.212.093.181.181,0,0,1,.156.067.228.228,0,0,1,.049.142.219.219,0,0,1-.049.139.182.182,0,0,1-.156.064A.715.715,0,0,1,75.864,14.44Zm-1.494.049a.589.589,0,0,1-.229-.075.488.488,0,0,1-.14-.13.875.875,0,0,1-.586.211h-.049a1.081,1.081,0,0,1-.32-.049.838.838,0,0,1-.28-.146.769.769,0,0,1-.2-.246.71.71,0,0,1-.076-.336v-.065a.619.619,0,0,1,.092-.35.736.736,0,0,1,.233-.223,1.179,1.179,0,0,1,.31-.127c.112-.029.219-.053.32-.07l.268-.052a.253.253,0,0,0,.149-.068.111.111,0,0,0,.014-.044c0-.017,0-.033,0-.049a.4.4,0,0,0-.131-.341.5.5,0,0,0-.309-.1H73.4a.463.463,0,0,0-.266.068.573.573,0,0,0-.172.2.191.191,0,0,1-.083.084.227.227,0,0,1-.1.025.221.221,0,0,1-.141-.053.165.165,0,0,1-.065-.138.194.194,0,0,1,.022-.1.829.829,0,0,1,.159-.245.813.813,0,0,1,.2-.154.832.832,0,0,1,.222-.083,1.067,1.067,0,0,1,.222-.023h.039a.879.879,0,0,1,.337.065.837.837,0,0,1,.271.179.862.862,0,0,1,.179.266.834.834,0,0,1,.065.325v1.258a.161.161,0,0,0,.141.18.2.2,0,0,1,.132.073.2.2,0,0,1,.041.122.217.217,0,0,1-.052.144.182.182,0,0,1-.149.062A.064.064,0,0,1,74.37,14.488Zm-.812-1.234a2.509,2.509,0,0,0-.317.068.674.674,0,0,0-.241.121.258.258,0,0,0-.1.216V13.7a.336.336,0,0,0,.128.276.516.516,0,0,0,.334.1h.049a.461.461,0,0,0,.328-.132.442.442,0,0,0,.139-.329v-.428A3.217,3.217,0,0,1,73.558,13.254ZM71.3,14.446a.179.179,0,0,1-.066-.152v-1.6a.461.461,0,0,0-.464-.462h-.049a.454.454,0,0,0-.326.133.436.436,0,0,0-.138.329v1.6a.178.178,0,0,1-.065.152.23.23,0,0,1-.283,0,.181.181,0,0,1-.065-.152V12.026a.191.191,0,0,1,.065-.152.22.22,0,0,1,.148-.054.233.233,0,0,1,.13.04.193.193,0,0,1,.076.123.515.515,0,0,1,.2-.119.807.807,0,0,1,.266-.044h.049a1.053,1.053,0,0,1,.33.051.77.77,0,0,1,.277.16.788.788,0,0,1,.19.274,1,1,0,0,1,.07.389v1.6a.185.185,0,0,1-.062.152.23.23,0,0,1-.141.049A.237.237,0,0,1,71.3,14.446Zm-3.324.049a.857.857,0,0,1-.338-.068.907.907,0,0,1-.28-.184.839.839,0,0,1-.188-.274.863.863,0,0,1-.067-.343v-.932a.866.866,0,0,1,.256-.619.874.874,0,0,1,.618-.255h.054a.857.857,0,0,1,.338.068.845.845,0,0,1,.28.187.918.918,0,0,1,.188.279.873.873,0,0,1,.067.34v.932a.863.863,0,0,1-.067.343.883.883,0,0,1-.188.274.9.9,0,0,1-.28.184.857.857,0,0,1-.338.068Zm-.326-2.128a.444.444,0,0,0-.135.325v.931a.444.444,0,0,0,.135.325.452.452,0,0,0,.331.135h.049a.461.461,0,0,0,.461-.46v-.931a.461.461,0,0,0-.461-.46h-.054A.446.446,0,0,0,67.648,12.367Zm-1.867,2.079a.181.181,0,0,1-.065-.152V12.026a.19.19,0,0,1,.065-.155.228.228,0,0,1,.141-.051.224.224,0,0,1,.141.051.185.185,0,0,1,.065.155v2.268a.176.176,0,0,1-.065.152.232.232,0,0,1-.141.049A.236.236,0,0,1,65.782,14.446Zm-1.424-.006a.713.713,0,0,1-.229-.151.7.7,0,0,1-.151-.228.721.721,0,0,1-.054-.277V12.248h-.19a.188.188,0,0,1-.155-.065.22.22,0,0,1,0-.283.185.185,0,0,1,.155-.065h.19v-.944a.187.187,0,0,1,.065-.155.219.219,0,0,1,.282,0,.185.185,0,0,1,.065.155v.944h.294a.181.181,0,0,1,.153.065.215.215,0,0,1,0,.283.184.184,0,0,1-.153.065h-.294v1.526a.268.268,0,0,0,.1.219.4.4,0,0,0,.22.09.2.2,0,0,1,.144.071.217.217,0,0,1,.046.138.223.223,0,0,1-.049.139.183.183,0,0,1-.158.064A.714.714,0,0,1,64.358,14.44Zm-1.6.049a.584.584,0,0,1-.227-.075.5.5,0,0,1-.141-.13.873.873,0,0,1-.587.211h-.047a1.082,1.082,0,0,1-.321-.049.834.834,0,0,1-.279-.146.784.784,0,0,1-.2-.246.72.72,0,0,1-.075-.336v-.065a.612.612,0,0,1,.092-.35.735.735,0,0,1,.233-.223,1.166,1.166,0,0,1,.31-.127c.112-.029.219-.053.32-.07s.19-.036.267-.052a.256.256,0,0,0,.15-.068.111.111,0,0,0,.014-.044c0-.017,0-.033,0-.049a.4.4,0,0,0-.13-.341.5.5,0,0,0-.31-.1h-.038a.463.463,0,0,0-.266.068.6.6,0,0,0-.174.2.187.187,0,0,1-.081.084.227.227,0,0,1-.1.025.221.221,0,0,1-.141-.053.165.165,0,0,1-.065-.138.194.194,0,0,1,.022-.1.829.829,0,0,1,.159-.245.813.813,0,0,1,.2-.154.832.832,0,0,1,.222-.083,1.067,1.067,0,0,1,.222-.023h.038a.868.868,0,0,1,.336.065.816.816,0,0,1,.45.445.8.8,0,0,1,.067.325v1.258a.161.161,0,0,0,.14.18.2.2,0,0,1,.133.073.2.2,0,0,1,.041.122.216.216,0,0,1-.051.144.182.182,0,0,1-.149.062A.072.072,0,0,1,62.758,14.488Zm-.81-1.234a2.476,2.476,0,0,0-.317.068.673.673,0,0,0-.241.121.258.258,0,0,0-.1.216V13.7a.336.336,0,0,0,.128.276.516.516,0,0,0,.334.1H61.8a.464.464,0,0,0,.329-.132.442.442,0,0,0,.139-.329v-.428A3.217,3.217,0,0,1,61.948,13.254Zm-2.26,1.192a.179.179,0,0,1-.066-.152v-1.6a.461.461,0,0,0-.464-.462h-.049a.449.449,0,0,0-.326.133.436.436,0,0,0-.138.329v1.6a.178.178,0,0,1-.065.152.236.236,0,0,1-.141.049.23.23,0,0,1-.141-.049.181.181,0,0,1-.065-.152V12.026a.191.191,0,0,1,.065-.152.219.219,0,0,1,.146-.054.23.23,0,0,1,.131.04.194.194,0,0,1,.076.123.515.515,0,0,1,.2-.119.8.8,0,0,1,.266-.044h.049a1.061,1.061,0,0,1,.33.051.744.744,0,0,1,.466.434.98.98,0,0,1,.071.389v1.6a.18.18,0,0,1-.064.152.223.223,0,0,1-.139.049A.237.237,0,0,1,59.688,14.446Zm-3.488,0a.191.191,0,0,1-.065-.159V12.026a.184.184,0,0,1,.068-.152.219.219,0,0,1,.143-.054.223.223,0,0,1,.1.023.171.171,0,0,1,.076.085.235.235,0,0,1,.093-.055.743.743,0,0,1,.119-.038.825.825,0,0,1,.18-.016.85.85,0,0,1,.311.062.55.55,0,0,1,.252.2.261.261,0,0,1,.049.139.18.18,0,0,1-.059.141.2.2,0,0,1-.141.055.234.234,0,0,1-.167-.076.734.734,0,0,0-.09-.074.281.281,0,0,0-.16-.04.464.464,0,0,0-.2.032.271.271,0,0,0-.109.085.278.278,0,0,0-.049.116.8.8,0,0,0-.011.131v1.688a.191.191,0,0,1-.066.159.218.218,0,0,1-.281,0Zm-1.873.051a.861.861,0,0,1-.338-.068.914.914,0,0,1-.279-.184.837.837,0,0,1-.187-.274.863.863,0,0,1-.068-.343v-.932a.87.87,0,0,1,.255-.619.87.87,0,0,1,.617-.255h.055a.9.9,0,0,1,.339.065.854.854,0,0,1,.28.185.867.867,0,0,1,.186.279.892.892,0,0,1,.068.349v.446a.2.2,0,0,1-.059.144.2.2,0,0,1-.147.062H53.866v.275a.463.463,0,0,0,.461.457h.055A.423.423,0,0,0,54.644,14a.543.543,0,0,0,.16-.2.2.2,0,0,1,.076-.1.2.2,0,0,1,.1-.03.207.207,0,0,1,.146.06.2.2,0,0,1,.066.152.18.18,0,0,1-.022.092.843.843,0,0,1-.792.516ZM54,12.366a.439.439,0,0,0-.139.33v.274h.977V12.7a.466.466,0,0,0-.456-.471h-.054A.458.458,0,0,0,54,12.366ZM52.221,14.44a.709.709,0,0,1-.228-.151.7.7,0,0,1-.152-.228.721.721,0,0,1-.054-.277V12.248H51.6a.19.19,0,0,1-.155-.065.22.22,0,0,1,0-.283.187.187,0,0,1,.155-.065h.19v-.944a.187.187,0,0,1,.065-.155.22.22,0,0,1,.283,0,.19.19,0,0,1,.065.155v.944h.292a.188.188,0,0,1,.156.065.22.22,0,0,1,0,.283.191.191,0,0,1-.156.065H52.2v1.526a.265.265,0,0,0,.1.219.386.386,0,0,0,.22.09.2.2,0,0,1,.144.071.229.229,0,0,1,0,.277.183.183,0,0,1-.157.064A.718.718,0,0,1,52.221,14.44Zm-1.941.006a.179.179,0,0,1-.066-.152v-1.6a.461.461,0,0,0-.464-.462H49.7a.449.449,0,0,0-.326.133.436.436,0,0,0-.138.329v1.6a.181.181,0,0,1-.065.152.236.236,0,0,1-.141.049.23.23,0,0,1-.141-.049.177.177,0,0,1-.066-.152V12.026a.186.186,0,0,1,.066-.152.217.217,0,0,1,.146-.054.23.23,0,0,1,.13.04.186.186,0,0,1,.076.123.526.526,0,0,1,.2-.119.8.8,0,0,1,.265-.044h.049a1.063,1.063,0,0,1,.331.051.758.758,0,0,1,.276.16.776.776,0,0,1,.19.274,1,1,0,0,1,.071.389v1.6a.18.18,0,0,1-.064.152.226.226,0,0,1-.14.049A.236.236,0,0,1,50.279,14.446Zm-2.9,0a.178.178,0,0,1-.065-.152v-3.4a.187.187,0,0,1,.065-.155.22.22,0,0,1,.283,0,.185.185,0,0,1,.065.155v3.4a.176.176,0,0,1-.065.152.23.23,0,0,1-.283,0Zm-4.025,0a.191.191,0,0,1-.065-.159V12.026a.184.184,0,0,1,.068-.152.223.223,0,0,1,.144-.054.229.229,0,0,1,.1.023.161.161,0,0,1,.075.085.248.248,0,0,1,.093-.055.757.757,0,0,1,.12-.038.816.816,0,0,1,.179-.016.842.842,0,0,1,.311.062.541.541,0,0,1,.252.2.261.261,0,0,1,.049.139.183.183,0,0,1-.058.141.2.2,0,0,1-.141.055.238.238,0,0,1-.168-.076.716.716,0,0,0-.089-.074.285.285,0,0,0-.16-.04.468.468,0,0,0-.2.032.277.277,0,0,0-.107.085.269.269,0,0,0-.05.116.912.912,0,0,0-.01.131v1.688a.2.2,0,0,1-.065.159.22.22,0,0,1-.283,0Zm-1.369.013a.175.175,0,0,1-.076-.122.494.494,0,0,1-.2.119.825.825,0,0,1-.266.041H41.4a1.088,1.088,0,0,1-.334-.051.793.793,0,0,1-.28-.157.754.754,0,0,1-.19-.268,1,1,0,0,1-.07-.391v-1.6a.185.185,0,0,1,.066-.155.222.222,0,0,1,.141-.051.228.228,0,0,1,.141.051.187.187,0,0,1,.065.154v1.6a.461.461,0,0,0,.461.46h.049a.449.449,0,0,0,.33-.135.44.44,0,0,0,.137-.325v-1.6a.182.182,0,0,1,.065-.154.222.222,0,0,1,.141-.051.228.228,0,0,1,.141.051.19.19,0,0,1,.065.155v2.268a.184.184,0,0,1-.065.149.228.228,0,0,1-.141.051A.236.236,0,0,1,41.987,14.456Zm-3.068-.01a.179.179,0,0,1-.066-.152V12.248h-.119a.19.19,0,0,1-.155-.065.22.22,0,0,1,0-.283.187.187,0,0,1,.155-.065h.119V11.4a.773.773,0,0,1,.053-.285.615.615,0,0,1,.146-.227.688.688,0,0,1,.222-.15.711.711,0,0,1,.279-.054.185.185,0,0,1,.155.066.222.222,0,0,1,.051.14.224.224,0,0,1-.051.141.188.188,0,0,1-.155.066.267.267,0,0,0-.209.088.317.317,0,0,0-.078.215v.434h.255a.184.184,0,0,1,.158.065.232.232,0,0,1,.049.141.224.224,0,0,1-.051.141.19.19,0,0,1-.155.065h-.255v2.046a.177.177,0,0,1-.066.152.228.228,0,0,1-.282,0Zm26.863-3.28a.189.189,0,0,1-.065-.156v-.119a.19.19,0,0,1,.065-.155.233.233,0,0,1,.141-.051.229.229,0,0,1,.141.051.185.185,0,0,1,.065.155v.119a.184.184,0,0,1-.065.156.229.229,0,0,1-.141.051A.233.233,0,0,1,65.782,11.166Zm-24.007,0a.189.189,0,0,1-.065-.156v-.119a.194.194,0,0,1,.062-.155.219.219,0,0,1,.139-.051.24.24,0,0,1,.143.051.184.184,0,0,1,.067.155v.119a.184.184,0,0,1-.065.156.229.229,0,0,1-.141.051A.233.233,0,0,1,41.774,11.166Zm-1,0a.184.184,0,0,1-.065-.156v-.119a.185.185,0,0,1,.065-.155.227.227,0,0,1,.141-.051.224.224,0,0,1,.139.051.186.186,0,0,1,.067.155v.119a.185.185,0,0,1-.067.156.224.224,0,0,1-.139.051A.227.227,0,0,1,40.777,11.166ZM89.566,8.511a.683.683,0,0,1-.228-.152.715.715,0,0,1-.153-.227.725.725,0,0,1-.053-.278V6.32h-.19a.188.188,0,0,1-.156-.065.22.22,0,0,1,0-.283.186.186,0,0,1,.156-.066h.19V4.964a.184.184,0,0,1,.065-.155.224.224,0,0,1,.141-.051.219.219,0,0,1,.14.051.185.185,0,0,1,.067.155v.943h.293a.184.184,0,0,1,.154.066.217.217,0,0,1,0,.283.186.186,0,0,1-.154.065h-.293V7.844a.269.269,0,0,0,.094.219.388.388,0,0,0,.221.09A.2.2,0,0,1,90,8.224a.218.218,0,0,1,.047.138A.225.225,0,0,1,90,8.5a.187.187,0,0,1-.158.064A.711.711,0,0,1,89.566,8.511Zm-2.133.005a.181.181,0,0,1-.065-.152V6.32H87.25a.187.187,0,0,1-.155-.065.22.22,0,0,1,0-.283.185.185,0,0,1,.155-.066h.119V5.474a.784.784,0,0,1,.051-.285.669.669,0,0,1,.146-.228.728.728,0,0,1,.223-.15.742.742,0,0,1,.28-.053.182.182,0,0,1,.154.065.217.217,0,0,1,0,.283.184.184,0,0,1-.154.065.265.265,0,0,0-.209.089.314.314,0,0,0-.079.215v.433h.256a.183.183,0,0,1,.158.066.232.232,0,0,1,.049.141.225.225,0,0,1-.052.141.184.184,0,0,1-.154.065h-.256V8.365a.176.176,0,0,1-.065.152.226.226,0,0,1-.283,0Zm-1.228.043a.579.579,0,0,1-.227-.076.493.493,0,0,1-.141-.131.87.87,0,0,1-.587.212H85.2a1.061,1.061,0,0,1-.32-.05A.828.828,0,0,1,84.6,8.37a.777.777,0,0,1-.2-.244.727.727,0,0,1-.075-.337V7.725a.621.621,0,0,1,.091-.35.726.726,0,0,1,.234-.222,1.157,1.157,0,0,1,.309-.128c.113-.029.22-.052.32-.07s.192-.035.27-.051a.264.264,0,0,0,.149-.068.1.1,0,0,0,.014-.042c0-.019,0-.035,0-.05a.4.4,0,0,0-.131-.341.5.5,0,0,0-.309-.1h-.039a.453.453,0,0,0-.265.067.592.592,0,0,0-.175.2.183.183,0,0,1-.081.084.227.227,0,0,1-.1.025.224.224,0,0,1-.141-.051.172.172,0,0,1-.065-.139.181.181,0,0,1,.022-.1.85.85,0,0,1,.158-.246A.813.813,0,0,1,84.8,6a.85.85,0,0,1,.222-.081,1.073,1.073,0,0,1,.222-.025h.039a.851.851,0,0,1,.335.066.834.834,0,0,1,.272.178.824.824,0,0,1,.178.266.807.807,0,0,1,.067.325V7.985a.162.162,0,0,0,.14.18.2.2,0,0,1,.133.072.2.2,0,0,1,.04.122.216.216,0,0,1-.051.144.184.184,0,0,1-.149.063A.072.072,0,0,1,86.206,8.56ZM85.4,7.326a2.229,2.229,0,0,0-.317.068.665.665,0,0,0-.241.12.259.259,0,0,0-.1.216v.044a.334.334,0,0,0,.129.276.514.514,0,0,0,.332.1h.049a.457.457,0,0,0,.329-.132.441.441,0,0,0,.139-.329V7.263A3.212,3.212,0,0,1,85.4,7.326ZM83.147,8.517a.176.176,0,0,1-.065-.152v-1.6a.5.5,0,0,0-.041-.206.4.4,0,0,0-.112-.144.491.491,0,0,0-.158-.084A.559.559,0,0,0,82.6,6.3a.588.588,0,0,0-.181.027.449.449,0,0,0-.158.084.437.437,0,0,0-.112.14.379.379,0,0,0-.043.184V8.365a.181.181,0,0,1-.065.152.231.231,0,0,1-.141.05.227.227,0,0,1-.141-.05.177.177,0,0,1-.066-.152v-3.4a.184.184,0,0,1,.066-.155.224.224,0,0,1,.141-.051.228.228,0,0,1,.141.051.189.189,0,0,1,.065.155v1.09a.475.475,0,0,1,.2-.119.859.859,0,0,1,.271-.044h.044a.873.873,0,0,1,.34.068.873.873,0,0,1,.466.468.857.857,0,0,1,.068.338v1.6a.181.181,0,0,1-.065.152.231.231,0,0,1-.141.05A.227.227,0,0,1,83.147,8.517Zm-3.25.05A.821.821,0,0,1,79.56,8.5a.879.879,0,0,1-.28-.184.83.83,0,0,1-.188-.274.86.86,0,0,1-.067-.343V6.764a.838.838,0,0,1,.07-.345.919.919,0,0,1,.187-.276.885.885,0,0,1,.278-.185.85.85,0,0,1,.337-.068h.055a.86.86,0,0,1,.338.068.873.873,0,0,1,.277.188.912.912,0,0,1,.186.28.816.816,0,0,1,.072.338.186.186,0,0,1-.066.155.224.224,0,0,1-.141.051.219.219,0,0,1-.139-.049.2.2,0,0,1-.068-.152.5.5,0,0,0-.141-.337.435.435,0,0,0-.32-.13H79.9a.461.461,0,0,0-.46.46v.93a.444.444,0,0,0,.135.325.452.452,0,0,0,.331.135h.049a.424.424,0,0,0,.32-.136.5.5,0,0,0,.141-.325.21.21,0,0,1,.068-.16.207.207,0,0,1,.139-.051.219.219,0,0,1,.141.051.192.192,0,0,1,.066.16.859.859,0,0,1-.067.342.9.9,0,0,1-.188.275.92.92,0,0,1-.28.187.862.862,0,0,1-.338.069Zm-2.677,0a1.068,1.068,0,0,1-.269-.039,1.235,1.235,0,0,1-.262-.108,1,1,0,0,1-.228-.17.933.933,0,0,1-.169-.226.549.549,0,0,1-.027-.1.184.184,0,0,1,.065-.147.226.226,0,0,1,.148-.054.266.266,0,0,1,.1.019.2.2,0,0,1,.086.073,1.025,1.025,0,0,0,.261.239.565.565,0,0,0,.31.1h.027a.569.569,0,0,0,.382-.113.352.352,0,0,0,.139-.248V7.774a.31.31,0,0,0-.106-.257.808.808,0,0,0-.261-.132,3,3,0,0,0-.338-.084,1.3,1.3,0,0,1-.339-.112.712.712,0,0,1-.261-.213.633.633,0,0,1-.105-.392.556.556,0,0,1,.093-.328.773.773,0,0,1,.225-.214,1,1,0,0,1,.287-.116,1.291,1.291,0,0,1,.285-.035h.022a1.09,1.09,0,0,1,.257.028,1.516,1.516,0,0,1,.206.064.8.8,0,0,1,.152.076c.041.027.073.05.1.068a.2.2,0,0,1,.022.3.184.184,0,0,1-.141.059.263.263,0,0,1-.119-.032l-.192-.094a.649.649,0,0,0-.286-.051h-.022a.586.586,0,0,0-.347.086.265.265,0,0,0-.124.206v.016a.227.227,0,0,0,.1.207.914.914,0,0,0,.262.109c.1.028.216.054.338.081a1.319,1.319,0,0,1,.338.125.75.75,0,0,1,.262.235.73.73,0,0,1,.1.417v.023a.653.653,0,0,1-.081.33.714.714,0,0,1-.218.235.991.991,0,0,1-.3.143,1.173,1.173,0,0,1-.337.05Zm-2.143-.055a.708.708,0,0,1-.227-.152.668.668,0,0,1-.151-.227.71.71,0,0,1-.055-.278V4.964a.189.189,0,0,1,.065-.155.22.22,0,0,1,.283,0,.186.186,0,0,1,.065.155V7.85a.287.287,0,0,0,.086.212.315.315,0,0,0,.212.092.181.181,0,0,1,.158.067.234.234,0,0,1,.049.142.225.225,0,0,1-.049.14.187.187,0,0,1-.158.064A.726.726,0,0,1,75.078,8.511Zm-1.7,0a.706.706,0,0,1-.229-.152A.682.682,0,0,1,73,8.132a.709.709,0,0,1-.054-.278V4.964a.184.184,0,0,1,.065-.155.22.22,0,0,1,.14-.051.222.222,0,0,1,.141.051.186.186,0,0,1,.065.155V7.85a.285.285,0,0,0,.087.212.311.311,0,0,0,.212.092.181.181,0,0,1,.157.067.234.234,0,0,1,.049.142.226.226,0,0,1-.049.14.187.187,0,0,1-.157.064A.711.711,0,0,1,73.376,8.511Zm-2.285.055a.828.828,0,0,1-.338-.069.893.893,0,0,1-.281-.184.841.841,0,0,1-.187-.274.86.86,0,0,1-.067-.343V6.764a.857.857,0,0,1,.067-.338.868.868,0,0,1,.187-.28.89.89,0,0,1,.281-.188.857.857,0,0,1,.338-.068h.054a.872.872,0,0,1,.338.066.829.829,0,0,1,.28.185.874.874,0,0,1,.187.279.9.9,0,0,1,.068.35v.445a.2.2,0,0,1-.059.144.2.2,0,0,1-.147.062H70.629V7.7a.439.439,0,0,0,.135.322.448.448,0,0,0,.327.135h.054a.424.424,0,0,0,.264-.081.552.552,0,0,0,.159-.2.184.184,0,0,1,.179-.13.214.214,0,0,1,.147.059.2.2,0,0,1,.065.153.188.188,0,0,1-.022.091.843.843,0,0,1-.792.517Zm-.322-2.129a.443.443,0,0,0-.139.331v.273h.977V6.773a.447.447,0,0,0-.139-.337.442.442,0,0,0-.316-.133H71.1A.455.455,0,0,0,70.769,6.437ZM68.417,8.566a1.05,1.05,0,0,1-.268-.039,1.257,1.257,0,0,1-.265-.108,1.031,1.031,0,0,1-.227-.17.861.861,0,0,1-.167-.226.451.451,0,0,1-.028-.1.182.182,0,0,1,.065-.147.226.226,0,0,1,.147-.054.267.267,0,0,1,.1.019.206.206,0,0,1,.087.073.978.978,0,0,0,.26.239.567.567,0,0,0,.309.1h.028a.571.571,0,0,0,.382-.113.348.348,0,0,0,.139-.248V7.774a.31.31,0,0,0-.106-.257.8.8,0,0,0-.26-.132,2.988,2.988,0,0,0-.34-.084,1.311,1.311,0,0,1-.338-.112.709.709,0,0,1-.26-.213.627.627,0,0,1-.106-.392.562.562,0,0,1,.093-.328.773.773,0,0,1,.225-.214,1,1,0,0,1,.287-.116,1.3,1.3,0,0,1,.285-.035h.021a1.106,1.106,0,0,1,.259.028,1.463,1.463,0,0,1,.205.064.8.8,0,0,1,.152.076,1.068,1.068,0,0,1,.1.068.2.2,0,0,1,.076.16.192.192,0,0,1-.055.135.18.18,0,0,1-.141.059.272.272,0,0,1-.119-.032l-.19-.094a.656.656,0,0,0-.287-.051H68.45a.589.589,0,0,0-.347.086.264.264,0,0,0-.125.206v.016a.227.227,0,0,0,.106.207.912.912,0,0,0,.26.109c.1.028.216.054.339.081a1.326,1.326,0,0,1,.339.125.752.752,0,0,1,.26.235.723.723,0,0,1,.105.417v.023a.644.644,0,0,1-.081.33.731.731,0,0,1-.217.235,1.022,1.022,0,0,1-.3.143,1.182,1.182,0,0,1-.337.05Zm-2.661,0a.828.828,0,0,1-.338-.069.889.889,0,0,1-.28-.184.83.83,0,0,1-.188-.274.86.86,0,0,1-.067-.343V6.764a.87.87,0,0,1,.256-.618.885.885,0,0,1,.28-.188.857.857,0,0,1,.338-.068h.054a.888.888,0,0,1,.34.066.83.83,0,0,1,.278.185.862.862,0,0,1,.188.279.9.9,0,0,1,.067.35v.445a.2.2,0,0,1-.06.144.2.2,0,0,1-.146.062H65.295V7.7a.437.437,0,0,0,.136.322.444.444,0,0,0,.325.135h.054a.422.422,0,0,0,.264-.081.554.554,0,0,0,.16-.2.19.19,0,0,1,.076-.1.2.2,0,0,1,.1-.03.211.211,0,0,1,.147.059.2.2,0,0,1,.065.153.179.179,0,0,1-.022.091.843.843,0,0,1-.792.517Zm-.322-2.129a.442.442,0,0,0-.139.331v.273h.976V6.773a.447.447,0,0,0-.139-.337.442.442,0,0,0-.316-.133h-.055A.455.455,0,0,0,65.434,6.437ZM62.844,8.566a1.046,1.046,0,0,1-.4-.079.98.98,0,0,1-.328-.218,1.017,1.017,0,0,1-.3-.73V5.789a1.02,1.02,0,0,1,.081-.405,1.029,1.029,0,0,1,.548-.545,1.014,1.014,0,0,1,.4-.081H62.9a1.03,1.03,0,0,1,.371.068,1.12,1.12,0,0,1,.315.184.993.993,0,0,1,.228.279,1.012,1.012,0,0,1,.116.353v.033a.178.178,0,0,1-.065.148.22.22,0,0,1-.14.051.237.237,0,0,1-.131-.04.2.2,0,0,1-.075-.134.71.71,0,0,0-.2-.38A.572.572,0,0,0,62.9,5.17h-.056a.6.6,0,0,0-.241.049.631.631,0,0,0-.194.132.648.648,0,0,0-.133.2.581.581,0,0,0-.049.235V7.536a.6.6,0,0,0,.049.241.648.648,0,0,0,.133.2A.631.631,0,0,0,62.6,8.1a.6.6,0,0,0,.241.049H62.9a.6.6,0,0,0,.241-.049.631.631,0,0,0,.194-.132.607.607,0,0,0,.134-.194.6.6,0,0,0,.049-.241V6.906h-.57a.191.191,0,0,1-.156-.065.223.223,0,0,1,0-.283.185.185,0,0,1,.156-.065h.776a.2.2,0,0,1,.144.062.2.2,0,0,1,.061.144v.84a1,1,0,0,1-.081.405,1.048,1.048,0,0,1-.219.325,1,1,0,0,1-.329.218,1.039,1.039,0,0,1-.4.079Zm-4.642,0a.843.843,0,0,1-.34-.069.881.881,0,0,1-.278-.184A.83.83,0,0,1,57.4,8.04a.86.86,0,0,1-.068-.343V6.764a.87.87,0,0,1,.256-.618.861.861,0,0,1,.618-.256h.054a.875.875,0,0,1,.338.066.82.82,0,0,1,.28.185.886.886,0,0,1,.256.629v.445a.2.2,0,0,1-.06.144.2.2,0,0,1-.147.062H57.741V7.7a.439.439,0,0,0,.135.322.444.444,0,0,0,.326.135h.054a.415.415,0,0,0,.262-.081.518.518,0,0,0,.16-.2.2.2,0,0,1,.076-.1.2.2,0,0,1,.1-.03A.214.214,0,0,1,59,7.806a.2.2,0,0,1,.065.153.179.179,0,0,1-.022.091.846.846,0,0,1-.792.517Zm-.324-2.129a.447.447,0,0,0-.137.331v.273h.976V6.773a.464.464,0,0,0-.456-.47h-.053A.463.463,0,0,0,57.878,6.437Zm-1.785,2.08a.177.177,0,0,1-.067-.152v-1.6a.468.468,0,0,0-.04-.206.4.4,0,0,0-.112-.144.491.491,0,0,0-.158-.084.551.551,0,0,0-.174-.027.6.6,0,0,0-.181.027.441.441,0,0,0-.269.223.379.379,0,0,0-.043.184V8.365a.177.177,0,0,1-.066.152.224.224,0,0,1-.281,0,.177.177,0,0,1-.067-.152v-3.4a.185.185,0,0,1,.067-.155.218.218,0,0,1,.281,0,.184.184,0,0,1,.066.155v1.09a.473.473,0,0,1,.2-.119.86.86,0,0,1,.272-.044h.043a.865.865,0,0,1,.339.068.877.877,0,0,1,.278.188.87.87,0,0,1,.256.618v1.6a.178.178,0,0,1-.065.152.225.225,0,0,1-.141.05A.223.223,0,0,1,56.093,8.517Zm-3.3.05a.829.829,0,0,1-.339-.069.9.9,0,0,1-.28-.184.841.841,0,0,1-.187-.274.86.86,0,0,1-.068-.343V6.764a.838.838,0,0,1,.071-.345.864.864,0,0,1,.463-.462.858.858,0,0,1,.339-.068h.053a.853.853,0,0,1,.617.256.931.931,0,0,1,.187.28.829.829,0,0,1,.07.338.183.183,0,0,1-.065.155.224.224,0,0,1-.141.051.218.218,0,0,1-.138-.049.194.194,0,0,1-.068-.152.5.5,0,0,0-.141-.337.434.434,0,0,0-.32-.13h-.053a.462.462,0,0,0-.462.46v.93a.441.441,0,0,0,.136.325.45.45,0,0,0,.33.135h.049a.423.423,0,0,0,.32-.136.5.5,0,0,0,.141-.325.2.2,0,0,1,.206-.212.219.219,0,0,1,.141.051.189.189,0,0,1,.065.16.853.853,0,0,1-.255.617.916.916,0,0,1-.279.187.867.867,0,0,1-.34.069Zm-2.677,0a1.062,1.062,0,0,1-.269-.039,1.269,1.269,0,0,1-.264-.108,1.031,1.031,0,0,1-.227-.17.91.91,0,0,1-.169-.226.517.517,0,0,1-.026-.1.179.179,0,0,1,.065-.147.226.226,0,0,1,.147-.054.266.266,0,0,1,.1.019.206.206,0,0,1,.087.073,1.006,1.006,0,0,0,.26.239.567.567,0,0,0,.309.1h.028a.571.571,0,0,0,.382-.113.348.348,0,0,0,.139-.248V7.774a.31.31,0,0,0-.106-.257.8.8,0,0,0-.26-.132,2.988,2.988,0,0,0-.34-.084,1.311,1.311,0,0,1-.338-.112.709.709,0,0,1-.26-.213.627.627,0,0,1-.106-.392.562.562,0,0,1,.093-.328.773.773,0,0,1,.225-.214,1,1,0,0,1,.287-.116,1.3,1.3,0,0,1,.285-.035h.021a1.106,1.106,0,0,1,.259.028,1.463,1.463,0,0,1,.205.064.8.8,0,0,1,.152.076,1.068,1.068,0,0,1,.1.068.2.2,0,0,1,.076.16.2.2,0,0,1-.055.135.18.18,0,0,1-.141.059.272.272,0,0,1-.119-.032l-.19-.094a.656.656,0,0,0-.287-.051h-.022a.587.587,0,0,0-.347.086.264.264,0,0,0-.125.206v.016a.227.227,0,0,0,.106.207.912.912,0,0,0,.26.109c.1.028.216.054.338.081a1.3,1.3,0,0,1,.339.125.747.747,0,0,1,.261.235.723.723,0,0,1,.105.417v.023a.636.636,0,0,1-.082.33.718.718,0,0,1-.216.235,1.022,1.022,0,0,1-.3.143,1.182,1.182,0,0,1-.337.05Zm-2.14-.055a.712.712,0,0,1-.228-.152.7.7,0,0,1-.152-.227.726.726,0,0,1-.054-.278V6.32h-.19a.187.187,0,0,1-.155-.065.22.22,0,0,1,0-.283.185.185,0,0,1,.155-.066h.19V4.964a.184.184,0,0,1,.066-.155.22.22,0,0,1,.14-.051.224.224,0,0,1,.141.051.187.187,0,0,1,.066.155v.943h.292a.185.185,0,0,1,.155.066.22.22,0,0,1,0,.283.187.187,0,0,1-.155.065h-.292V7.844a.265.265,0,0,0,.095.219.385.385,0,0,0,.219.09.2.2,0,0,1,.144.071.217.217,0,0,1,.046.138.226.226,0,0,1-.049.14.186.186,0,0,1-.158.064A.714.714,0,0,1,47.975,8.511Zm-2,.016a.182.182,0,0,1-.076-.122.5.5,0,0,1-.2.119.854.854,0,0,1-.265.041H45.38a1.059,1.059,0,0,1-.334-.053.73.73,0,0,1-.47-.425.985.985,0,0,1-.07-.391V6.1a.188.188,0,0,1,.065-.156.22.22,0,0,1,.283,0,.191.191,0,0,1,.065.156v1.6a.461.461,0,0,0,.462.46h.049a.452.452,0,0,0,.331-.135.445.445,0,0,0,.135-.325V6.1a.188.188,0,0,1,.065-.156.22.22,0,0,1,.283,0,.191.191,0,0,1,.065.156V8.365a.18.18,0,0,1-.065.149.221.221,0,0,1-.141.053A.245.245,0,0,1,45.971,8.528Zm-3.26.039a.829.829,0,0,1-.339-.069.9.9,0,0,1-.28-.184A.87.87,0,0,1,41.9,8.04a.86.86,0,0,1-.067-.343V6.764a.857.857,0,0,1,.067-.338.87.87,0,0,1,.467-.468.858.858,0,0,1,.339-.068h.053a.881.881,0,0,1,.34.066.834.834,0,0,1,.279.185.86.86,0,0,1,.187.279.9.9,0,0,1,.068.35v.445a.2.2,0,0,1-.059.144.2.2,0,0,1-.147.062H42.25V7.7a.439.439,0,0,0,.135.322.449.449,0,0,0,.327.135h.053a.422.422,0,0,0,.264-.081.545.545,0,0,0,.16-.2.2.2,0,0,1,.076-.1.194.194,0,0,1,.1-.03.209.209,0,0,1,.146.059.2.2,0,0,1,.066.153.17.17,0,0,1-.022.091.843.843,0,0,1-.793.517Zm-.323-2.129a.446.446,0,0,0-.139.331v.273h.977V6.773a.463.463,0,0,0-.455-.47h-.055A.458.458,0,0,0,42.388,6.437Zm-3.41,2.1a.2.2,0,0,1-.143-.062.2.2,0,0,1-.063-.144V5a.214.214,0,0,1,.206-.206h.879a.993.993,0,0,1,.4.081,1.042,1.042,0,0,1,.326.22,1.028,1.028,0,0,1,.219.325.967.967,0,0,1,.082.4V7.507a.987.987,0,0,1-.082.4,1.01,1.01,0,0,1-.219.328,1.027,1.027,0,0,1-.326.22.993.993,0,0,1-.4.081Zm.207-.412h.67a.591.591,0,0,0,.24-.049.634.634,0,0,0,.194-.133.667.667,0,0,0,.133-.194.607.607,0,0,0,.049-.243V5.821a.589.589,0,0,0-.049-.241.661.661,0,0,0-.13-.2.572.572,0,0,0-.193-.133A.59.59,0,0,0,39.86,5.2h-.675ZM15.62,3.224a.445.445,0,0,1-.311-.107.414.414,0,0,1-.1-.258s0-.041,0-.059V2.588a.459.459,0,0,1,.132-.325l.086-.1,1.795-2A.453.453,0,0,1,17.584,0h.17a.445.445,0,0,1,.311.107.451.451,0,0,1,.1.316V2.862a.35.35,0,0,1-.1.255.445.445,0,0,1-.311.107Z" fill="#da1c23"/>
</svg>
