<svg xmlns="http://www.w3.org/2000/svg" width="344.297" height="75.389" viewBox="0 0 344.297 75.389">
  <path id="Union_101" data-name="Union 101" d="M12.121,75.064l-9-3.656a.97.97,0,0,1-.627-.656,1.013,1.013,0,0,1,.289-.9l4.4-4.942a3.779,3.779,0,0,0,.812-2.436l-.135-2.437a2.131,2.131,0,0,0-1.422-1.759l-2.843-.745a2.058,2.058,0,0,1-1.421-1.759l-.136-2.911a12.681,12.681,0,0,0-.541-2.708L.14,46.429a2.793,2.793,0,0,1,.338-2.437l1.355-1.963a1.13,1.13,0,0,0,.157-1,.878.878,0,0,0-.564-.561A1.731,1.731,0,0,1,.343,38.713l.135-1.964a11.484,11.484,0,0,1,.609-2.64l3.656-9.477a1.3,1.3,0,0,1,1.2-.809,1.237,1.237,0,0,1,.56.132l7.176,3.384a1.25,1.25,0,0,0,.563.133,1.593,1.593,0,0,0,1.332-.81L16.86,24.09a3.669,3.669,0,0,1,1.9-1.625l6.9-2.234a2.406,2.406,0,0,0,1.557-1.76l.813-5.077a3.666,3.666,0,0,1,1.354-2.1l4.4-2.776a3.022,3.022,0,0,1,1.584-.412,2.332,2.332,0,0,1,.853.141l12.455,3.858a2.634,2.634,0,0,0,.883.14,2.919,2.919,0,0,0,1.554-.411l2.843-1.759a2.324,2.324,0,0,1,2.3,0l.27.135a1.078,1.078,0,0,0,.595.188,1.008,1.008,0,0,0,.962-.8l.271-.812a1.981,1.981,0,0,1,1.828-1.287h1.422A1.355,1.355,0,0,0,62.96,6.152V5.475a3.842,3.842,0,0,1,.948-2.37L66.479.4A1.3,1.3,0,0,1,67.39,0a1.147,1.147,0,0,1,.917.466L70.88,3.444a4.414,4.414,0,0,1,.88,2.436l-.068,3.385A4.371,4.371,0,0,0,72.5,11.7l.677.812a1.394,1.394,0,0,0,1.112.527,1.547,1.547,0,0,0,.852-.257l7.446-5.55a4.548,4.548,0,0,1,2.437-.813l8.326-.135c.37,0,.615.1.689.279s-.027.413-.283.669L89.969,10.89a3.94,3.94,0,0,1-2.37,1.015l-5.957.338a5.829,5.829,0,0,0-2.437.88L72.3,18.2a1.8,1.8,0,0,0-.541,2.031l1.828,3.858a3.033,3.033,0,0,1-.068,2.437L70.88,31a1.653,1.653,0,0,0-.135,1.828,2.416,2.416,0,0,1,.473,1.692A1.652,1.652,0,0,1,69.8,35.8l-5.484.88a.843.843,0,0,0-.691.461.869.869,0,0,0,.218.825l1.9,2.3a1.168,1.168,0,0,1,.257.977,1.073,1.073,0,0,1-.595.715l-3.521,1.963a2.584,2.584,0,0,0-1.286,2.031l-.541,6.5a3.655,3.655,0,0,1-1.219,2.234l-1.219.948a1.828,1.828,0,0,1-2.166,0l-.271-.2a1.552,1.552,0,0,0-.963-.324,1.64,1.64,0,0,0-1.067.391l-2.37,2.3a5.884,5.884,0,0,1-2.3,1.286l-5.822,1.354a2.221,2.221,0,0,0-1.557,1.692l-1.286,7.988a2.047,2.047,0,0,1-1.557,1.557L27.623,73.236c-.372.068-.87.137-1.353.2s-.982.135-1.355.2L14.762,75.335a3.8,3.8,0,0,1-.67.053A6.192,6.192,0,0,1,12.121,75.064ZM24.916,40.27c0,4.8,3.139,7.785,8.191,7.785a9.731,9.731,0,0,0,3.994-.678l-.542-2.843a7.191,7.191,0,0,1-2.911.542c-3.136,0-5.009-1.9-5.009-5.077s1.894-5.144,4.942-5.144a8.2,8.2,0,0,1,2.978.609l.745-2.776a9.341,9.341,0,0,0-3.858-.677C28.344,32.011,24.916,35.33,24.916,40.27ZM12.663,47.107a10.318,10.318,0,0,0,4.4.948c4.642,0,6.3-2.483,6.3-4.807,0-2.2-1.252-3.642-4.062-4.671-2.068-.758-2.911-1.166-2.911-2.165,0-.932.835-1.489,2.234-1.489a7.907,7.907,0,0,1,3.25.744l.812-2.843a8.917,8.917,0,0,0-3.993-.812c-3.468,0-5.89,1.921-5.89,4.67,0,2.116,1.395,3.622,4.264,4.6,1.9.611,2.641,1.219,2.641,2.166,0,1.059-.936,1.692-2.5,1.692a9.313,9.313,0,0,1-3.927-.948Zm30.6-3.25h4.4l1.219,3.994h3.791l-4.807-15.57h-4.6l-4.738,15.57h3.655l1.084-3.993h0Zm122.8,27.89a2.514,2.514,0,0,1,1.49-2.1l1.219-.067a4.091,4.091,0,0,0-.338,1.557c0,1.693.88,2.572,3.723,2.572,3.114,0,4.129-1.15,4.129-2.775,0-1.828-.745-2.166-4.6-2.3a22.18,22.18,0,0,1-2.64-.2,2.157,2.157,0,0,1-1.9-2.3c0-1.15,1.15-2.03,2.776-2.572a4.31,4.31,0,0,1-3.521-4.2c0-2.843,2.166-4.874,5.551-4.874a7.022,7.022,0,0,1,2.3.338,6.967,6.967,0,0,0,2.234.474,3.636,3.636,0,0,0,2.37-.948l1.015,1.9a3.278,3.278,0,0,1-1.963.677,5.988,5.988,0,0,1-2.1-.542,4.113,4.113,0,0,1,1.76,3.114c0,2.031-1.422,4.536-6.228,4.536-1.083.27-1.828.879-1.828,1.556,0,.474.338.745,1.084.745H173.3c3.452,0,5.484.948,5.484,4.062,0,2.911-2.843,4.739-6.5,4.739C168.224,75.132,166.058,73.507,166.058,71.747ZM169.24,59.36c0,2.3.948,3.384,2.708,3.384s2.708-1.015,2.708-3.249c0-2.5-.813-3.52-2.708-3.52C170.187,55.975,169.24,56.99,169.24,59.36Zm92.335,6.363c0-3.588,3.114-4.806,7.785-4.806h1.015V59.63c0-2.572-.609-3.655-2.707-3.655-2.5,0-3.181,1.286-3.452,2.64h-1.828v-2.64a12.824,12.824,0,0,1,5.551-1.49c3.316,0,5.144,1.49,5.144,5.009,0,.88-.135,3.452-.135,6.16.068,2.234.338,2.572,2.234,2.776v.948a5.792,5.792,0,0,1-2.031.338c-2.1,0-2.572-.88-2.707-2.1a4.67,4.67,0,0,1-4.062,2.369C263.538,69.987,261.574,68.5,261.574,65.723Zm2.911-.2c0,2.1.812,2.776,2.572,2.776a3.83,3.83,0,0,0,3.249-2.166l.068-3.723c-.406,0-.677-.068-1.083-.068C265.907,62.338,264.486,63.285,264.486,65.519Zm-66.137.2c0-3.588,3.114-4.806,7.785-4.806h1.015V59.63c0-2.572-.609-3.655-2.708-3.655-2.5,0-3.181,1.286-3.452,2.64h-1.9v-2.64a12.828,12.828,0,0,1,5.551-1.49c3.317,0,5.144,1.49,5.144,5.009,0,.88-.135,3.452-.135,6.16.068,2.234.338,2.572,2.3,2.776v.948a5.786,5.786,0,0,1-2.03.338c-2.1,0-2.572-.88-2.708-2.1a4.668,4.668,0,0,1-4.062,2.369C200.311,69.987,198.348,68.5,198.348,65.723Zm2.911-.2c0,2.1.813,2.776,2.572,2.776a3.83,3.83,0,0,0,3.25-2.166l.067-3.723c-.473,0-.677-.068-1.083-.068C202.681,62.338,201.259,63.285,201.259,65.519Zm52.4.407V56.584h-1.76v-.948l1.963-.677a12.545,12.545,0,0,1,1.421-4.062l1.422-.338a40.414,40.414,0,0,0-.271,4.468h3.52l-.473,1.557h-3.182v8.935c0,2.3.406,2.843,1.9,2.843a5.462,5.462,0,0,0,1.692-.271l.271,1.084a6.64,6.64,0,0,1-2.911.744C255.008,69.919,253.654,68.9,253.654,65.926Zm-14.283,2.707V65.79h1.963c.2,2.031,1.083,2.776,3.182,2.776,1.692,0,3.046-.677,3.046-2.572,0-1.624-.88-2.166-2.572-2.572l-1.76-.407c-2.234-.541-3.791-1.692-3.791-4.129,0-2.776,2.369-4.264,5.213-4.264a9.932,9.932,0,0,1,4.468,1.015v2.64h-1.9a2.538,2.538,0,0,0-2.776-2.369c-1.76,0-2.708.879-2.708,2.3,0,1.219.542,1.9,2.37,2.37l1.759.406c2.776.677,4.062,1.9,4.062,4.062,0,2.978-2.166,4.874-5.686,4.874A8.779,8.779,0,0,1,239.371,68.633ZM103.712,62.2c0-4.807,2.843-7.65,6.769-7.65,4.4,0,6.9,3.385,6.9,7.853,0,4.671-2.843,7.447-6.837,7.447S103.712,67.009,103.712,62.2Zm2.911-.271c0,4.468,1.083,6.5,3.994,6.5,2.572,0,3.858-2.166,3.858-5.957,0-4.536-1.354-6.5-3.994-6.5C107.5,55.975,106.623,58.208,106.623,61.932Zm74.26,7.717V68.633c1.693-.135,2.1-.406,2.1-2.1V52.319c0-2.166-.473-2.437-2.234-2.5v-.948l4.129-.88h.474a11.612,11.612,0,0,1,.338,2.911v6.228c1.354-1.354,2.707-2.437,4.941-2.437a3.563,3.563,0,0,1,3.927,3.926v7.853c0,1.693.338,1.964,1.9,2.1v1.015h-6.7V68.566c1.9-.068,2.1-.406,2.1-1.9V59.156c0-1.76-.744-2.437-2.166-2.437a5.393,5.393,0,0,0-4.061,1.9v8.123c0,1.422.2,1.76,2.1,1.9v1.015Zm95.72-.067V68.566c1.693-.135,2.1-.406,2.1-2.1V59.224c0-2.166-.406-2.437-2.166-2.5v-.88l3.791-1.218h.474a7.57,7.57,0,0,1,.473,2.572,6.79,6.79,0,0,1,5.077-2.572,3.7,3.7,0,0,1,3.994,3.993v7.853c0,1.693.338,1.964,1.9,2.031v1.015h-6.7V68.5c1.9-.067,2.1-.407,2.1-1.9V59.089c0-1.76-.744-2.437-2.166-2.437a5.39,5.39,0,0,0-4.061,1.9V66.67c0,1.421.2,1.76,2.1,1.9v1.015Zm-63.158,0V68.566c1.693-.135,2.1-.406,2.1-2.1V59.224c0-2.166-.406-2.437-2.166-2.5v-.88l3.791-1.218h.474a7.569,7.569,0,0,1,.473,2.572,6.79,6.79,0,0,1,5.077-2.572,3.7,3.7,0,0,1,3.994,3.993v7.853c-.136,1.693.2,1.964,1.828,2.031v1.015h-6.7V68.5c1.9-.067,2.1-.407,2.1-1.9V59.089c0-1.76-.744-2.437-2.166-2.437a5.393,5.393,0,0,0-4.062,1.9V66.67c0,1.421.2,1.76,2.1,1.9v1.015Zm-57.134,0V68.566c1.693-.135,2.1-.406,2.1-2.1V56.651h-1.9V55.7l1.9-.677V52.251c0-2.708,1.963-4.333,4.739-4.333a8.571,8.571,0,0,1,2.911.542V50.9h-1.9c-.135-.948-.542-1.557-1.354-1.557-1.151,0-1.76.744-1.76,2.843v2.843h3.588l-.407,1.625h-3.114v9.815c0,1.624.339,1.964,2.641,2.1v1.015Zm-37.1,0V68.566c1.692-.135,2.1-.406,2.1-2.1V59.224c0-2.166-.407-2.437-2.166-2.5v-.88l3.791-1.218h.473a10.21,10.21,0,0,1,.474,3.384c1.219-2.1,2.5-3.52,4.129-3.52a2.983,2.983,0,0,1,.88.136l-.677,2.911a2.809,2.809,0,0,0-.948-.136c-2.437,0-3.25.948-3.25,3.859v5.212c0,1.693.271,1.964,2.5,2.1v1.015Zm-25.047,0V68.566c1.693-.135,2.1-.406,2.1-2.1V56.651h-1.9V55.7l1.9-.677V52.251c0-2.708,1.9-4.333,4.739-4.333a8.571,8.571,0,0,1,2.911.542V50.9h-1.9c-.135-.948-.541-1.557-1.354-1.557-1.151,0-1.76.744-1.76,2.843v2.843h3.588l-.406,1.625H98.974v9.815c0,1.624.338,1.964,2.64,2.1v1.015Zm136.472-.068V68.5c1.692-.136,2.1-.407,2.1-2.1V59.156c0-2.166-.407-2.437-2.166-2.5v-.88l4.4-1.219h.473V66.4c-.068,1.76.136,2.031,2.031,2.1v1.015Zm-82.858-.067V68.431c1.422-.068,2.03-.407,2.03-1.219a3.441,3.441,0,0,0-.135-.88l-1.083-3.181h-6.837l-.948,3.181a3.324,3.324,0,0,0-.2,1.015c0,.88.677,1.015,2.166,1.084v1.015h-6.363V68.431c1.421-.136,1.9-.542,2.572-2.573L144.464,49H147.1l5.415,16.788c.542,1.693.948,2.5,2.5,2.641v1.015Zm-4.333-12.118-1.286,4.4h5.957l-1.354-4.4c-.813-2.64-1.354-4.806-1.557-5.686h-.136C144.734,52.861,144.329,54.621,143.448,57.328Zm88.544-6.9a1.879,1.879,0,0,1,1.828-1.9,1.837,1.837,0,0,1,1.828,1.9,1.8,1.8,0,0,1-1.828,1.9A1.836,1.836,0,0,1,231.992,50.423ZM47.186,41.217H43.667l.948-3.317c.307-1,.6-2.293.744-2.978h.068c.155.5.311,1.1.464,1.682.114.437.232.888.348,1.3l.948,3.316h0Zm262.858-7.176V24.632h-1.76v-.948l1.963-.677a12.545,12.545,0,0,1,1.422-4.062l1.421-.338a40.662,40.662,0,0,0-.27,4.468h3.52l-.542,1.557h-3.114v9c0,2.3.406,2.843,1.9,2.843a5.463,5.463,0,0,0,1.693-.271l.27,1.083a6.407,6.407,0,0,1-2.911.745C311.4,38.036,310.044,37.021,310.044,34.042Zm-9.545,0V24.632h-1.76v-.948l1.963-.677a12.524,12.524,0,0,1,1.422-4.062l1.421-.338a40.64,40.64,0,0,0-.271,4.468h3.52l-.541,1.557h-3.114v9c0,2.3.406,2.843,1.9,2.843a5.462,5.462,0,0,0,1.692-.271L307,37.291a6.407,6.407,0,0,1-2.911.745C301.853,38.036,300.5,37.021,300.5,34.042Zm-92-6.5c0-6.836,3.521-10.763,8.8-10.763,3.25,0,4.807.609,5.89,1.422v3.316h-2.1c-.541-2.3-1.421-3.316-3.858-3.316-3.385,0-5.551,2.369-5.551,9.274,0,7.108,2.235,9.071,5.89,9.071,2.37,0,3.385-.88,3.859-3.182h1.9v3.114a9.67,9.67,0,0,1-5.755,1.489C211.345,37.9,208.5,33.907,208.5,27.543Zm-36.96,9.139V33.838H173.5c.2,2.031,1.083,2.776,3.182,2.776,1.692,0,3.047-.677,3.047-2.572,0-1.625-.88-2.166-2.572-2.572l-1.76-.406c-2.234-.542-3.791-1.693-3.791-4.13,0-2.775,2.369-4.264,5.213-4.264a9.932,9.932,0,0,1,4.468,1.015v2.64h-1.9a2.538,2.538,0,0,0-2.776-2.369c-1.76,0-2.708.88-2.708,2.3,0,1.219.542,1.9,2.37,2.37l1.76.406c2.776.677,4.062,1.9,4.062,4.062,0,2.978-2.166,4.874-5.686,4.874A8.994,8.994,0,0,1,171.542,36.681Zm160.435-6.5c0-4.807,2.707-7.65,6.363-7.65,3.723,0,5.957,2.573,5.957,7.108v.813H334.82c.068,4.332,1.557,5.686,4.67,5.686a7.955,7.955,0,0,0,3.927-1.286l.609,1.015a8.737,8.737,0,0,1-5.28,2.03C334.481,37.9,331.977,35.057,331.977,30.183Zm2.911-1.219h6.634c0-3.588-.948-5.009-3.181-5.009C336.308,23.955,335.09,25.174,334.887,28.965Zm-17.194,1.219c0-4.807,2.708-7.65,6.363-7.65,3.723,0,5.957,2.573,5.957,7.108v.813h-9.477c.067,4.332,1.557,5.686,4.671,5.686a8.432,8.432,0,0,0,3.927-1.286l.609,1.015a8.74,8.74,0,0,1-5.28,2.03C320.2,37.9,317.693,35.057,317.693,30.183Zm2.843-1.219h6.634c0-3.588-.948-5.009-3.181-5.009C321.958,23.955,320.739,25.174,320.536,28.965Zm-95.178,1.286c0-4.806,2.843-7.649,6.77-7.649,4.4,0,6.9,3.384,6.9,7.853,0,4.67-2.911,7.446-6.837,7.446C228.2,37.9,225.358,35.057,225.358,30.251Zm2.911-.271c0,4.468,1.084,6.5,3.994,6.5,2.572,0,3.858-2.166,3.858-5.957,0-4.536-1.421-6.5-3.993-6.5C229.149,24.023,228.269,26.257,228.269,29.98ZM157.19,37.9a11.349,11.349,0,0,1-.677-2.572,6.208,6.208,0,0,1-4.468,2.5c-2.979.068-5.822-2.03-5.822-7.378,0-4.6,2.3-7.785,6.093-7.785a5.707,5.707,0,0,1,4.061,1.76v-4.2c0-2.166-.473-2.437-2.234-2.5V16.78l4.333-.88h.609V33.432c0,2.166.474,2.437,2.37,2.5v.88L157.665,37.9Zm-8.056-7.784c0,4.535,1.084,6.092,3.385,6.092a5.186,5.186,0,0,0,3.791-2.166V26.054a4.743,4.743,0,0,0-3.587-1.693C150.489,24.361,149.135,25.445,149.135,30.116Zm-17.194.067c0-4.807,2.707-7.65,6.363-7.65,3.723,0,5.957,2.573,5.957,7.108v.813h-9.477c.068,4.332,1.557,5.686,4.67,5.686a8.429,8.429,0,0,0,3.927-1.286l.609,1.015a8.737,8.737,0,0,1-5.28,2.03C134.446,37.9,131.941,35.057,131.941,30.183Zm2.843-1.219h6.634c0-3.588-.948-5.009-3.182-5.009C136.205,23.955,134.986,25.174,134.784,28.965Zm-40.21,7.243V32.552H96.6c.406,2.641,1.286,3.927,4.468,3.927s4.333-1.693,4.333-3.859c-.068-2.5-1.151-3.249-3.858-4.061l-2.031-.609c-2.978-.948-4.6-2.5-4.6-5.348,0-3.385,2.5-5.755,6.634-5.755a9.333,9.333,0,0,1,5.619,1.49v3.114h-1.9c-.338-1.963-1.219-3.317-4.062-3.317-2.37,0-3.791,1.286-3.791,3.452S98.5,24.5,101,25.241l2.1.609c2.843.88,4.942,2.5,4.942,5.686,0,3.927-2.641,6.3-7.379,6.3A10.987,10.987,0,0,1,94.574,36.208ZM282.018,37.7V36.681c1.693-.068,1.9-.406,1.9-1.9V27.272c0-1.76-.473-2.436-1.827-2.436a5.273,5.273,0,0,0-3.521,1.421v8.462h.068c0,1.422.338,1.76,1.76,1.9v1.015h-6.431V36.614c1.692-.067,1.963-.406,1.963-1.9V27.2c0-1.759-.473-2.437-1.828-2.437a5.627,5.627,0,0,0-3.791,1.693v8.258c0,1.422.2,1.76,1.9,1.9v1.015h-6.7V36.614c1.692-.135,2.1-.406,2.1-2.1V27.272c0-2.165-.407-2.436-2.166-2.5v-.88l3.791-1.219h.473a6.5,6.5,0,0,1,.474,2.437c1.354-1.219,2.64-2.37,4.671-2.37a3.323,3.323,0,0,1,3.384,2.3c1.355-1.219,2.708-2.3,4.6-2.3,2.166,0,3.723,1.422,3.723,3.994v7.853c0,1.692.338,1.963,1.9,2.1V37.7Zm-24.844,0V36.681c1.693-.068,1.9-.406,1.9-1.9V27.272c0-1.76-.473-2.436-1.827-2.436a5.273,5.273,0,0,0-3.521,1.421v8.462h.271c0,1.422.338,1.76,1.76,1.9v1.015h-6.431V36.614c1.693-.067,1.9-.406,1.9-1.9V27.2c0-1.759-.473-2.437-1.827-2.437A5.627,5.627,0,0,0,245.6,26.46v8.258c0,1.422.2,1.76,1.9,1.9v1.015h-6.7V36.614c1.693-.135,2.1-.406,2.1-2.1V27.272c0-2.165-.406-2.436-2.166-2.5v-.88l3.791-1.219h.474a6.52,6.52,0,0,1,.473,2.437c1.354-1.219,2.64-2.37,4.671-2.37a3.325,3.325,0,0,1,3.385,2.3c1.354-1.219,2.707-2.3,4.6-2.3,2.166,0,3.723,1.422,3.723,3.994v7.853c0,1.692.338,1.963,1.9,2.1V37.7Zm-73.041,0V36.681c1.692-.135,2.1-.406,2.1-2.1V20.367c0-2.165-.473-2.436-2.234-2.5v-.949l4.13-.879h.473a11.6,11.6,0,0,1,.338,2.911v6.228c1.354-1.354,2.708-2.437,4.942-2.437a3.563,3.563,0,0,1,3.926,3.927v7.852c0,1.692.338,1.963,1.9,2.1v1.015H193V36.614c1.9-.067,2.1-.406,2.1-1.9V27.2c0-1.759-.745-2.437-2.166-2.437a5.392,5.392,0,0,0-4.062,1.9v8.122c0,1.422.2,1.76,2.1,1.9V37.7Zm-60.315,0-2.37-7.65c-.473-1.692-.812-3.114-.948-3.587h-.271c-.067.473-.473,2.1-.879,3.587l-2.166,7.65h-2.166l-3.723-11.643c-.474-1.625-.948-1.9-2.1-2.1V22.94h6.363v1.015c-.948.067-1.692.2-1.692.948a2.193,2.193,0,0,0,.135.813l1.76,5.889c.271.88.609,2.5.744,2.911h.136a25.88,25.88,0,0,1,.744-2.911l2.37-8.664h1.9l2.843,8.664c.338,1.084.609,2.437.744,2.911h.136l.744-2.911,1.49-5.957a3.5,3.5,0,0,0,.135-.744c0-.609-.406-.948-1.692-.948V22.94H131.4v1.015c-1.286.135-1.625.542-2.1,2.1L125.915,37.7Zm166.46-.136V36.546c1.692-.135,2.1-.406,2.1-2.1V27.2c0-2.166-.406-2.436-2.165-2.5v-.88l4.4-1.218h.473V34.448c-.068,1.76.136,2.031,2.031,2.1v1.015Zm-127.4,0V36.546c1.692-.135,2.1-.406,2.1-2.1V27.2c0-2.166-.407-2.436-2.166-2.5v-.88l4.4-1.218h.473V34.448c-.068,1.76.136,2.031,2.031,2.1v1.015Zm128.754-19.09a1.879,1.879,0,0,1,1.828-1.9,1.837,1.837,0,0,1,1.828,1.9,1.879,1.879,0,0,1-1.828,1.9A1.836,1.836,0,0,1,291.631,18.472Zm-127.4,0a1.879,1.879,0,0,1,1.828-1.9,1.9,1.9,0,1,1-1.828,1.9Z" transform="translate(0 0.001)" fill="#006983"/>
</svg>
