<svg xmlns="http://www.w3.org/2000/svg" width="481.852" height="237.992" viewBox="0 0 481.852 237.992">
  <path id="Union_112" data-name="Union 112" d="M359.509,237.992H244.375V122.863H359.509V237.992h0Zm-86.532-95.413V218.2a136.588,136.588,0,0,0,18.141.891c14.974,0,26.771-3.816,34.116-11.035,7.219-7.232,11.035-17.567,11.035-29.887,0-11.841-3.679-21.167-10.94-27.719-6.847-6.379-17.029-9.48-31.129-9.48A144.469,144.469,0,0,0,272.976,142.578Zm208.876,95.3H366.728V122.749H481.852V237.875h0Zm-78.727-95.191v75.855h9.926v-30.8a34.755,34.755,0,0,0,7.992.676c10,0,18.341-3,23.48-8.437,4.012-4.029,6.047-9.559,6.047-16.434,0-6.557-2.425-12.263-6.828-16.07-4.735-4.245-11.993-6.4-21.574-6.4A103.068,103.068,0,0,0,403.125,142.683ZM237.48,237.523H0V0H237.48V237.523h0ZM112.3,179.259a10.436,10.436,0,0,1,3.134.5A70.24,70.24,0,0,0,95.313,194.1l3.812,3.133a60.247,60.247,0,0,1,16.266-14.539c.192-.1.39-.211.581-.316a10.421,10.421,0,0,1,3.488-1.411c7.883,3.844,14.7,10.592,19.759,16.043a30.666,30.666,0,0,0,3.632-3.289,73.435,73.435,0,0,0-20.03-13.887,11.553,11.553,0,0,1,3.27-.389c.217,0,.446,0,.683.01.175-.012.35-.018.523-.018,2.794,0,4.986,1.57,7.106,3.088.625.447,1.271.91,1.922,1.325,6.092,4.627,12.853,7.175,19.036,7.175a22.109,22.109,0,0,0,7.775-1.394,25.692,25.692,0,0,0,11.39-7.978,22.5,22.5,0,0,1-13.013,3.823A24.906,24.906,0,0,1,152.968,184L145.6,181.06a36.52,36.52,0,0,0-16.815-4.123,31.914,31.914,0,0,0-8.022.994,2.153,2.153,0,0,1-1.49.6,5.516,5.516,0,0,1-1.8-.438,5.861,5.861,0,0,0-1.819-.453,27.771,27.771,0,0,0-5.882-.629c-7.657,0-14.616,3.087-21.345,6.073-.927.411-1.885.836-2.824,1.244a25.651,25.651,0,0,1-9.312,1.709,22.6,22.6,0,0,1-12.714-3.619,25.274,25.274,0,0,0,11.164,7.663,21.283,21.283,0,0,0,7.886,1.454A27.649,27.649,0,0,0,98.05,186.6a43.489,43.489,0,0,0,4.133-2.775c3.085-2.245,6.275-4.566,10.12-4.566h0Zm-47.436,1.321a25.894,25.894,0,0,0,8.476,1.331c5.688,0,11.345-1.5,16.816-2.956,1.365-.363,2.655-.706,3.954-1.028a12.078,12.078,0,0,1,1.93-.279,9.388,9.388,0,0,0,2.242-.381c-4.2-.868-9.6-2.363-14.038-6.238-1.268-1.188-2.524-2.4-3.739-3.57-4.316-4.162-8.392-8.093-13.136-11.235a44.058,44.058,0,0,1,3.879,6.8c2.466,4.982,5.017,10.134,11,12.249a8.849,8.849,0,0,0,2.234.694,7.394,7.394,0,0,1,2.422.822,5.375,5.375,0,0,1-.808.059,11.039,11.039,0,0,1-2.466-.37c-.472-.108-.959-.22-1.449-.292a71.089,71.089,0,0,0-10.889-1.229,63.686,63.686,0,0,1-12.208-1.535,22.7,22.7,0,0,1-5.52-2.2,18.433,18.433,0,0,1-4.8-3.922h0A28.284,28.284,0,0,0,64.868,180.581Zm92.307-13.556c-1.268,1.259-2.579,2.561-3.909,3.84-3.705,3.346-8.083,4.855-13.515,6.09v.051l1.965.257c2.664.432,5.419,1.1,8.083,1.747,4.783,1.16,9.729,2.36,14.656,2.36a24.77,24.77,0,0,0,8.873-1.541c5.743-2.022,12.833-7.006,15.728-13.582a17.986,17.986,0,0,1-4.639,4.028,21.9,21.9,0,0,1-5.394,2.3,61.608,61.608,0,0,1-12.034,1.733c-2.535.2-5.157.4-7.648.793a30.573,30.573,0,0,0-3.383.595,22.034,22.034,0,0,1-4.63.653l-.249,0a18.157,18.157,0,0,1,2.694-.959,13.793,13.793,0,0,0,3.67-1.49c4.96-2.477,7-6.954,8.981-11.283a35.559,35.559,0,0,1,4.027-7.259C165.558,158.7,161.485,162.742,157.174,167.025ZM51.11,166.477c4.377,3.062,9.749,3.927,14.944,4.764a61.085,61.085,0,0,1,9.216,1.974,23.146,23.146,0,0,1-6.111-7.7,63.882,63.882,0,0,1-3.483-8.923c-.646-1.937-1.315-3.939-2.09-5.848a58.615,58.615,0,0,0-8.836-13.352c1.737,3.466,2.337,7.472,2.919,11.345.714,4.753,1.452,9.667,4.292,13.623A29.9,29.9,0,0,0,67.7,168.6l.059.054-.094.1a22.27,22.27,0,0,1-5.156-3.52A52.067,52.067,0,0,0,51.8,159.02a58.2,58.2,0,0,1-9.5-5.3,21.191,21.191,0,0,1-7.053-8.615h0C36.554,153.077,42.631,161.265,51.11,166.477ZM103.776,47.361a65.55,65.55,0,0,0-13.769,4.965,60.632,60.632,0,0,0-20.561,16.6A67.008,67.008,0,0,0,62.1,80.043a57.459,57.459,0,0,0-4.691,11.9,66.3,66.3,0,0,0,1.5,39.236,63.348,63.348,0,0,0,24.1,30.893,55.2,55.2,0,0,0,16.749,7.966,68.206,68.206,0,0,0,19.165,2.715,59.216,59.216,0,0,0,25.922-5.607,54.455,54.455,0,0,0,11.883-6.967,66.467,66.467,0,0,0,10.294-9.806,67.474,67.474,0,0,0,8-11.675,55.945,55.945,0,0,0,4.993-12.572c4.184-14.054,2.542-31.521-4.183-44.5a62.543,62.543,0,0,0-23.462-26.337,64.3,64.3,0,0,0-16.052-7.24A62.341,62.341,0,0,0,118.8,45.5,70.379,70.379,0,0,0,103.776,47.361Zm75.115,94.193c-.568.828-1.156,1.685-1.767,2.515-2.426,3.676-3.809,7.889-5.144,11.962a66.81,66.81,0,0,1-3.4,8.9,24.1,24.1,0,0,1-5.9,7.777,68.278,68.278,0,0,1,9.468-2.226c2.344-.435,4.766-.885,7.079-1.5,10.23-3.258,21.675-13.546,23.117-25.123a22.039,22.039,0,0,1-6.938,8.723,62.632,62.632,0,0,1-9.919,5.726c-4.513,2.245-9.179,4.567-13.089,8.458-.163.109-.329.233-.491.353a3.585,3.585,0,0,1-1.794.886,31.76,31.76,0,0,0,6.465-7.758c2.19-3.722,2.809-8.168,3.407-12.469.542-3.892,1.1-7.917,2.827-11.39A45.686,45.686,0,0,0,178.891,141.554ZM29.617,121.061c-.456,5.658.074,10.281,1.577,13.737,3.423,9.625,12.787,15.557,21.05,20.79,1.9,1.206,3.7,2.344,5.419,3.514-.357-.906-.8-1.8-1.227-2.668a24.26,24.26,0,0,1-1.687-4.012,92.449,92.449,0,0,1-1.808-13.33c-.585-6.728-1.189-13.685-3.946-19.647.544,3.616-.194,7.016-.907,10.305a48.859,48.859,0,0,0-1,5.647,22.41,22.41,0,0,0,2.056,12.371,6.856,6.856,0,0,0,.821,1.511,5.491,5.491,0,0,1,.855,1.68,19.631,19.631,0,0,1-3.08-3.916c-.282-.43-.574-.874-.869-1.3a48.924,48.924,0,0,0-7.5-8.8,57.48,57.48,0,0,1-6.447-7.231,17.065,17.065,0,0,1-3.31-8.654h0Zm157.531,1.048c-1.626,4.82-2.014,10.244-2.39,15.488a96.667,96.667,0,0,1-1.153,10.63,28.637,28.637,0,0,1-3.442,9.679v.359c3.05-2.362,6.284-4.429,9.41-6.43,1.021-.653,2.077-1.328,3.117-2.008,11.411-7.782,16.972-18.739,15.258-30.058-.734,7.42-6.376,12.862-11.831,18.125a64.236,64.236,0,0,0-5.824,7.609c-1,1.458-2.038,2.965-3.145,4.414h-.375a22.917,22.917,0,0,0,3.875-11.484,41.309,41.309,0,0,0-1.106-9.322c-.683-3.442-1.389-7-.964-10.8ZM30.191,100.592c-.085.381-.172.775-.262,1.164-.965,5.155-.405,11.215,1.663,18.012,1.187,4.1,4.09,7.564,6.9,10.915a47.122,47.122,0,0,1,5.409,7.369l.477.379c-.45-3.041-.83-6.979.22-10.464.429-1.532.884-3.074,1.324-4.567,1.081-3.666,2.2-7.456,3-11.324.117-.814.252-1.663.382-2.485.571-3.6,1.163-7.318.758-10.644a24.127,24.127,0,0,1-2.375,6.289c-5.044,7.625-9.277,15.893-6.133,24.684l-.023.026c-.064.071-.137.151-.222.151a.156.156,0,0,1-.07-.018,28.92,28.92,0,0,1-1.58-5.845c-.248-1.259-.5-2.561-.86-3.8a50.258,50.258,0,0,0-3.292-8.474,52.323,52.323,0,0,1-3.192-8.1,19.458,19.458,0,0,1-.407-8.994A27.384,27.384,0,0,0,30.191,100.592Zm156.886.563c.728,8.72,3.082,16.756,5.516,24.141,1.47,3.559,1.049,8.2.71,11.928l-.015.17c1.772-2.769,3.891-5.451,5.94-8.046,1.508-1.91,3.069-3.885,4.478-5.88,5.037-9.232,5.71-21.248,1.675-29.9,1.272,6.935-1.389,12.873-3.962,18.615-.3.668-.608,1.358-.905,2.037a50.8,50.8,0,0,0-2.781,9.647c-.334,1.528-.679,3.107-1.082,4.634l-.387.434-.152-.152c.1-.5.229-1.01.348-1.5a15.008,15.008,0,0,0,.625-4.949c.317-5.649-2.465-10.107-5.155-14.418-1.951-3.128-3.969-6.36-4.783-10.019h0ZM40.952,71.928c-.026.02-.051.039-.077.055C35.73,78.521,33.417,84.6,33.593,91.127c-.346,5.108,1.351,9.451,2.992,13.649,1.318,3.371,2.68,6.856,2.975,10.716.866-5.8,4.315-10.624,7.651-15.287a66.5,66.5,0,0,0,5.255-8.158,35.3,35.3,0,0,0,2.914-10.023,13.344,13.344,0,0,1-2.66,3.941c-.4.365-.817.739-1.219,1.1l-.007.006c-4.935,4.445-10.038,9.042-11.091,15.381-.06.333-.11.675-.157,1.005a13.545,13.545,0,0,1-.374,1.936.252.252,0,0,1-.092.02c-.094,0-.13-.079-.163-.149a.246.246,0,0,0-.057-.09l.633-8.511a53.757,53.757,0,0,0-.668-8.248,50.964,50.964,0,0,1-.654-8.629,15.273,15.273,0,0,1,2.365-7.971.222.222,0,0,0-.037,0A.422.422,0,0,0,40.952,71.928ZM183.8,89.23c1.49,3.6,3.968,6.856,6.366,10.008,2.96,3.891,6.021,7.915,7.251,12.616a10.347,10.347,0,0,1,.248,1.082,6.785,6.785,0,0,0,.353,1.356,50.644,50.644,0,0,1,3.184-11.711c4.043-8.585,2.859-20.789-2.754-28.387-.288-.369-.553-.777-.809-1.172a7.057,7.057,0,0,0-2.223-2.47,13.053,13.053,0,0,1,2.141,5.118,31.862,31.862,0,0,1,.523,5.8,82.022,82.022,0,0,0-.289,22.562.248.248,0,0,1-.257.219,19.184,19.184,0,0,1-.489-2.363,11.927,11.927,0,0,0-1.023-3.712c-1.309-3.959-4.587-6.816-7.756-9.579-2.606-2.272-5.3-4.622-6.9-7.576h0A41.855,41.855,0,0,0,183.8,89.23ZM46.273,65.9C41.2,71.213,41.539,79.322,42.316,87.17a23.2,23.2,0,0,1-.085,3.361,21.165,21.165,0,0,0-.08,3.182c1.31-2.681,3.536-5.333,7-8.348,9.272-6.554,13.815-13.045,13.891-19.844-1.5,4.167-5.106,6.713-8.594,9.175a46.246,46.246,0,0,0-4.648,3.583,21.963,21.963,0,0,0-5.142,7.594L44.5,85.74a30.057,30.057,0,0,1,1.23-3.86c.374-1.013.761-2.06,1.047-3.124a54.156,54.156,0,0,0,1.251-5.3,38.529,38.529,0,0,1,1.953-7.261,12.934,12.934,0,0,1,4.644-5.888A15.658,15.658,0,0,0,46.273,65.9ZM178.547,76.475a54.9,54.9,0,0,0,6.677,5.792c3.766,2.927,7.659,5.953,9.905,10.372l.066-.055a38.3,38.3,0,0,1-.311-9.78A36.668,36.668,0,0,0,194.5,72.74c-1.215-5.634-6.322-12.253-12.765-13.577a14.45,14.45,0,0,1,5.343,6.965c.628,2.09,1.157,4.256,1.669,6.35a63.805,63.805,0,0,0,3.793,12.028l-.164.172a18.778,18.778,0,0,1-.9-1.7,10.154,10.154,0,0,0-2.2-3.313,29.507,29.507,0,0,0-7.258-6.2c-3.54-2.408-6.883-4.684-8.617-8.861h0C174.309,69.9,175.9,73.56,178.547,76.475ZM70.385,52.212l-.015.006c-6.065,2.335-12.337,4.748-15.9,10.967a20.392,20.392,0,0,0-2.93,7.1A29.075,29.075,0,0,1,49.805,75.4c1.263-1.178,2.6-2.276,3.891-3.337a45.325,45.325,0,0,0,6.687-6.311c.6-.841,1.21-1.71,1.8-2.55,2.8-4,5.69-8.134,9.527-11.5Q71.051,51.957,70.385,52.212Zm94.107-1.407,5.258,5.324A66.392,66.392,0,0,0,186.9,74.351l-.751-1.766c-1.155-4.693-3.119-10.649-8.109-15.1-2.961-2.66-6.558-4.006-10.037-5.307-1.158-.433-2.356-.881-3.513-1.372ZM292.935,211.136a61.9,61.9,0,0,1-10.03-.473V149.874a57.17,57.17,0,0,1,11.625-1.012c20.983,0,31.266,11.293,31.141,29.641,0,20.667-11.432,32.634-32.468,32.634Zm120-31.039V150.218a49.9,49.9,0,0,1,9.348-.8c10.949,0,18.148,4.874,18.148,15.163,0,10.367-7.2,16.305-19.273,16.305A34.551,34.551,0,0,1,412.93,180.1Zm-292.618-10.3a70.675,70.675,0,0,0,0-9.936,4.621,4.621,0,0,0,1.5.225,13.879,13.879,0,0,0,1.7-.14,14.129,14.129,0,0,1,1.748-.144l4.838-.85a6.113,6.113,0,0,1,2.416,1.391,4.661,4.661,0,0,0,2.65,1.353,2.556,2.556,0,0,0,1.706-.763,4,4,0,0,1,1.4-.965,2.923,2.923,0,0,0,1.717-1.567,4.226,4.226,0,0,0,1.987-1.859l.006-.01a7.005,7.005,0,0,1,1.03-1.283c.652-1.848,2.157-2.7,3.75-3.6l.009-.005a12.2,12.2,0,0,0,2.7-1.868c.428-.387.905-.76,1.367-1.12l.024-.019a10.219,10.219,0,0,0,2.956-3.037l.152.751,6.668,6.363c-11.51,10.449-24.872,16.07-39.715,16.708l-.6.382h0Zm-3.2-.061a16.163,16.163,0,0,0-3.74-.513h-.01a24.479,24.479,0,0,1-2.545-.239c-12.21-1.672-23.558-6.989-33.727-15.8l6.516-6.551.1-.383a48.734,48.734,0,0,0,14.89,9.917,53.91,53.91,0,0,0,17.381,4.013l.984-.258-.328.481v8.582l.478.751,0,0Zm-.086-12.538-.884-.6c-11.2-.606-21.217-4.9-30.633-13.121a1.44,1.44,0,0,1,.176-.011,2.347,2.347,0,0,1,1.423.671,2.347,2.347,0,0,0,1.427.671,1.675,1.675,0,0,0,.49-.077,6.863,6.863,0,0,0,2-.64,5.842,5.842,0,0,1,2.335-.655,3.215,3.215,0,0,1,.51.041l.288,0a2.43,2.43,0,0,0,2.235-.866,1.492,1.492,0,0,0-.453-1.392,2.306,2.306,0,0,1-.462-.8,40.3,40.3,0,0,0,9.566,5.368,34.893,34.893,0,0,0,10.849,2.3l.75-.324v8.359l.39,1.071v0Zm3.284-.214a31.809,31.809,0,0,0,.072-5.2c-.035-.855-.071-1.739-.071-2.612l-.464-.707a1.31,1.31,0,0,1,.718.464,3.371,3.371,0,0,0,.255.244,2.516,2.516,0,0,0,.935.14c.2,0,.4-.011.6-.021l.029,0,.031,0c.2-.01.4-.021.6-.021a1.524,1.524,0,0,1,1.547.725c-.075.162-.164.324-.249.481l0,.009a2.4,2.4,0,0,0-.441,1.783c.521,1.345,1.243,2.731,2.648,2.824a2.192,2.192,0,0,0,1.163.734c.072.025.155.055.236.086-.917.148-1.875.229-2.8.306l-.035,0a20.327,20.327,0,0,0-4.765.772h0Zm-45.664-6.169c-.8-1.084-1.642-2.173-2.457-3.227a64.222,64.222,0,0,1-5.948-8.6A64.894,64.894,0,0,1,58.485,111.2l8.8.062.851-.32a5.041,5.041,0,0,0-.076,1.06c0,.229,0,.464-.018.713l-.059-.09a.158.158,0,0,0-.073.107c0,.056.05.1.106.155s.134.123.119.2a51.081,51.081,0,0,0,1.535,9.621l.441.691a4.791,4.791,0,0,1-.928-1.211,7.268,7.268,0,0,0-.5-.751,4.154,4.154,0,0,0-2.065.762.627.627,0,0,1,.038.526c-.091.158-.311.194-.545.232a1.354,1.354,0,0,0-.476.136,1.553,1.553,0,0,0-.625-.609c-.71.035-1.372.12-1.656.766.07.3-.122.5-.327.7a1.552,1.552,0,0,0-.3.367c-.023.178-.052.359-.083.552l-.005.036c-.209,1.338-.446,2.856.454,3.885a3.8,3.8,0,0,0,1.3,2.656.468.468,0,0,0,.106.012.641.641,0,0,0,.39-.172l.006,0a1.029,1.029,0,0,1,.2-.129,4.168,4.168,0,0,1,.772.847c.409.536.831,1.091,1.495,1.091a1.369,1.369,0,0,0,.3-.035.59.59,0,0,0,.3-.538,1.087,1.087,0,0,1,.071-.31,4.171,4.171,0,0,1,.538.719l0,.006c.378.581.77,1.183,1.527,1.183.043,0,.091,0,.145-.007a2.381,2.381,0,0,1,.267.344l0,0c.181.266.368.542.71.558a1.228,1.228,0,0,1,.3-.042c.517,0,.666.465.824.958l0,.006a1.772,1.772,0,0,0,.719,1.139,3.357,3.357,0,0,1,.618.543l0,0a1.609,1.609,0,0,0,1.1.666,1.239,1.239,0,0,0,.542-.139l.4-.473c.18.133.19.36.2.6a.985.985,0,0,0,.171.634,4.319,4.319,0,0,0,2.664,2.017c.114.133.229.269.344.406l.008.01.051.06a14.658,14.658,0,0,0,2.537,2.567l-.768.319-6.3,6.522h0Zm88.323-.284a63.245,63.245,0,0,0-7.054-6.937,13.38,13.38,0,0,0,2.861-2.988l0,0,.035-.045c.27-.347.548-.7.823-1.032a53.354,53.354,0,0,0,7.094-13.209,50.7,50.7,0,0,0,2.945-14.9l-.309-.855.527.382,9.032-.057.473-.23-.387.758c-.584,14.36-5.9,27.363-15.8,38.645l-.245.476h0Zm-17.906-1.519c-.094-.289.115-.51.317-.724.252-.267.512-.543.218-.958-1.092-1.013-.264-1.928.537-2.812l0,0a4.7,4.7,0,0,0,.986-1.364c-.3-1.554-2.123-2.373-3.187-2.723-.482-.269-.466-.8-.452-1.273,0-.129.008-.243,0-.349.091-.091.181-.179.271-.266a4.35,4.35,0,0,0,1.159-1.526l.212.6,3.891,4.023c0,.988.178,1.726,1.047,2.12a.662.662,0,0,0,.271.053,1.755,1.755,0,0,0,.425-.071l.01,0,.008,0a1.74,1.74,0,0,1,.414-.072.579.579,0,0,1,.174.024h-.23a31.949,31.949,0,0,1-4.419,3.788l-.006,0-.12.091c-.357.271-.728.551-1.088.832l-.439.612v0ZM97.217,136.859a4.494,4.494,0,0,1-.846-.707l-.006-.006a2.488,2.488,0,0,0-1.484-.907,48.362,48.362,0,0,0,6.289-6.453,7.963,7.963,0,0,0,2.838,2.588l.005,0c.375.246.763.5,1.114.763.584.27,1.167.592,1.732.9a10.685,10.685,0,0,0,4.954,1.76,4.938,4.938,0,0,0,1-.1,6.134,6.134,0,0,0-2.375,1.547,4.93,4.93,0,0,0-.24.808v.005c-.164.7-.334,1.417-1.142,1.695.051,1.575,1.289,2.928,2.381,4.12l.118.13c.112.122.22.24.325.359l1.49.7v0C108.105,142.768,102.073,140.9,97.217,136.859Zm56.356,4.612a2.482,2.482,0,0,0-.231-1.676,3.175,3.175,0,0,1-.305-1.581,3.644,3.644,0,0,1-.639-.959l0-.005c-.337-.647-.654-1.258-1.532-1.258h-.038c-.028,0-.054,0-.077,0-.4,0-.575.389-.575.774a1.113,1.113,0,0,0-.012.239.507.507,0,0,1-.094.39l-2.871-2.534a8.715,8.715,0,0,0,2.628-2.8c.266-.374.517-.727.774-1.058a41.538,41.538,0,0,0,5.551-12.091,1.228,1.228,0,0,0,.789.3,1.192,1.192,0,0,0,.659-.2,1.13,1.13,0,0,0,.211-1.453l-1.027-1.133c.042-.654.129-1.3.229-2.022a15.28,15.28,0,0,0,.206-3.668l.7.215c.292,0,.6-.006.971-.006.66,0,1.323.008,2,.016.62.007,1.319.016,2.01.016,1.554,0,2.729-.047,3.808-.151l-.434.5c-.761,11.919-5.034,22.065-12.7,30.157Zm-62.748-6.619v0c0-.012-.008-.026-.012-.043-.036-.139-.111-.428-.332-.428a.384.384,0,0,0-.162.042c-.124-.583.266-.8.679-1.026.432-.239.878-.484.688-1.185l-.319-1.968c-1.328-1.184-1.373-2.977-1.417-4.711a16.219,16.219,0,0,0-.1-1.747,2.36,2.36,0,0,1-.719-2.037,2.78,2.78,0,0,0-.429-1.76,2.835,2.835,0,0,0-1.089-1.957c-.7-.726-1.366-1.412-.876-2.539-.3-.428-.794-1.141-.367-1.8a1.31,1.31,0,0,1,1.029-.339c.462-.022.939-.044,1.151-.587l.247-1.672a.872.872,0,0,1,.435-.1,2.776,2.776,0,0,1,.46.051l.015,0a2.63,2.63,0,0,0,.436.05.612.612,0,0,0,.628-.446,2.564,2.564,0,0,0-.406-2.008c-.291-.6-.565-1.162-.369-1.62a1.468,1.468,0,0,1,.994-.7l.116-.013a7.458,7.458,0,0,1,.841-.065c.775,0,1.22.266,1.4.84l.016.093c.019.108.038.219.059.33a6.246,6.246,0,0,1-.005,3.311.571.571,0,0,1,.349.281,1.022,1.022,0,0,1-.121.734,1.621,1.621,0,0,0-.158.564,4.044,4.044,0,0,0-.388.216l-.01.006a1.83,1.83,0,0,1-.914.355.933.933,0,0,1-.274-.042c-.228-.377-.652-1.077-1.231-1.077a.553.553,0,0,0-.07,0,1.307,1.307,0,0,0-.029,1.235l0,.006a2.291,2.291,0,0,1,.144.884,2.237,2.237,0,0,0-.108.567v.006a1.28,1.28,0,0,1-.215.715,1.141,1.141,0,0,0-.655-.215c-.042,0-.077,0-.111,0-.474.248-.271.711-.123,1.049l.005.014c.021.046.04.09.056.131a5.4,5.4,0,0,1,.479.348,2.022,2.022,0,0,0,1.166.57l.316-.379a4.634,4.634,0,0,1,.216-1.541l0-.015a5.833,5.833,0,0,0,.226-1.256l.914.469A31.592,31.592,0,0,0,97.757,125.3l1.2,1.208a83.467,83.467,0,0,0-8.125,8.285v.055Zm33.983-.974-.05-.02a2.957,2.957,0,0,0-1.084-.272,1.524,1.524,0,0,0-.48.076c-.276-.146-.305-.414-.333-.673-.033-.316-.065-.613-.51-.7a2.164,2.164,0,0,1-.882.163,6.867,6.867,0,0,1-.777-.059l-.013,0a6.723,6.723,0,0,0-.743-.056,1.551,1.551,0,0,0-1.449.779,4.829,4.829,0,0,1-.576.038,3.078,3.078,0,0,1-1.275-.261c-.185-.015-.2-.16-.225-.314a.656.656,0,0,0-.052-.213h.029a1.794,1.794,0,0,0,1.06-.472,1.8,1.8,0,0,1,1.062-.472,1.132,1.132,0,0,1,.2.017,2.874,2.874,0,0,0,.53-.714,1.768,1.768,0,0,1,.915-.923.457.457,0,0,1,0-.383c.077-.113.249-.128.431-.143.225-.02.457-.04.55-.243a1.263,1.263,0,0,1,.769-.39.6.6,0,0,1,.3.081,2.06,2.06,0,0,0,1.225.716,2.117,2.117,0,0,1,1.353.853.333.333,0,0,0,.127.029.2.2,0,0,0,.162-.077.5.5,0,0,0,.078-.382v-.4c.036,0,.067,0,.094,0a1.73,1.73,0,0,1,.925.367l.031.02a1.581,1.581,0,0,0,.833.35,1.1,1.1,0,0,0,.727-.337.775.775,0,0,0,0-.93c-.148-.059-.3-.13-.328-.281a.518.518,0,0,1,.227-.055,1.152,1.152,0,0,1,.669.359l.028.023a1.281,1.281,0,0,0,.761.382.775.775,0,0,0,.385-.112c.168-.14.328-.293.463-.424a2.469,2.469,0,0,1,1.725-.928l.242.277c.15,1.825-1.3,2.948-2.884,3.891a5.084,5.084,0,0,1-.794.224c-.837.191-1.786.406-1.745,1.518a1.088,1.088,0,0,1-.761.318A2.689,2.689,0,0,1,124.808,133.878Zm11.813-.594,0,0a3.525,3.525,0,0,0-1.11-.609,10.065,10.065,0,0,0-1.669-.48l-.026-.006a8.251,8.251,0,0,1-2.034-.645.554.554,0,0,1,.375-.608,29.836,29.836,0,0,1,7.91,1.815,2.264,2.264,0,0,0,1.746-.543,1.69,1.69,0,0,1,.483-1.293,1.771,1.771,0,0,0,.5-1.273,3.194,3.194,0,0,0,.353-1.321,2.455,2.455,0,0,1,.561-1.558,4.494,4.494,0,0,0-.766-3.188.975.975,0,0,0-.557-.171,2.305,2.305,0,0,0-.783.194l-.007,0a3.017,3.017,0,0,1-.625.185,2.038,2.038,0,0,0-.572.97c-.185.5-.359.977-.909.977a1.308,1.308,0,0,1-.336-.049,1.016,1.016,0,0,1-.861.392,1.943,1.943,0,0,1-.506-.072.5.5,0,0,0-.14-.146c-.079-.062-.148-.116-.11-.229a4.079,4.079,0,0,1,1.012-.3c.813-.165,1.653-.336,1.742-1.391a2.572,2.572,0,0,1,1.146-.467,2.313,2.313,0,0,0,1.3-.607c.146-.236.274-.472.385-.681l0-.007a6.089,6.089,0,0,1,.967-1.428c.016-.073.036-.147.055-.218l0-.011a2.178,2.178,0,0,0,.1-.752,3.053,3.053,0,0,1,.125.372,1.243,1.243,0,0,0,.633.925,1.051,1.051,0,0,0,.292.045c.477,0,.742-.393,1-.773.016-.022.032-.046.047-.069l.038-.055a.514.514,0,0,1,.1-.384.207.207,0,0,1,.158-.082.263.263,0,0,1,.173.079,1.546,1.546,0,0,0,1.021.315,5.974,5.974,0,0,0,.835-.08h.006l.011,0a5.984,5.984,0,0,1,.821-.079c.053,0,.1,0,.134,0a8.917,8.917,0,0,1,2.488-.43,27.766,27.766,0,0,1-4.617,9.773c-.307.375-.61.777-.878,1.13a23.662,23.662,0,0,1-1.492,1.84,5.133,5.133,0,0,1-.221-.8l0-.009a3.058,3.058,0,0,0-.669-1.56l-.371.1a7.729,7.729,0,0,1-.56.892l-.01.014a3.231,3.231,0,0,0-.833,2.129,1.592,1.592,0,0,1-1.5.628c-.185,0-.375-.009-.561-.018h-.033c-.183-.009-.37-.018-.552-.018a2.38,2.38,0,0,0-1.154.232,1.687,1.687,0,0,1-.5.078A2.731,2.731,0,0,1,136.621,133.284Zm-21.334-1.746a24.33,24.33,0,0,1-11.4-5.258c.647-.7,1.39-1.411,2.109-2.1l.011-.01a23.163,23.163,0,0,0,3.751-4.191c.15.852,1.008,1.314,1.765,1.722l.071.039c.132.072.257.139.375.209.156.068.309.139.471.213l.152.07a9.157,9.157,0,0,0,3.642,1.1,3.549,3.549,0,0,0,1.382-.271,1.394,1.394,0,0,0-.227.21,1.425,1.425,0,0,1-.2.192c.257.261.167.529.078.789-.1.286-.189.555.144.816.074.238-.063.319-.209.4-.107.063-.219.129-.239.264a1.775,1.775,0,0,1,.164.733c.039.473.076.921.66,1.033a.515.515,0,0,1,.041.525.509.509,0,0,1-.417.3,3.485,3.485,0,0,0-.647-.068,1.14,1.14,0,0,0-1.157.618,2.844,2.844,0,0,0-.238,1.509v.012a4.364,4.364,0,0,1-.078,1.134h0Zm12.856-5.16a.331.331,0,0,1-.208-.18c-.06-.158.049-.365.137-.532l0-.007c.022-.04.049-.09.068-.133.086-.069.169-.139.253-.209a2.722,2.722,0,0,1,1.792-.86,2.352,2.352,0,0,1,.373.031c-.042.689-.644.947-1.282,1.219l-.005,0a3.317,3.317,0,0,0-1.13.668h0ZM73.287,124a14.1,14.1,0,0,0-.622-3.894,21.386,21.386,0,0,1-.573-2.711l-.691-5.828-.388-.54a30.588,30.588,0,0,0,4.273.239c.485,0,.983-.005,1.464-.01l.178,0c.612-.006,1.121-.012,1.634-.012.49,0,.886,0,1.247.013l.695-.324c-.173.935-.452,3.257.715,4.648a3.841,3.841,0,0,1-.3-.392c-.319-.45-.757-1.066-1.355-1.066h-.033a2.317,2.317,0,0,0-1.67,1.148,2.29,2.29,0,0,1-1.689,1.145,5.75,5.75,0,0,0-1.738,3.808c-.022.122-.044.243-.067.365.3.32.163.636.013.97a1.009,1.009,0,0,0-.1.924c-.566.061-.669.5-.769.917a1.715,1.715,0,0,1-.221.6l0,0Zm28.172,0a10.037,10.037,0,0,0-1.184-1.969l0-.005a10.1,10.1,0,0,1-1.225-2.05,21.713,21.713,0,0,1-1.162-2.625,21.871,21.871,0,0,0-1.1-2.515,1.82,1.82,0,0,0,1.341.476c.741.065,1.44.126,1.44,1.191a.411.411,0,0,0,.248.063c.035,0,.073,0,.116,0s.067,0,.1,0h.008c.161-.175.23-.246.333-.246a.637.637,0,0,1,.269.1.9.9,0,0,0,.276.265c.135.1.274.2.269.316,0,.084-.079.171-.233.266a2.107,2.107,0,0,0,1.531,1.426.524.524,0,0,0,.5.466.454.454,0,0,0,.249-.076c.157-.212.032-.487-.089-.753-.1-.229-.2-.446-.131-.615a.427.427,0,0,1,.276-.218,2,2,0,0,1,.38,1.274,3.078,3.078,0,0,0,.155.905,1.58,1.58,0,0,1,.309,1.23c-.311.38-.675.749-1.027,1.106a9.069,9.069,0,0,0-1.636,2v0Zm31.728-1.869-.007-.017c-.139-.328-.3-.7-.788-.7a1.221,1.221,0,0,0-.174.013,2.449,2.449,0,0,1-.515-1.5v-.006l.035-.041c.2-.234.373-.436.617-.436a.662.662,0,0,1,.324.1c-.014.027-.03.057-.052.094a.459.459,0,0,0-.1.4,3.789,3.789,0,0,0,.689.456l.006,0c.478.27.93.525,1.048,1.161a.773.773,0,0,0,.029.515c.074.262.143.509-.248.626a1.086,1.086,0,0,1-.132.009C133.477,122.817,133.336,122.486,133.187,122.135Zm-20.559-4.2a4.117,4.117,0,0,1,1.622-.316c1.049-.066,2.041-.128,2.317-1.369a1.061,1.061,0,0,0,.336-1.194,4.486,4.486,0,0,0,.92-1.595c.067-.166.141-.352.221-.53a.842.842,0,0,1-.231-.99c.023-.1.048-.2.067-.315a2.789,2.789,0,0,0-2.148-.811,11.344,11.344,0,0,0-1.319.106l-.024,0h-.007c-.4.048-.806.1-1.2.107-.544.309-.506.762-.466,1.243a1.314,1.314,0,0,1-.229,1.093,1.921,1.921,0,0,0-1.453,1.17l0,.005a3.559,3.559,0,0,1-.739.946,1.644,1.644,0,0,1-.852-1.427h.165a.459.459,0,0,0,.309.547,1.47,1.47,0,0,0,.213.018c.612,0,.695-.532.775-1.047v-.005a2.092,2.092,0,0,1,.206-.743,2.546,2.546,0,0,1,.529-.8c.314-.376.639-.765.554-1.085-.049-.182-.222-.327-.532-.442a1.1,1.1,0,0,1,0-.344v-.005c.022-.233.042-.454-.23-.58a2.745,2.745,0,0,1-.353.117c-.362.1-.772.221-.864.66.051-.367.07-.751.088-1.123a5.6,5.6,0,0,1,.381-2.15c-.273-.674.116-1.085.492-1.483a2.491,2.491,0,0,0,.491-.645c.045,0,.086.007.124.007.556,0,.717-.454.873-.894l0-.006a2.059,2.059,0,0,1,.3-.619l.36-.106c1.371-.4,2.787-.819,3.652-2.265a3.465,3.465,0,0,1-.26-1.12V99.94a2.331,2.331,0,0,0-.5-1.443l.006,0a5.032,5.032,0,0,1,1.439-.305,1.06,1.06,0,0,1,.831.307l.527.281-.045,0h-.043a3.707,3.707,0,0,1-.575-.062l-.014,0-.012,0a3.711,3.711,0,0,0-.595-.067,1.021,1.021,0,0,0-.7.236c-.345.247-.183.663-.052,1l0,.01c.018.046.034.088.049.129a2.674,2.674,0,0,1,1.026.895c.361.441.7.857,1.244.857a1.479,1.479,0,0,0,.64-.166l.069.014c.6.115,1.356.258,1.571.967a2.01,2.01,0,0,1,.842.82c.3.429.578.834,1.1.834a1.219,1.219,0,0,0,.337-.052c0,.057-.011.117-.018.184-.061.6-.154,1.518.5,1.946a1.613,1.613,0,0,1-.393.548l0,0a1.215,1.215,0,0,0-.458.908.634.634,0,0,0-.137.75c.795.087,1.031.727,1.261,1.345l0,.012a3.479,3.479,0,0,0,.4.834,2.126,2.126,0,0,0,.848,2.371,8.278,8.278,0,0,1-1.009,2.832l-.053.106a1.773,1.773,0,0,1-.8.154,7.051,7.051,0,0,1-.748-.054h-.006l-.026,0a6.785,6.785,0,0,0-.7-.051c-.584,0-1.211.149-1.43,1.26a2.217,2.217,0,0,0-.419,1.166c-.112.664-.219,1.291-1.042,1.329-.307.022-.618.032-.924.032A9.779,9.779,0,0,1,112.628,117.934Zm-7.124,1.509h0l-.1-.062a4.526,4.526,0,0,0,1.305-2.05l1.077.538a2.62,2.62,0,0,0-1.588.957,5.973,5.973,0,0,1-.7.617Zm-21.2-1.677a10.126,10.126,0,0,0-.163-3.891v-.005l0-.018a16.845,16.845,0,0,1-.292-2.283l-.449-.757a2.425,2.425,0,0,0,1.5.47,7.874,7.874,0,0,0,1.33-.157h.006l.116-.02.07-.013c-1,.328-1.119,1.211-1.24,2.145v.005a4.39,4.39,0,0,1-.349,1.428c-.039.284.154.466.34.642s.382.362.336.647a2.135,2.135,0,0,0-.931,1.231,4.778,4.778,0,0,1-.274.577Zm68.522-.508c-.1-.2-.2-.4-.3-.622l0-.009a4.845,4.845,0,0,0-1.926-2.5,1.607,1.607,0,0,1-.706-1.326,1.783,1.783,0,0,0-.652-1.33l-.967-.973a8.26,8.26,0,0,0,3.3.53c.676,0,1.362-.036,1.967-.068l.481-.024a15.743,15.743,0,0,0-.52,2.937l0,.016a18.726,18.726,0,0,1-.388,2.453,2.7,2.7,0,0,0-.076.313l0,.013a1.631,1.631,0,0,1-.2.59v0Zm329.026-1.579H366.728V.546H481.852V115.68h0ZM404.462,31.9h0c3.743,8.231,38.315,64.108,38.664,64.671h10.039V19.688H443.83c0,.522.223,53.544,1.125,63.772l-.353.1c-3.5-7.89-37.848-63.316-38.194-63.875H395.45V96.571h9.355c0-.531-.122-54.948-.7-64.563l.351-.109ZM359.626,115.68H244.5V.546H359.626V115.68h0ZM273.7,64.694c0,27.152,15.014,32.852,27.608,32.852,18.754,0,29.083-11.79,29.083-33.2V19.409H320.352V65.03c0,8.159-1.723,14.4-5.119,18.553-3.186,3.893-7.759,5.868-13.592,5.868a17.55,17.55,0,0,1-7.127-1.409,15,15,0,0,1-5.67-4.384c-3.382-4.206-5.1-10.472-5.1-18.628V19.409H273.7ZM103.74,112.015h0c-.07-.328.178-.427.442-.532.237-.094.481-.193.567-.452a2.247,2.247,0,0,1,.577-1.743c.113-.164.215-.313.306-.467a.631.631,0,0,1,.48-.175,1.469,1.469,0,0,1,.536.113,1.11,1.11,0,0,0,.713.4.637.637,0,0,0,.162-.022l.336-.539a2.046,2.046,0,0,1,.632,1.217c.175.616.341,1.2.865,1.2a1.537,1.537,0,0,0,.777-.29c.02-.088.039-.184.055-.283a1.285,1.285,0,0,1-.494,1.512h-.258c.115-.394-.227-.641-.441-.753a2.881,2.881,0,0,0-.864.211l-.005,0a2.61,2.61,0,0,1-.871.2,1.267,1.267,0,0,1-.321-.04,17.491,17.491,0,0,1-3.19.445Zm-23.831-4.5-8.676.162c.854-10.486,3.815-19.075,9.05-26.257l3.423-4.352.046-.593a64.161,64.161,0,0,0,6.683,6.672,37.2,37.2,0,0,0-7.114,11.021,41.53,41.53,0,0,0-2.972,12.753,1.483,1.483,0,0,1,.068.291l0,.019a.783.783,0,0,0,.3.6v0Zm3.633.314a9.027,9.027,0,0,0,.52-2.8l0-.017a13.567,13.567,0,0,1,.239-1.892,37.2,37.2,0,0,1,8.515-17.539c.407.4.808.8,1.233,1.231l.01.01.013.013.007.007A57.33,57.33,0,0,0,99.811,92.1c-.873.032-1.338.691-1.788,1.327-.465.661-.947,1.345-1.883,1.345h-.063a6.858,6.858,0,0,0-2.125,2.2,4.119,4.119,0,0,1-.9.391,2.711,2.711,0,0,0-1.47.914,1.115,1.115,0,0,0,.084.348c.089.255.181.518-.146.695a1.72,1.72,0,0,1-1.185.323c-.621.02-1.207.039-1.4.81a2.994,2.994,0,0,1-.706,1.392,2.613,2.613,0,0,0-.728,1.741c-.752.506-.636,1.464-.544,2.236l0,.041a1.181,1.181,0,0,1,.165.826c-.014.378-.03.77.374.983l-.021,0a16.827,16.827,0,0,0-2.062-.17,4.467,4.467,0,0,0-1.872.331h0Zm-15.35-.054c-1.566-.129-3.208-.194-4.882-.194s-3.312.066-4.882.194a18.468,18.468,0,0,0,.261-2.966,18.635,18.635,0,0,1,.238-2.83c1.575-12.736,7.025-24.364,16.2-34.559l.214.86c.86.838,1.726,1.707,2.562,2.549l.071.071.054.055c1.276,1.282,2.48,2.492,3.684,3.618a12.851,12.851,0,0,0-2.906,3.14c-.4.544-.854,1.16-1.332,1.707a51.375,51.375,0,0,0-9.5,27.113l.215,1.242h0Zm101.246-.1.24-.369a45.643,45.643,0,0,0-1.441-10.231,57.045,57.045,0,0,0-3.364-9.428c-.058-1.705-1.13-3.085-2.168-4.418l-.007-.009a14.349,14.349,0,0,1-1.683-2.507,9.414,9.414,0,0,1-2.2-2.381,8.315,8.315,0,0,0-2.727-2.714,3.446,3.446,0,0,1-.383-.535l-.013-.022c-.232-.374-.473-.762-.919-.865l1.09-.221c.511-.528,1.04-1.058,1.553-1.571l.08-.08a49.855,49.855,0,0,0,4.663-5.118c10.053,11.33,15.5,23.359,16.641,36.773a8.881,8.881,0,0,1,.073,1.107,3.99,3.99,0,0,0,.439,2.146l-9.121.168a1.3,1.3,0,0,1-.745.275h0Zm-12.163-.158h0c-.014-.291-.023-.586-.032-.871v-.035a7.646,7.646,0,0,0-.94-4.249,6.348,6.348,0,0,0,.531-3.258c-.06-.15-.148-.224-.267-.224a.835.835,0,0,0-.363.135l-.019.01a.92.92,0,0,1-.17.079,5.318,5.318,0,0,0-1.231,2.3l-.011.032a10.137,10.137,0,0,1-.439,1.147,5.252,5.252,0,0,0-.48,4.5l.387.375-3.547-.067c.423-.263.258-.653.084-1.066-.185-.439-.393-.936.049-1.374l1.621-.312a6.1,6.1,0,0,1,.769-1.228,3.541,3.541,0,0,0,.955-2.19c.964-1.166,1.236-2.18.832-3.1a3.366,3.366,0,0,1,.083-2.3c.269-1,.524-1.94-.364-2.864a.944.944,0,0,0-.15-.822.714.714,0,0,0-.58-.324h-.031a2.624,2.624,0,0,0-.39-.076c-.376-.054-.7-.1-.7-.616a3.292,3.292,0,0,1,.32-.373c.312-.33.667-.706.551-1.213a.6.6,0,0,0-.506-.232,2.244,2.244,0,0,0-.461.068,2.194,2.194,0,0,1-.457.067h-.045a1.429,1.429,0,0,1,.283-.851,1.277,1.277,0,0,0,.268-.906.928.928,0,0,0-.489-.52.9.9,0,0,0-.171-.016,1.6,1.6,0,0,0-.819.314l-.012.007a1.536,1.536,0,0,1-.787.311.858.858,0,0,1-.372-.088,1.2,1.2,0,0,1-.48-.751.713.713,0,0,1,.152-.539l-1.9-2.332a.328.328,0,0,0-.266-.088l-.1,0-.1,0c-.167,0-.281-.041-.288-.241a3.675,3.675,0,0,0-1.114-2.47,4.322,4.322,0,0,1-1.159-2.307,1.657,1.657,0,0,1-.433-1.1,1.478,1.478,0,0,0-.617-1.245l-.07-.051A2.258,2.258,0,0,0,142.531,76a1.2,1.2,0,0,0-.442.086,22.107,22.107,0,0,0-2.777-3.25.582.582,0,0,0-.158-.023.692.692,0,0,0-.532.3,2.4,2.4,0,0,0,.551,1.032l0,.005a1.984,1.984,0,0,1,.57,1.337.663.663,0,0,0-.1-.01.354.354,0,0,0-.285.135,4.218,4.218,0,0,0,1.3,2.115l.012.013.005.005.136.148c-4.461-3.457-10.027-5.693-17.016-6.832a9.294,9.294,0,0,1-1.242-.145,8.69,8.69,0,0,0-1.361-.147,3.111,3.111,0,0,0-1.038.163,50,50,0,0,0,.155-5.683c-.01-.986-.022-2.105,0-3.154l-.305-.59a5.1,5.1,0,0,0,2.418.449,11.04,11.04,0,0,1,1.371.086,51.331,51.331,0,0,1,15.352,4.4,5.929,5.929,0,0,0,.987,1.054l.02.018a3.29,3.29,0,0,1,1.328,1.964c-.341.912.2,1.382.727,1.838.585.507,1.137.985.352,2.021a1.32,1.32,0,0,0,.368,1.01l.007.01a2.423,2.423,0,0,1,.28.442,2.1,2.1,0,0,1,.1.634c.022.409.044.83.45,1.041a1.2,1.2,0,0,0,.251.027,1.83,1.83,0,0,0,1.081-.479l.013-.009,0,0a1.765,1.765,0,0,1,1.031-.467,1.134,1.134,0,0,1,.386.071c1.223.89,1.793,2.319,1.793,4.5a3.11,3.11,0,0,0,1.993,2.125,1.925,1.925,0,0,1,.563-.1c.584,0,.715.437.867.942a1.634,1.634,0,0,0,.843,1.209,3.387,3.387,0,0,1,1.674.94,3.064,3.064,0,0,0,1.941.966,1.972,1.972,0,0,0,.2-.01,11.586,11.586,0,0,1,2,2.163l0,.005a15.038,15.038,0,0,0,1.467,1.7.587.587,0,0,0,.379.629,1.305,1.305,0,0,0,.322.04,2.18,2.18,0,0,0,.83-.212,2.366,2.366,0,0,1,.746-.208,45.14,45.14,0,0,1,4.121,16.387l.281.6c-.416,0-.884-.006-1.433-.006-2.776,0-5.342.074-7.847.226Zm-7.059-4.175a1.436,1.436,0,0,1,.242-1.352l0-.005a1.453,1.453,0,0,0,.278-1.2,2.728,2.728,0,0,1,.291-.188l.022-.014c.273-.16.555-.327.625-.661-.031-.473-.352-.66-.69-.858a1.3,1.3,0,0,1-.77-.884,1.462,1.462,0,0,0-1.03-.532,3.274,3.274,0,0,1-.479-.124.75.75,0,0,0-.326-.075,1.806,1.806,0,0,0-1.039.53l-.043.036-.069.059c-.264.224-.513.436-.713.436-.234,0-.383-.293-.47-.923a.912.912,0,0,0,.324-1.207,3.014,3.014,0,0,1-1.069-1.23l-.008-.014a3.021,3.021,0,0,0-1.212-1.338h-.072a9.689,9.689,0,0,1-1.762-.212l-.015,0-.023,0a9.639,9.639,0,0,0-1.714-.209,3.944,3.944,0,0,0-.9.1c-.183-.041-.367-.1-.563-.158l-.022-.007a4.292,4.292,0,0,0-1.194-.247,1.268,1.268,0,0,0-1.092.569,4.746,4.746,0,0,1-.313,1.2l0,.006a5.542,5.542,0,0,0-.289,1.012,2.017,2.017,0,0,1-.859-.91c1.911-2.139,4.042-4.31,6.1-6.41l.043-.044c.942-.959,1.862-1.9,2.749-2.816l.153-.392c.33.408.68.824,1.02,1.227l.014.016.014.015a25.619,25.619,0,0,1,3.186,4.371,2.036,2.036,0,0,1-.458,1.4c-.266.439-.517.854-.393,1.226.087.257.348.468.8.647a3.189,3.189,0,0,1,1.375.842,3.175,3.175,0,0,0,1.348.83,13.87,13.87,0,0,1,1.526,3.947l0,.005c.066.244.141.515.23.829a4.48,4.48,0,0,0-.644,1.121c-.37.8-.752,1.635-1.723,1.635A2.129,2.129,0,0,1,150.217,103.34ZM126.3,98.562l-.087-.092a3.622,3.622,0,0,0-2.014-1.33,1.982,1.982,0,0,0-.593.308,1.369,1.369,0,0,1-.744.315.864.864,0,0,1-.421-.119,6.326,6.326,0,0,1,1.727-1.194,4.831,4.831,0,0,0,2.292-1.973,6.068,6.068,0,0,0,.387-2.527,1.288,1.288,0,0,0-.845-.522.551.551,0,0,0-.366.143,3.636,3.636,0,0,1-1.347,1.158l-.005,0a3.952,3.952,0,0,0-1.409,1.205l-2.262-.75a16.589,16.589,0,0,1-.142-3v-.009a11.227,11.227,0,0,0-.311-3.55,11.77,11.77,0,0,0,2.29.5l.032,0c.489.073.994.149,1.481.264a31.216,31.216,0,0,1,9.016,4.108,4.971,4.971,0,0,0-1.643,1.275c-.085.086-.168.17-.247.248-.021.336.2.416.426.5a.812.812,0,0,1,.419.26l.6-.223a4.5,4.5,0,0,1-2.371,2.2c-1.061.577-2.063,1.122-2.251,2.513-.085.032-.169.068-.258.1l-.028.012a2.388,2.388,0,0,1-.908.252A1.026,1.026,0,0,1,126.3,98.562ZM110.436,96.6a.982.982,0,0,0-.865-.47,1.5,1.5,0,0,0-.806.252c-.32,0-.525-.275-.724-.54-.168-.227-.328-.442-.539-.442a.606.606,0,0,0-.4.224.808.808,0,0,0-.149.3c-.059.175-.115.341-.326.341a.7.7,0,0,1-.229-.047.642.642,0,0,0-.313-.258,1.045,1.045,0,0,1-.2-.121c-.013-.209.143-.311.294-.411.193-.126.376-.246.218-.562a2.335,2.335,0,0,0-1.4-.976,3.149,3.149,0,0,1-1.174-.645h-.684c3.325-3.525,7.741-5.606,13.5-6.363-.006.216-.014.436-.021.656v.006a18.131,18.131,0,0,0,.5,6.248.946.946,0,0,0-.787-.4,2.929,2.929,0,0,0-.791.156l-.015,0-.008,0a3.069,3.069,0,0,1-.823.158,1.145,1.145,0,0,1-.446-.085.856.856,0,0,1,.014-.559c.062-.249.121-.485-.174-.644a2.254,2.254,0,0,0-1.192,1.784,3.271,3.271,0,0,1-.706,1.54c-.092.478-.5.531-.935.588a1.534,1.534,0,0,0-.814.259h0Zm25.141-6.932L135.351,89a27.834,27.834,0,0,0-14.2-5.789l-.832.16.067-8.57-.32-.691.584.087a52.379,52.379,0,0,1,9.619,2.054,37.444,37.444,0,0,1,11.38,6.585l.762.311-1.595.923c-.643.728-1.372,1.441-2.076,2.13l-.025.025a25.794,25.794,0,0,0-3.132,3.444v0ZM101.834,89.6c-.842-.742-1.652-1.571-2.51-2.45l-.006-.006a30.315,30.315,0,0,0-4.225-3.824c6.548-5.413,13.653-8.429,21.117-8.965l.532-.312a43.156,43.156,0,0,0,0,9.328,4.254,4.254,0,0,0-.94-.1,9.879,9.879,0,0,0-2.228.343l-.032.007a13.064,13.064,0,0,1-1.57.3,29.467,29.467,0,0,0-9.66,4.991c-.147.241-.3.446-.476.69h0ZM92.66,80.934l-.222-.6c-.722-.665-1.455-1.426-2.1-2.1a24.481,24.481,0,0,0-4.288-3.813,29.356,29.356,0,0,0,3.361-2.469l.013-.01c.782-.633,1.591-1.287,2.416-1.858a49.014,49.014,0,0,1,24.735-8.27,48.3,48.3,0,0,0-.015,7.263v.005l.009.186c.026.551.053,1.12.073,1.674a5.3,5.3,0,0,0-1.141-.115,13.9,13.9,0,0,0-2.335.268c-.493.085-1,.172-1.5.222a38.025,38.025,0,0,0-18.994,9.617h0ZM84.15,72.194l-.54-.581a48.154,48.154,0,0,0-6.466-6.148h-.27a20.269,20.269,0,0,0,3.088-2.427,25.885,25.885,0,0,1,2.521-2.073A61.669,61.669,0,0,1,116.522,48.91l-.262.879.1,7.6.276.754a50.214,50.214,0,0,0-17.324,3.863A53.11,53.11,0,0,0,84.3,71.757l-.151.436v0Zm69.809-.969a1.89,1.89,0,0,0-.675-.876l-.008-.007a2.507,2.507,0,0,1-.614-.7c-.179-1.683-1.816-3.361-3.359-4.278a2.26,2.26,0,0,1-1.2-.832,1.814,1.814,0,0,0-1.3-.79,1.544,1.544,0,0,0-.54.106,2.157,2.157,0,0,0-1.452-.531,6.231,6.231,0,0,0-2.585.831l-.042.021v.151a47.233,47.233,0,0,0-19.976-6.07.909.909,0,0,0-.392.113.977.977,0,0,1-.421.121.717.717,0,0,1-.1-.007c.316-.211.237-.772.173-1.222-.013-.1-.024-.175-.032-.247-.115-.194-.358-.518-.691-.518a.577.577,0,0,0-.3.088,1.239,1.239,0,0,0-.289.62,41.627,41.627,0,0,0-.1-8.6,15.574,15.574,0,0,0,3.651.515,23.356,23.356,0,0,1,2.513.248,59.24,59.24,0,0,1,33.582,15.879l-1.058.449c-.46.489-.943.959-1.411,1.415l-.043.042a14.755,14.755,0,0,0-3.334,4.083v0Z" fill="#0063ac"/>
</svg>
