<svg xmlns="http://www.w3.org/2000/svg" width="600.1" height="88.101" viewBox="0 0 600.1 88.101">
  <path id="Union_101" data-name="Union 101" d="M54.4,78.2c-2.7,1.2-5.7,4.2-9,9.9a27.21,27.21,0,0,1-3-3.3c3.6-3.6,6.6-6,9.6-7.5-4.077-.7-7.747,1.8-11.6,4.295-6.071,3.934-12.6,7.869-21.9-.695l.6-.9c8.059,3.318,13.87.894,19.436-1.531,5-2.179,9.806-4.358,15.863-2.37,5.944-1.934,10.732.227,15.736,2.389C75.74,80.907,81.618,83.327,89.7,80l.6.9c-9.36,8.563-15.875,4.629-21.927.695C64.532,79.1,60.877,76.6,56.8,77.3c3,1.5,6,3.9,9.6,7.5a27.153,27.153,0,0,1-3,3.3C60.1,82.4,57.1,79.4,54.4,78.2Zm79.9-13.8V2h23.3V62.6c0,6.9,4.8,10.8,17.3,10.8s17.6-3.9,17.6-10.8V2h23V64.4c0,12.5-9.3,23.6-40.6,23.6S134.3,76.9,134.3,64.4Zm209.4,1V22.1C343.7,8.4,355,0,383.7,0S424.1,8.3,424,22.1V65.4c0,14-11.6,22.1-40.3,22.1C355.1,87.5,343.7,79.4,343.7,65.4Zm14.3-43V65.1c0,10.1,8.4,12.8,25.7,12.8,17.6,0,26-2.6,26-12.8V22.4c0-10.1-8.4-12.5-26-12.5C366.4,9.9,358,12.2,358,22.4ZM532.5,82.7l2.4-8.7a120.268,120.268,0,0,0,29.3,3.3c17.6,0,21.5-3.3,21.5-12.8,0-11.4-.3-12.5-23-16.4-26.9-4.5-30.2-8.7-30.2-26C532.5,7.5,540.6.6,568.1.6a143.977,143.977,0,0,1,28.1,2.7L595,12.6a156.589,156.589,0,0,0-26.6-2.4c-18.2,0-21.5,2.7-21.5,12.2,0,11.7,0,12.2,22.1,16.4,29.6,5.7,31.1,9.3,31.1,25.4-.1,14.6-5.7,23-36.5,23A106.823,106.823,0,0,1,532.5,82.7ZM292.6,85.4,257.3,28.6V85.4H235.5V2h28.7l35.2,59.5V2h21.9V85.4Zm150.9-.1V2h40.3c23.9,0,32.3,7.8,32.3,20.6V34.8c0,12.8-8.4,20.6-32.3,20.6h-26V85.3ZM457.8,46h25.4c13.7,0,19.1-2.7,19.1-12.5V24.2c0-9-5.3-12.6-19.1-12.6H457.8ZM68.5,75.2a1.483,1.483,0,0,0-.3-.9c12.2.6,10.7-8.6,20.6-14.6a4.327,4.327,0,0,0,.9.6C87,65,87.3,67.7,82.2,73.4l.6.9C90,69.9,94.5,71.7,102,63.8a3.729,3.729,0,0,0,.9.6C96.181,75.77,88.7,79.325,81.907,79.325,76.869,79.325,72.2,77.371,68.5,75.2ZM6.1,64.4a3.729,3.729,0,0,0,.9-.6c7.4,7.8,11.9,6,19.1,10.5l.6-.9c-5.1-5.6-4.8-8.3-7.5-13.1a4.327,4.327,0,0,0,.9-.6c9.8,5.9,8.3,15.2,20.6,14.6a1.483,1.483,0,0,0-.3.9c-3.7,2.172-8.368,4.126-13.4,4.125C20.215,79.324,12.761,75.769,6.1,64.4Zm11.8-28A36.5,36.5,0,1,1,54.4,73.1,36.618,36.618,0,0,1,17.9,36.4ZM55.6,63.3v7.2a34.771,34.771,0,0,0,22.1-9l-5.4-5.1q-.806.715-1.67,1.374L70.3,58.3l.9.6-3,5.7-3,2.1h-.9l-4.769-3.875A26.372,26.372,0,0,1,55.6,63.3ZM31.1,61.5a34.771,34.771,0,0,0,22.1,9V63.3a27.358,27.358,0,0,1-16.7-6.9Zm24.6-.6a23.019,23.019,0,0,0,2.976-.357L58.9,59.2l-2.1.3-1.1-.576Zm-2.4,0V57.666L50.5,56.2l-.9-2.1.528-1.231A18.618,18.618,0,0,1,43.4,49.5l-3.153,3.034L42.7,55.6l-.6.6-1.8-.3-.333.19A25.145,25.145,0,0,0,53.3,60.9Zm25.9-1.2a33.63,33.63,0,0,0,9.3-21.8H81a26.63,26.63,0,0,1-5.387,14.914l.286.287.6,2.1-.6,1.2Zm-49.5,0,3.861-3.861L31.3,54.4l-.9-1.8-2.7-1.5-1.2-1.8-.6.9-2.1-1.5-.6-2.4.6-2.1h.6l.6.6.3-.3.3-.6.9-.3,2.66,1.33A27.32,27.32,0,0,1,27.9,37.9H20.4A33.137,33.137,0,0,0,29.7,59.7Zm40.055-4.172q.586-.45,1.145-.929l-1.3-1.231-1.1.731v1.2ZM72.4,52.8a22.259,22.259,0,0,0,6.3-14.9H72.6l1,1.5.9.9.9,1.8-3.3.9-.6-.3-.3.9-.6.3-.387-.774a17.416,17.416,0,0,1-1.025,2.061L70,46l-1.176,3.294.683.67L69.7,49l.6-.3.3,2.1-.029.206Zm-6.3-1.1,1.428-.285L65.5,49.5q-.65.505-1.346.962Zm-21-3.9a14.859,14.859,0,0,0,7.117,3.17l.983-.59V43.9a9.392,9.392,0,0,1-3-1.5Zm12.3,2.1.526.79A17.346,17.346,0,0,0,63.2,48.36l.2-.261-.6-.9-1.5.9-.6-.6-.6.6v.3l-.9.3-2.1-.9-1.5.954V50.3l.6-.4Zm-17.773-.127L41.6,47.8a17.294,17.294,0,0,1-4.122-9.167L36.7,39.1l.3,2.1,1.8,4.2-.3,2.4ZM61.3,46.3l.72-.48L61,44.8l-.6.3-.3,1.2ZM43.4,46l3.208-3.208L45.1,41.5l.3-.6-5.223-.87A14.51,14.51,0,0,0,43.4,46Zm20.9-1.2.6-.9-.3-.9-.9-.9-.9.6.2.8Zm-28.5-3-.3-3,.622-.8H30.2a25.691,25.691,0,0,0,.32,2.9l1.68-1.2.9-.3Zm18.6-.3a4.921,4.921,0,0,0,4.686-4.014L58,36.4l.9-1.2-.6-.6V34h-.9l-1.5-1.8-.3.6-.892-1.189q-.153-.01-.308-.011a4.518,4.518,0,0,0-.528.031l.228.569-1.8.6L52,34l-1.2.6.3,2.1h-.9l-.6-.3a5.268,5.268,0,0,0,.369,1.932L50.5,38.2l.3-.6.6-.3.3.6-.99,1.733a5.106,5.106,0,0,0,.568.619L52.3,39.4l.6-1.5h1.8l.3.3-.6,2.1-1.5.94A4.466,4.466,0,0,0,54.4,41.5Zm-8.7-2.1,1.924-.481c-.117-.359-.221-.707-.325-1.019H46.45Zm-4.5-.3-.063-1.2H39.8q.061.608.171,1.2ZM81,35.2h7.5a33.63,33.63,0,0,0-9.3-21.8l-2.5,2.5,1.9,2-.3,1.5,1.5.6,2.1,3.9v.9l-2.1.9-1.5-3-.774.442A26.709,26.709,0,0,1,81,35.2Zm-41.2,0h1.195L40.9,33.4h-.8A14.231,14.231,0,0,0,39.8,35.2Zm-9.6,0h7.2a17.3,17.3,0,0,1,4.2-9.9l-5.1-5A22.266,22.266,0,0,0,30.2,35.2Zm-9.9,0h7.5a26.381,26.381,0,0,1,6.9-16.7l-5.1-5.1A34.146,34.146,0,0,0,20.3,35.2Zm58.4-.1a22.673,22.673,0,0,0-6.3-14.9l-.933.933.634.567-.3.6.9.3,1.2,1.8.9-.3.3.3-.6.9.9.3-.3,1.2,1.2.3.3,1.5-.9,4.2L74.8,34l-.9.6-.25.5H75.7l-.1-.5.9-1.8.3-.9.6-.6v1.5l-.3.3.3.9.1,1.1Zm-4.5-3.5-.6,2.1.9-.3.6-1.2-.6-3-2.1-1.5V25.6l-2.443-2.957L67.3,25.3a16.275,16.275,0,0,1,1.848,2.545L70,28l1.5,1.5-.3.9.3.3,1.2-.9Zm-15.6-.9,5.1-5.4A15.075,15.075,0,0,0,55.6,22V27.36L58,28l1.8-1.5.3.6-.3,1.5-1.8.9-.379.569C57.956,30.271,58.278,30.485,58.6,30.7Zm-17-1.1,2.866-1.433L43.4,27.1A15.756,15.756,0,0,0,41.6,29.6Zm23.9-.1.8-1.408q-.377-.5-.8-.992l-1.029,1.029Zm-13.8,0,.3-2.1,1.2-.48V22a15.073,15.073,0,0,0-8.1,3.3l2.994,3.17Zm3.9-9.8a18.227,18.227,0,0,1,9.9,3.9l2.923-2.813L66.7,18.7l-.3-1.8v-.3l3.3,2.956L70.8,18.5a25.339,25.339,0,0,0-15.2-6.3ZM37.9,18.5l5.4,5.1a18.227,18.227,0,0,1,9.9-3.9h-.1V12.2A25.853,25.853,0,0,0,37.9,18.5Zm-6.8-6.9,5.4,5.1A26.881,26.881,0,0,1,53.2,9.8V2.6A34.775,34.775,0,0,0,31.1,11.6ZM55.7,9.8a26.884,26.884,0,0,1,14.594,5.229L70.5,14l-1.8-1.2L69,11l3.9.9,2.167,2.281L77.8,11.6a34.771,34.771,0,0,0-22.1-9ZM87.6,68.7c7.8-12.9.6-12.9,7.5-25.1a8.1,8.1,0,0,0,1.1.3c-.9,5,1.5,6.5-1.2,14.3l1.2.6c3.3-5.9,9.6-9.2,11.4-15.8l1.2.3c0,20-19.4,26-20.3,26.3A2.236,2.236,0,0,0,87.6,68.7ZM0,43.3,1.2,43C3,49.5,9.3,52.8,12.6,58.8l1.2-.6c-2.7-7.7-.3-9.2-1.2-14.3a6.8,6.8,0,0,0,1.2-.3c6.9,12.3-.3,12.3,7.5,25.1a2.236,2.236,0,0,0-.9.9C19.5,69.3,0,63.3,0,43.3Zm98.3,7.5c.9-11.4-5.4-11.1-3.6-23.6l1.2-.3c1.8,5.3,3.6,4.7,4.5,12.2h1.2c1.8-7.5,4.2-5.7,3.3-16.1a2.27,2.27,0,0,0,1.2-.3c6.5,14.7-4.5,26.6-6.6,28.7ZM2.7,22.6a2.27,2.27,0,0,0,1.2.3C3,33.3,5.4,31.5,7.2,39H8.4c.9-7.4,2.7-6.8,4.5-12.2l1.2.3c1.8,12.5-4.5,12.2-3.6,23.6l-1.2.6C7.2,49.2-3.8,37.3,2.7,22.6ZM75.6,41.2v-.9h.9l.9.6v.6l-.6.6ZM7.2,32.6C5.7,29.9,2.1,13.2,12.6,7.5l.9.6C9,13.7,10.2,17.3,9.6,21.2l1.2.3c2.1-3,5.7-4.2,8.7-9.3l1.2.6C18,25,11.7,21.7,8.4,32.5v.1Zm93.3-.1C97.2,21.8,90.9,25,88.2,12.8l1.2-.6c3,5.1,6.6,6.3,8.7,9.3l1.2-.4c-.6-3.8.6-7.4-3.9-13.1l.9-.6c10.5,5.7,6.9,22.4,5.4,25.1ZM84.6,3.3a4.312,4.312,0,0,1,.6-.9c9,4.7,10.5,8.6,12,13.4l-1.2.6C88.2,10.7,89.7,7.7,84.6,3.3ZM11.7,15.8c1.5-4.7,3-8.6,12-13.4a4.312,4.312,0,0,1,.6.9c-5.1,4.4-3.6,7.4-11.4,13.1ZM73.9,11l-2.1-.9V9.5h1.5l.9,1.5ZM58.6,7.4,57.4,6.2l.3-.3h.6l2.4-1.2h.6l2.1,1.2-.3.3-.9.9L61,6.5l-2.1.9Z" fill="#0092d1"/>
</svg>
